<?xml version="1.0" encoding="UTF-8"?>
<!DOCTYPE svg PUBLIC "-//W3C//DTD SVG 1.1//EN" "http://www.w3.org/Graphics/SVG/1.1/DTD/svg11.dtd">
<svg xmlns="http://www.w3.org/2000/svg" version="1.1" width="320px" height="320px" style="shape-rendering:geometricPrecision; text-rendering:geometricPrecision; image-rendering:optimizeQuality; fill-rule:evenodd; clip-rule:evenodd" xmlns:xlink="http://www.w3.org/1999/xlink">
<g><path style="opacity:1" fill="#f9ed04" d="M 233.5,50.5 C 233.832,100.003 233.499,149.336 232.5,198.5C 183.167,198.5 133.833,198.5 84.5,198.5C 84.5,149.167 84.5,99.8333 84.5,50.5C 134.167,50.5 183.833,50.5 233.5,50.5 Z"/></g>
<g><path style="opacity:1" fill="#d9380e" d="M 159.5,89.5 C 161.153,84.8547 162.819,80.188 164.5,75.5C 164.32,74.4461 163.987,73.4461 163.5,72.5C 159.331,71.9435 154.997,71.7769 150.5,72C 149.046,76.9907 147.212,81.824 145,86.5C 144.272,89.2305 144.438,91.8971 145.5,94.5C 144.675,95.3857 143.675,95.719 142.5,95.5C 142.759,97.9893 141.759,99.656 139.5,100.5C 142.229,90.313 145.562,80.313 149.5,70.5C 155.833,69.1667 162.167,69.1667 168.5,70.5C 165.725,77.0454 162.725,83.3787 159.5,89.5 Z"/></g>
<g><path style="opacity:1" fill="#e71c20" d="M 159.5,89.5 C 158.508,92.8229 157.508,96.1563 156.5,99.5C 155.833,99.5 155.5,99.8333 155.5,100.5C 154.094,100.973 153.427,101.973 153.5,103.5C 153.5,104.167 153.5,104.833 153.5,105.5C 151.025,106.687 150.025,108.687 150.5,111.5C 149.606,114.011 148.606,116.511 147.5,119C 147.833,119.5 148.167,120 148.5,120.5C 155.436,117.865 162.103,114.865 168.5,111.5C 168.833,111.5 169.167,111.5 169.5,111.5C 170.5,111.5 171.5,111.5 172.5,111.5C 174.027,111.573 175.027,110.906 175.5,109.5C 176.167,109.5 176.833,109.5 177.5,109.5C 179.435,108.85 181.435,108.517 183.5,108.5C 183.5,109.5 183.5,110.5 183.5,111.5C 183.5,111.833 183.5,112.167 183.5,112.5C 181.226,117.383 179.226,122.383 177.5,127.5C 176.094,127.973 175.427,128.973 175.5,130.5C 174.551,132.737 173.884,135.071 173.5,137.5C 171.801,138.511 170.301,139.845 169,141.5C 167.714,140.65 167.881,139.483 169.5,138C 167.808,136.693 166.475,135.193 165.5,133.5C 165.5,131.5 165.5,129.5 165.5,127.5C 161.737,128.547 158.07,129.881 154.5,131.5C 150.308,132.766 146.641,134.766 143.5,137.5C 138.094,138.803 132.927,140.803 128,143.5C 127.5,143.167 127,142.833 126.5,142.5C 127.423,139.553 128.089,136.553 128.5,133.5C 129.167,133.5 129.5,133.167 129.5,132.5C 129.833,132.5 130.167,132.5 130.5,132.5C 131.117,132.389 131.617,132.056 132,131.5C 132.497,128.854 132.664,126.187 132.5,123.5C 133.5,119.5 134.5,115.5 135.5,111.5C 136.5,111.167 137.167,110.5 137.5,109.5C 139.074,107.898 139.741,105.898 139.5,103.5C 139.5,102.833 139.5,102.167 139.5,101.5C 139.5,101.167 139.5,100.833 139.5,100.5C 141.759,99.656 142.759,97.9893 142.5,95.5C 143.675,95.719 144.675,95.3857 145.5,94.5C 144.438,91.8971 144.272,89.2305 145,86.5C 147.212,81.824 149.046,76.9907 150.5,72C 154.997,71.7769 159.331,71.9435 163.5,72.5C 163.987,73.4461 164.32,74.4461 164.5,75.5C 162.819,80.188 161.153,84.8547 159.5,89.5 Z"/></g>
<g><path style="opacity:1" fill="#ede758" d="M 233.5,49.5 C 234.665,99.3317 234.832,149.332 234,199.5C 232.989,200.337 231.822,200.67 230.5,200.5C 231.167,199.833 231.833,199.167 232.5,198.5C 233.499,149.336 233.832,100.003 233.5,50.5C 233.5,50.1667 233.5,49.8333 233.5,49.5 Z"/></g>
<g><path style="opacity:1" fill="#bde55a" d="M 137.5,101.5 C 136.833,101.5 136.167,101.5 135.5,101.5C 130.189,100.296 124.856,100.296 119.5,101.5C 122.036,99.0043 125.203,98.0043 129,98.5C 131.167,98.6667 133.333,98.8333 135.5,99C 136.381,99.7083 137.047,100.542 137.5,101.5 Z"/></g>
<g><path style="opacity:1" fill="#58b397" d="M 156.5,99.5 C 162.297,99.3623 167.631,100.696 172.5,103.5C 166.93,102.103 161.264,101.437 155.5,101.5C 155.5,101.167 155.5,100.833 155.5,100.5C 155.5,99.8333 155.833,99.5 156.5,99.5 Z"/></g>
<g><path style="opacity:1" fill="#22a7be" d="M 135.5,101.5 C 135.5,101.833 135.5,102.167 135.5,102.5C 128.922,101.969 122.588,102.635 116.5,104.5C 117.167,103.5 117.833,102.5 118.5,101.5C 118.833,101.5 119.167,101.5 119.5,101.5C 124.856,100.296 130.189,100.296 135.5,101.5 Z"/></g>
<g><path style="opacity:1" fill="#76a883" d="M 135.5,102.5 C 135.5,102.167 135.5,101.833 135.5,101.5C 136.167,101.5 136.833,101.5 137.5,101.5C 138.167,101.5 138.833,101.5 139.5,101.5C 139.5,102.167 139.5,102.833 139.5,103.5C 139.167,103.5 138.833,103.5 138.5,103.5C 138.167,103.5 137.833,103.5 137.5,103.5C 137.158,102.662 136.492,102.328 135.5,102.5 Z"/></g>
<g><path style="opacity:1" fill="#8c4d69" d="M 155.5,100.5 C 155.5,100.833 155.5,101.167 155.5,101.5C 155.167,102.5 154.5,103.167 153.5,103.5C 153.427,101.973 154.094,100.973 155.5,100.5 Z"/></g>
<g><path style="opacity:1" fill="#7fcd7e" d="M 183.5,101.5 C 183.027,102.906 182.027,103.573 180.5,103.5C 180.973,102.094 181.973,101.427 183.5,101.5 Z"/></g>
<g><path style="opacity:1" fill="#8ed06b" d="M 200.5,102.5 C 200.5,102.167 200.5,101.833 200.5,101.5C 202.027,101.427 203.027,102.094 203.5,103.5C 202.391,103.443 201.391,103.11 200.5,102.5 Z"/></g>
<g><path style="opacity:1" fill="#44b0b5" d="M 200.5,101.5 C 200.5,101.833 200.5,102.167 200.5,102.5C 195.167,102.5 189.833,102.5 184.5,102.5C 184.567,103.959 184.234,105.292 183.5,106.5C 183.167,106.5 182.833,106.5 182.5,106.5C 182.389,105.883 182.056,105.383 181.5,105C 178.305,104.819 175.305,104.319 172.5,103.5C 175.167,103.5 177.833,103.5 180.5,103.5C 182.027,103.573 183.027,102.906 183.5,101.5C 185.655,100.463 187.988,99.7966 190.5,99.5C 193.988,99.7008 197.321,100.368 200.5,101.5 Z"/></g>
<g><path style="opacity:1" fill="#0ea7e9" d="M 200.5,102.5 C 201.347,104.029 202.014,105.696 202.5,107.5C 202.167,108.5 201.833,109.5 201.5,110.5C 199.929,109.691 198.262,109.357 196.5,109.5C 192.967,108.285 189.301,108.285 185.5,109.5C 185.715,107.821 185.048,106.821 183.5,106.5C 184.234,105.292 184.567,103.959 184.5,102.5C 189.833,102.5 195.167,102.5 200.5,102.5 Z"/></g>
<g><path style="opacity:1" fill="#9ee072" d="M 114.5,103.5 C 114.5,106.5 114.5,109.5 114.5,112.5C 115.5,112.5 116.5,112.5 117.5,112.5C 116.432,113.434 115.099,113.768 113.5,113.5C 113.187,109.958 113.521,106.625 114.5,103.5 Z"/></g>
<g><path style="opacity:1" fill="#4faf84" d="M 118.5,101.5 C 117.833,102.5 117.167,103.5 116.5,104.5C 115.848,105.449 115.514,106.615 115.5,108C 115.608,109.681 116.275,110.848 117.5,111.5C 117.5,111.833 117.5,112.167 117.5,112.5C 116.5,112.5 115.5,112.5 114.5,112.5C 114.5,109.5 114.5,106.5 114.5,103.5C 115.605,102.4 116.938,101.733 118.5,101.5 Z"/></g>
<g><path style="opacity:1" fill="#05a8eb" d="M 135.5,102.5 C 136.492,102.328 137.158,102.662 137.5,103.5C 136.766,104.708 136.433,106.041 136.5,107.5C 131.064,107.604 126.064,108.604 121.5,110.5C 120.167,110.833 118.833,111.167 117.5,111.5C 116.275,110.848 115.608,109.681 115.5,108C 115.514,106.615 115.848,105.449 116.5,104.5C 122.588,102.635 128.922,101.969 135.5,102.5 Z"/></g>
<g><path style="opacity:1" fill="#ae384d" d="M 138.5,103.5 C 138.833,103.5 139.167,103.5 139.5,103.5C 139.741,105.898 139.074,107.898 137.5,109.5C 137.517,107.435 137.85,105.435 138.5,103.5 Z"/></g>
<g><path style="opacity:1" fill="#3f9fc0" d="M 137.5,103.5 C 137.833,103.5 138.167,103.5 138.5,103.5C 137.85,105.435 137.517,107.435 137.5,109.5C 137.167,110.5 136.5,111.167 135.5,111.5C 135.167,111.5 134.833,111.5 134.5,111.5C 134.389,110.883 134.056,110.383 133.5,110C 129.973,109.192 126.64,109.359 123.5,110.5C 122.833,110.5 122.167,110.5 121.5,110.5C 126.064,108.604 131.064,107.604 136.5,107.5C 136.433,106.041 136.766,104.708 137.5,103.5 Z"/></g>
<g><path style="opacity:1" fill="#18a7e4" d="M 155.5,101.5 C 161.264,101.437 166.93,102.103 172.5,103.5C 175.305,104.319 178.305,104.819 181.5,105C 182.056,105.383 182.389,105.883 182.5,106.5C 180.435,106.953 178.768,107.953 177.5,109.5C 176.833,109.5 176.167,109.5 175.5,109.5C 173.973,109.427 172.973,110.094 172.5,111.5C 171.5,111.5 170.5,111.5 169.5,111.5C 169.047,110.542 168.381,109.708 167.5,109C 162.648,108.185 157.981,108.352 153.5,109.5C 153.158,110.338 152.492,110.672 151.5,110.5C 152.167,108.833 152.833,107.167 153.5,105.5C 153.5,104.833 153.5,104.167 153.5,103.5C 154.5,103.167 155.167,102.5 155.5,101.5 Z"/></g>
<g><path style="opacity:1" fill="#9a4453" d="M 182.5,106.5 C 182.833,106.5 183.167,106.5 183.5,106.5C 185.048,106.821 185.715,107.821 185.5,109.5C 184.662,109.842 184.328,110.508 184.5,111.5C 184.167,111.5 183.833,111.5 183.5,111.5C 183.5,110.5 183.5,109.5 183.5,108.5C 181.435,108.517 179.435,108.85 177.5,109.5C 178.768,107.953 180.435,106.953 182.5,106.5 Z"/></g>
<g><path style="opacity:1" fill="#21a3b6" d="M 153.5,109.5 C 157.981,108.352 162.648,108.185 167.5,109C 168.381,109.708 169.047,110.542 169.5,111.5C 169.167,111.5 168.833,111.5 168.5,111.5C 168.167,111.5 167.833,111.5 167.5,111.5C 167.389,110.883 167.056,110.383 166.5,110C 162.179,109.501 157.846,109.334 153.5,109.5 Z"/></g>
<g><path style="opacity:1" fill="#38a6a6" d="M 196.5,109.5 C 192.295,109.191 188.295,109.857 184.5,111.5C 184.328,110.508 184.662,109.842 185.5,109.5C 189.301,108.285 192.967,108.285 196.5,109.5 Z"/></g>
<g><path style="opacity:1" fill="#28a3b3" d="M 200.5,102.5 C 201.391,103.11 202.391,103.443 203.5,103.5C 203.817,106.572 203.484,109.572 202.5,112.5C 200.55,111.628 198.55,110.961 196.5,110.5C 196.5,110.167 196.5,109.833 196.5,109.5C 198.262,109.357 199.929,109.691 201.5,110.5C 201.833,109.5 202.167,108.5 202.5,107.5C 202.014,105.696 201.347,104.029 200.5,102.5 Z"/></g>
<g><path style="opacity:1" fill="#9ada65" d="M 123.5,110.5 C 126.64,109.359 129.973,109.192 133.5,110C 134.056,110.383 134.389,110.883 134.5,111.5C 130.901,110.656 127.234,110.323 123.5,110.5 Z"/></g>
<g><path style="opacity:1" fill="#9d4a59" d="M 153.5,105.5 C 152.833,107.167 152.167,108.833 151.5,110.5C 151.5,110.833 151.5,111.167 151.5,111.5C 151.167,111.5 150.833,111.5 150.5,111.5C 150.025,108.687 151.025,106.687 153.5,105.5 Z"/></g>
<g><path style="opacity:1" fill="#91d574" d="M 153.5,109.5 C 157.846,109.334 162.179,109.501 166.5,110C 167.056,110.383 167.389,110.883 167.5,111.5C 162.189,110.296 156.856,110.296 151.5,111.5C 151.5,111.167 151.5,110.833 151.5,110.5C 152.492,110.672 153.158,110.338 153.5,109.5 Z"/></g>
<g><path style="opacity:1" fill="#8e4f73" d="M 175.5,109.5 C 175.027,110.906 174.027,111.573 172.5,111.5C 172.973,110.094 173.973,109.427 175.5,109.5 Z"/></g>
<g><path style="opacity:1" fill="#c3e251" d="M 196.5,109.5 C 196.5,109.833 196.5,110.167 196.5,110.5C 192.019,110.425 187.686,111.092 183.5,112.5C 183.5,112.167 183.5,111.833 183.5,111.5C 183.833,111.5 184.167,111.5 184.5,111.5C 188.295,109.857 192.295,109.191 196.5,109.5 Z"/></g>
<g><path style="opacity:1" fill="#a8dc5a" d="M 203.5,103.5 C 204.479,106.625 204.813,109.958 204.5,113.5C 201.189,113.693 198.522,112.693 196.5,110.5C 198.522,112.693 201.189,113.693 204.5,113.5C 204.813,109.958 204.479,106.625 203.5,103.5 Z"/></g>
<g><path style="opacity:1" fill="#f7eb1a" d="M 167.5,111.5 C 167.833,111.5 168.167,111.5 168.5,111.5C 162.103,114.865 155.436,117.865 148.5,120.5C 148.167,120 147.833,119.5 147.5,119C 148.606,116.511 149.606,114.011 150.5,111.5C 150.833,111.5 151.167,111.5 151.5,111.5C 156.856,110.296 162.189,110.296 167.5,111.5 Z"/></g>
<g><path style="opacity:1" fill="#53b68e" d="M 199.5,125.5 C 194.167,124.167 188.833,124.167 183.5,125.5C 183.611,124.883 183.944,124.383 184.5,124C 188.833,123.333 193.167,123.333 197.5,124C 198.416,124.278 199.082,124.778 199.5,125.5 Z"/></g>
<g><path style="opacity:1" fill="#8ad076" d="M 124.5,123.5 C 122.739,124.313 121.072,125.313 119.5,126.5C 118.041,126.433 116.708,126.766 115.5,127.5C 117.64,124.659 120.64,123.326 124.5,123.5 Z"/></g>
<g><path style="opacity:1" fill="#30a8a8" d="M 124.5,123.5 C 126.833,123.5 129.167,123.5 131.5,123.5C 131.5,123.833 131.5,124.167 131.5,124.5C 127.374,124.572 123.374,125.239 119.5,126.5C 121.072,125.313 122.739,124.313 124.5,123.5 Z"/></g>
<g><path style="opacity:1" fill="#f1e53b" d="M 233.5,49.5 C 233.5,49.8333 233.5,50.1667 233.5,50.5C 183.833,50.5 134.167,50.5 84.5,50.5C 84.5,99.8333 84.5,149.167 84.5,198.5C 133.833,198.5 183.167,198.5 232.5,198.5C 231.833,199.167 231.167,199.833 230.5,200.5C 181.529,199.536 132.696,199.203 84,199.5C 83.5,149.501 83.3333,99.5011 83.5,49.5C 133.5,49.5 183.5,49.5 233.5,49.5 Z"/></g>
<g><path style="opacity:1" fill="#17a8e4" d="M 199.5,125.5 C 200.167,125.5 200.833,125.5 201.5,125.5C 201.833,126.167 202.167,126.833 202.5,127.5C 202.5,129.833 202.5,132.167 202.5,134.5C 201.5,134.5 200.5,134.5 199.5,134.5C 199.158,133.662 198.492,133.328 197.5,133.5C 194.024,132.357 190.358,132.19 186.5,133C 185.619,133.708 184.953,134.542 184.5,135.5C 181.365,137.023 178.032,137.69 174.5,137.5C 174.167,137.5 173.833,137.5 173.5,137.5C 173.884,135.071 174.551,132.737 175.5,130.5C 176.906,130.027 177.573,129.027 177.5,127.5C 179.718,127.386 181.718,126.72 183.5,125.5C 188.833,124.167 194.167,124.167 199.5,125.5 Z"/></g>
<g><path style="opacity:1" fill="#14a7e2" d="M 131.5,124.5 C 131.5,125.833 131.5,127.167 131.5,128.5C 129.896,129.287 129.229,130.62 129.5,132.5C 126.813,132.336 124.146,132.503 121.5,133C 120.244,133.417 119.577,134.25 119.5,135.5C 118.833,135.5 118.167,135.5 117.5,135.5C 115.631,133.365 114.964,130.698 115.5,127.5C 116.708,126.766 118.041,126.433 119.5,126.5C 123.374,125.239 127.374,124.572 131.5,124.5 Z"/></g>
<g><path style="opacity:1" fill="#8f4b65" d="M 177.5,127.5 C 177.573,129.027 176.906,130.027 175.5,130.5C 175.427,128.973 176.094,127.973 177.5,127.5 Z"/></g>
<g><path style="opacity:1" fill="#875e7f" d="M 131.5,128.5 C 131.167,129.833 130.833,131.167 130.5,132.5C 130.167,132.5 129.833,132.5 129.5,132.5C 129.229,130.62 129.896,129.287 131.5,128.5 Z"/></g>
<g><path style="opacity:1" fill="#bd3442" d="M 131.5,123.5 C 131.833,123.5 132.167,123.5 132.5,123.5C 132.664,126.187 132.497,128.854 132,131.5C 131.617,132.056 131.117,132.389 130.5,132.5C 130.833,131.167 131.167,129.833 131.5,128.5C 131.5,127.167 131.5,125.833 131.5,124.5C 131.5,124.167 131.5,123.833 131.5,123.5 Z"/></g>
<g><path style="opacity:1" fill="#4598ca" d="M 165.5,133.5 C 165.167,133.5 164.833,133.5 164.5,133.5C 161.167,132.833 157.833,132.167 154.5,131.5C 158.07,129.881 161.737,128.547 165.5,127.5C 165.5,129.5 165.5,131.5 165.5,133.5 Z"/></g>
<g><path style="opacity:1" fill="#61be80" d="M 115.5,127.5 C 114.964,130.698 115.631,133.365 117.5,135.5C 116.432,136.434 115.099,136.768 113.5,136.5C 112.945,132.988 113.612,129.988 115.5,127.5 Z"/></g>
<g><path style="opacity:1" fill="#87c95d" d="M 201.5,125.5 C 202.496,125.414 203.329,125.748 204,126.5C 204.498,129.817 204.665,133.15 204.5,136.5C 202.901,136.768 201.568,136.434 200.5,135.5C 201.5,135.5 202.5,135.5 203.5,135.5C 203.806,132.615 203.473,129.948 202.5,127.5C 202.167,126.833 201.833,126.167 201.5,125.5 Z"/></g>
<g><path style="opacity:1" fill="#61b893" d="M 129.5,132.5 C 129.5,133.167 129.167,133.5 128.5,133.5C 125.308,133.405 122.308,134.071 119.5,135.5C 119.577,134.25 120.244,133.417 121.5,133C 124.146,132.503 126.813,132.336 129.5,132.5 Z"/></g>
<g><path style="opacity:1" fill="#4db49b" d="M 197.5,133.5 C 194.15,133.335 190.817,133.502 187.5,134C 186.944,134.383 186.611,134.883 186.5,135.5C 185.833,135.5 185.167,135.5 184.5,135.5C 184.953,134.542 185.619,133.708 186.5,133C 190.358,132.19 194.024,132.357 197.5,133.5 Z"/></g>
<g><path style="opacity:1" fill="#c1ea58" d="M 163.5,133.5 C 159.684,134.482 155.684,135.149 151.5,135.5C 151.611,134.883 151.944,134.383 152.5,134C 156.152,133.501 159.818,133.335 163.5,133.5 Z"/></g>
<g><path style="opacity:1" fill="#bee85f" d="M 197.5,133.5 C 198.492,133.328 199.158,133.662 199.5,134.5C 199.5,134.833 199.5,135.167 199.5,135.5C 195.167,134.167 190.833,134.167 186.5,135.5C 186.611,134.883 186.944,134.383 187.5,134C 190.817,133.502 194.15,133.335 197.5,133.5 Z"/></g>
<g><path style="opacity:1" fill="#31a2a8" d="M 202.5,127.5 C 203.473,129.948 203.806,132.615 203.5,135.5C 202.5,135.5 201.5,135.5 200.5,135.5C 200.167,135.5 199.833,135.5 199.5,135.5C 199.5,135.167 199.5,134.833 199.5,134.5C 200.5,134.5 201.5,134.5 202.5,134.5C 202.5,132.167 202.5,129.833 202.5,127.5 Z"/></g>
<g><path style="opacity:1" fill="#6d8a88" d="M 154.5,131.5 C 157.833,132.167 161.167,132.833 164.5,133.5C 164.167,133.5 163.833,133.5 163.5,133.5C 159.818,133.335 156.152,133.501 152.5,134C 151.944,134.383 151.611,134.883 151.5,135.5C 149.302,135.12 147.635,135.787 146.5,137.5C 145.5,137.5 144.5,137.5 143.5,137.5C 146.641,134.766 150.308,132.766 154.5,131.5 Z"/></g>
<g><path style="opacity:1" fill="#b3e45f" d="M 151.5,135.5 C 150.365,137.213 148.698,137.88 146.5,137.5C 147.635,135.787 149.302,135.12 151.5,135.5 Z"/></g>
<g><path style="opacity:1" fill="#cdef43" d="M 184.5,135.5 C 184.5,136.5 184.5,137.5 184.5,138.5C 180.958,138.813 177.625,138.479 174.5,137.5C 178.032,137.69 181.365,137.023 184.5,135.5 Z"/></g>
<g><path style="opacity:1" fill="#dd301a" d="M 164.5,133.5 C 164.833,133.5 165.167,133.5 165.5,133.5C 166.475,135.193 167.808,136.693 169.5,138C 167.881,139.483 167.714,140.65 169,141.5C 170.301,139.845 171.801,138.511 173.5,137.5C 171.604,141.297 170.27,145.297 169.5,149.5C 167.73,151.454 166.397,153.787 165.5,156.5C 165.5,156.833 165.5,157.167 165.5,157.5C 163.127,163.71 160.46,169.71 157.5,175.5C 157.5,174.167 157.5,172.833 157.5,171.5C 158.167,166.833 158.833,162.167 159.5,157.5C 159.833,156.833 160.167,156.167 160.5,155.5C 161.468,153.393 161.802,151.059 161.5,148.5C 161.5,147.833 161.5,147.167 161.5,146.5C 162.81,142.35 163.81,138.017 164.5,133.5 Z"/></g>
<g><path style="opacity:1" fill="#3bada3" d="M 135.5,148.5 C 130.105,148.267 124.772,148.6 119.5,149.5C 121.743,148.188 124.41,147.522 127.5,147.5C 130.355,147.503 133.022,147.836 135.5,148.5 Z"/></g>
<g><path style="opacity:1" fill="#55b19c" d="M 161.5,146.5 C 161.5,147.167 161.5,147.833 161.5,148.5C 156.964,148.433 152.631,149.099 148.5,150.5C 148.5,150.167 148.5,149.833 148.5,149.5C 152.517,147.414 156.85,146.414 161.5,146.5 Z"/></g>
<g><path style="opacity:1" fill="#12a8e4" d="M 187.5,157.5 C 187.167,157.5 186.833,157.5 186.5,157.5C 185.391,157.557 184.391,157.89 183.5,158.5C 180.998,158.749 178.498,159.083 176,159.5C 172.361,158.837 168.861,157.837 165.5,156.5C 166.397,153.787 167.73,151.454 169.5,149.5C 173.55,151.96 177.55,151.96 181.5,149.5C 182.167,149.5 182.833,149.5 183.5,149.5C 189.93,148.054 196.264,148.387 202.5,150.5C 202.664,153.187 202.497,155.854 202,158.5C 199.006,156.628 195.673,155.628 192,155.5C 189.992,155.307 188.492,155.974 187.5,157.5 Z"/></g>
<g><path style="opacity:1" fill="#aae369" d="M 169.5,149.5 C 173.5,149.5 177.5,149.5 181.5,149.5C 177.55,151.96 173.55,151.96 169.5,149.5 Z"/></g>
<g><path style="opacity:1" fill="#87c559" d="M 203.5,150.5 C 204.479,153.625 204.813,156.958 204.5,160.5C 203.5,160.5 202.5,160.5 201.5,160.5C 201.5,160.167 201.5,159.833 201.5,159.5C 203.388,157.012 204.055,154.012 203.5,150.5 Z"/></g>
<g><path style="opacity:1" fill="#0ea9e4" d="M 135.5,148.5 C 136.347,149.966 137.68,150.8 139.5,151C 142.592,151.736 145.592,151.569 148.5,150.5C 152.631,149.099 156.964,148.433 161.5,148.5C 161.802,151.059 161.468,153.393 160.5,155.5C 160.083,154.876 159.416,154.543 158.5,154.5C 155.991,155.836 153.324,156.67 150.5,157C 149.619,157.708 148.953,158.542 148.5,159.5C 147.833,159.5 147.5,159.833 147.5,160.5C 144.14,160.384 140.807,160.051 137.5,159.5C 136.391,159.443 135.391,159.11 134.5,158.5C 134.5,158.167 134.5,157.833 134.5,157.5C 131.292,155.469 127.959,155.135 124.5,156.5C 124.167,156.5 123.833,156.5 123.5,156.5C 120.843,156.162 118.51,156.829 116.5,158.5C 115.526,156.257 115.192,153.924 115.5,151.5C 115.5,151.167 115.5,150.833 115.5,150.5C 116.568,149.566 117.901,149.232 119.5,149.5C 124.772,148.6 130.105,148.267 135.5,148.5 Z"/></g>
<g><path style="opacity:1" fill="#5bb687" d="M 135.5,148.5 C 139.731,150.485 144.064,150.818 148.5,149.5C 148.5,149.833 148.5,150.167 148.5,150.5C 145.592,151.569 142.592,151.736 139.5,151C 137.68,150.8 136.347,149.966 135.5,148.5 Z"/></g>
<g><path style="opacity:1" fill="#ade06e" d="M 115.5,150.5 C 115.5,150.833 115.5,151.167 115.5,151.5C 114.527,153.948 114.194,156.615 114.5,159.5C 115.5,159.5 116.5,159.5 117.5,159.5C 116.713,161.104 115.38,161.771 113.5,161.5C 112.92,157.351 113.586,153.684 115.5,150.5 Z"/></g>
<g><path style="opacity:1" fill="#2fa89e" d="M 124.5,156.5 C 127.959,155.135 131.292,155.469 134.5,157.5C 131.193,156.949 127.86,156.616 124.5,156.5 Z"/></g>
<g><path style="opacity:1" fill="#42ada3" d="M 203.5,150.5 C 204.055,154.012 203.388,157.012 201.5,159.5C 197.066,157.763 192.399,157.096 187.5,157.5C 188.492,155.974 189.992,155.307 192,155.5C 195.673,155.628 199.006,156.628 202,158.5C 202.497,155.854 202.664,153.187 202.5,150.5C 196.264,148.387 189.93,148.054 183.5,149.5C 185.743,148.188 188.41,147.522 191.5,147.5C 195.881,147.532 199.881,148.532 203.5,150.5 Z"/></g>
<g><path style="opacity:1" fill="#bae95e" d="M 123.5,156.5 C 123.833,156.5 124.167,156.5 124.5,156.5C 127.86,156.616 131.193,156.949 134.5,157.5C 134.5,157.833 134.5,158.167 134.5,158.5C 129.105,158.267 123.772,158.6 118.5,159.5C 119.913,158.065 121.58,157.065 123.5,156.5 Z"/></g>
<g><path style="opacity:1" fill="#43adb1" d="M 160.5,155.5 C 160.167,156.167 159.833,156.833 159.5,157.5C 157.5,157.5 155.5,157.5 153.5,157.5C 151.833,158.167 150.167,158.833 148.5,159.5C 148.953,158.542 149.619,157.708 150.5,157C 153.324,156.67 155.991,155.836 158.5,154.5C 159.416,154.543 160.083,154.876 160.5,155.5 Z"/></g>
<g><path style="opacity:1" fill="#34a59e" d="M 115.5,151.5 C 115.192,153.924 115.526,156.257 116.5,158.5C 118.51,156.829 120.843,156.162 123.5,156.5C 121.58,157.065 119.913,158.065 118.5,159.5C 118.167,159.5 117.833,159.5 117.5,159.5C 116.5,159.5 115.5,159.5 114.5,159.5C 114.194,156.615 114.527,153.948 115.5,151.5 Z"/></g>
<g><path style="opacity:1" fill="#bae15f" d="M 153.5,157.5 C 152.198,159.822 150.198,161.155 147.5,161.5C 147.5,161.167 147.5,160.833 147.5,160.5C 147.5,159.833 147.833,159.5 148.5,159.5C 150.167,158.833 151.833,158.167 153.5,157.5 Z"/></g>
<g><path style="opacity:1" fill="#3aa8aa" d="M 165.5,157.5 C 165.5,157.167 165.5,156.833 165.5,156.5C 168.861,157.837 172.361,158.837 176,159.5C 178.498,159.083 180.998,158.749 183.5,158.5C 180.493,160.175 177.16,160.841 173.5,160.5C 171.708,160.634 170.042,160.301 168.5,159.5C 167.71,158.599 166.71,157.932 165.5,157.5 Z"/></g>
<g><path style="opacity:1" fill="#92d474" d="M 186.5,157.5 C 185.657,159.173 184.324,160.34 182.5,161C 179.304,161.805 176.304,161.638 173.5,160.5C 177.16,160.841 180.493,160.175 183.5,158.5C 184.391,157.89 185.391,157.557 186.5,157.5 Z"/></g>
<g><path style="opacity:1" fill="#6ec68a" d="M 137.5,159.5 C 140.807,160.051 144.14,160.384 147.5,160.5C 147.5,160.833 147.5,161.167 147.5,161.5C 144.813,161.664 142.146,161.497 139.5,161C 138.584,160.722 137.918,160.222 137.5,159.5 Z"/></g>
<g><path style="opacity:1" fill="#e8f22b" d="M 186.5,157.5 C 186.833,157.5 187.167,157.5 187.5,157.5C 192.399,157.096 197.066,157.763 201.5,159.5C 201.5,159.833 201.5,160.167 201.5,160.5C 194.819,157.303 188.652,157.969 183,162.5C 182.851,165.279 182.017,165.779 180.5,164C 180.833,163.667 181.167,163.333 181.5,163C 178.183,162.502 174.85,162.335 171.5,162.5C 171.626,164.2 172.293,165.7 173.5,167C 173.167,167.5 172.833,168 172.5,168.5C 171.646,167.478 170.646,166.645 169.5,166C 169.957,165.586 170.291,165.086 170.5,164.5C 169.544,162.925 168.877,161.258 168.5,159.5C 170.042,160.301 171.708,160.634 173.5,160.5C 176.304,161.638 179.304,161.805 182.5,161C 184.324,160.34 185.657,159.173 186.5,157.5 Z"/></g>
<g><path style="opacity:1" fill="#d98407" d="M 157.5,171.5 C 157.5,172.833 157.5,174.167 157.5,175.5C 157.628,177.655 157.128,179.655 156,181.5C 155.326,177.888 155.826,174.554 157.5,171.5 Z"/></g>
<g><path style="opacity:1" fill="#10a8e5" d="M 86.5,221.5 C 95.5822,221.086 104.582,221.586 113.5,223C 122.365,229.278 124.532,237.444 120,247.5C 117.736,250.433 114.902,252.6 111.5,254C 106.5,254.333 101.5,254.667 96.5,255C 95.6669,257.081 95.6669,259.248 96.5,261.5C 95.5655,262.568 95.2322,263.901 95.5,265.5C 92.0813,267.087 88.4146,267.753 84.5,267.5C 83.8738,251.925 84.5405,236.592 86.5,221.5 Z M 95.5,232.5 C 99.1817,232.335 102.848,232.501 106.5,233C 110.08,235.926 110.413,239.26 107.5,243C 103.848,243.499 100.182,243.665 96.5,243.5C 96.2756,239.821 95.9422,236.154 95.5,232.5 Z"/></g>
<g><path style="opacity:1" fill="#0aa8e6" d="M 153.5,258.5 C 155.903,259.131 158.236,260.131 160.5,261.5C 164.108,260.407 167.775,260.24 171.5,261C 172.406,262.699 172.739,264.533 172.5,266.5C 161.784,267.024 151.117,267.024 140.5,266.5C 139.501,251.848 139.167,237.182 139.5,222.5C 143.233,221.179 147.066,221.179 151,222.5C 150.85,234.875 151.683,246.875 153.5,258.5 Z"/></g>
<g><path style="opacity:1" fill="#3b9dc7" d="M 213.5,256.5 C 216.633,259.144 219.299,262.311 221.5,266C 225.363,267.354 229.363,267.854 233.5,267.5C 233.5,252.5 233.5,237.5 233.5,222.5C 230.223,222.216 227.057,222.549 224,223.5C 223.829,231.677 223.329,239.677 222.5,247.5C 222.5,238.833 222.5,230.167 222.5,221.5C 226.5,221.5 230.5,221.5 234.5,221.5C 234.5,237.167 234.5,252.833 234.5,268.5C 230.154,268.666 225.821,268.499 221.5,268C 218.223,264.563 215.557,260.729 213.5,256.5 Z"/></g>
<g><path style="opacity:1" fill="#31a2cb" d="M 86.5,221.5 C 84.5405,236.592 83.8738,251.925 84.5,267.5C 88.4146,267.753 92.0813,267.087 95.5,265.5C 95.2322,263.901 95.5655,262.568 96.5,261.5C 96.7564,263.792 96.4231,265.959 95.5,268C 91.5138,268.499 87.5138,268.666 83.5,268.5C 83.5,252.833 83.5,237.167 83.5,221.5C 84.5,221.5 85.5,221.5 86.5,221.5 Z"/></g>
<g><path style="opacity:1" fill="#11a8e4" d="M 222.5,247.5 C 223.329,239.677 223.829,231.677 224,223.5C 227.057,222.549 230.223,222.216 233.5,222.5C 233.5,237.5 233.5,252.5 233.5,267.5C 229.363,267.854 225.363,267.354 221.5,266C 219.299,262.311 216.633,259.144 213.5,256.5C 210.197,252.349 207.03,248.015 204,243.5C 203.5,251.827 203.334,260.16 203.5,268.5C 199.5,268.5 195.5,268.5 191.5,268.5C 191.5,252.833 191.5,237.167 191.5,221.5C 195.514,221.334 199.514,221.501 203.5,222C 209.976,230.479 216.309,238.979 222.5,247.5 Z"/></g>
<g><path style="opacity:1" fill="#01a8ec" d="M 192.5,222.5 C 195.85,222.335 199.183,222.502 202.5,223C 203.333,223.833 204.167,224.667 205,225.5C 206.462,228.436 207.629,231.436 208.5,234.5C 206.418,234.528 204.584,233.861 203,232.5C 201.104,229.762 199.771,226.762 199,223.5C 197.255,227.389 197.255,231.389 199,235.5C 200.608,237.1 202.441,238.433 204.5,239.5C 204.167,240.5 203.5,241.167 202.5,241.5C 201.476,240.147 200.143,239.48 198.5,239.5C 198.55,237.41 197.55,236.077 195.5,235.5C 193.889,236.32 193.222,237.654 193.5,239.5C 194.5,239.5 195.5,239.5 196.5,239.5C 196.413,242.598 196.913,242.932 198,240.5C 199.098,241.967 200.598,242.801 202.5,243C 202.761,250.65 202.428,258.484 201.5,266.5C 198.744,266.218 195.911,266.218 193,266.5C 192.333,255.833 192.333,245.167 193,234.5C 193.875,233.127 194.375,231.627 194.5,230C 193.678,227.528 193.011,225.028 192.5,222.5 Z"/></g>
<g><path style="opacity:1" fill="#359fc7" d="M 139.5,222.5 C 139.167,237.182 139.501,251.848 140.5,266.5C 151.117,267.024 161.784,267.024 172.5,266.5C 172.739,264.533 172.406,262.699 171.5,261C 167.775,260.24 164.108,260.407 160.5,261.5C 158.236,260.131 155.903,259.131 153.5,258.5C 160.167,258.5 166.833,258.5 173.5,258.5C 173.5,261.833 173.5,265.167 173.5,268.5C 161.833,268.5 150.167,268.5 138.5,268.5C 138.17,252.991 138.504,237.658 139.5,222.5 Z"/></g>
</svg>
