<?xml version="1.0" encoding="UTF-8"?>
<!DOCTYPE svg PUBLIC "-//W3C//DTD SVG 1.1//EN" "http://www.w3.org/Graphics/SVG/1.1/DTD/svg11.dtd">
<svg xmlns="http://www.w3.org/2000/svg" version="1.1" width="512px" height="512px" style="shape-rendering:geometricPrecision; text-rendering:geometricPrecision; image-rendering:optimizeQuality; fill-rule:evenodd; clip-rule:evenodd" xmlns:xlink="http://www.w3.org/1999/xlink">
<g><path style="opacity:1" fill="#f9faf9" d="M -0.5,390.5 C -0.5,378.833 -0.5,367.167 -0.5,355.5C 3.86864,337.322 14.8686,324.822 32.5,318C 43.9164,313.194 55.2498,308.194 66.5,303C 73.7147,295.283 81.3813,288.117 89.5,281.5C 92.4086,274.2 90.4086,269.033 83.5,266C 69.7636,254.085 60.7636,239.251 56.5,221.5C 47.2908,220.157 40.4574,215.491 36,207.5C 34.443,200.247 34.1097,192.914 35,185.5C 35.7246,183.051 36.7246,180.717 38,178.5C 40.2224,176.615 42.0557,174.449 43.5,172C 36.349,132.256 49.349,101.089 82.5,78.5C 85.2052,53.2151 98.8718,37.7151 123.5,32C 158.19,28.697 178.356,44.197 184,78.5C 216.749,100.843 229.915,131.677 223.5,171C 226.337,174.866 228.837,179.033 231,183.5C 233.724,193.302 232.724,202.636 228,211.5C 223.334,217.583 217.168,220.583 209.5,220.5C 205.444,241.622 194.611,258.288 177,270.5C 176.175,274.211 176.341,277.878 177.5,281.5C 185.952,288.45 193.952,295.95 201.5,304C 217.662,310.382 233.329,317.715 248.5,326C 262.07,337.309 268.403,351.809 267.5,369.5C 266.055,404.169 264.555,438.836 263,473.5C 261.171,479.158 257.337,480.992 251.5,479C 249.667,478.5 248.5,477.333 248,475.5C 248.442,440.32 249.609,405.153 251.5,370C 252.276,362.61 250.776,355.777 247,349.5C 240.333,357.5 233.667,365.5 227,373.5C 224.139,377.888 221.806,382.554 220,387.5C 218.708,416.46 218.041,445.46 218,474.5C 215.565,479.224 211.731,480.724 206.5,479C 204.951,477.786 203.785,476.286 203,474.5C 202.04,444.793 202.374,415.127 204,385.5C 205.438,379.957 207.438,374.624 210,369.5C 218.26,358.651 226.76,347.984 235.5,337.5C 223.895,331.448 212.062,325.782 200,320.5C 192.667,332.5 185.333,344.5 178,356.5C 173.084,363.135 166.584,365.302 158.5,363C 152.709,358.878 147.209,354.378 142,349.5C 141.667,391.167 141.333,432.833 141,474.5C 138.565,479.224 134.731,480.724 129.5,479C 127.667,478.5 126.5,477.333 126,475.5C 125.667,433.5 125.333,391.5 125,349.5C 119.737,354.765 113.904,359.265 107.5,363C 100.755,364.702 94.9218,363.202 90,358.5C 82.3333,345.833 74.6667,333.167 67,320.5C 55.3333,325.833 43.6667,331.167 32,336.5C 31.3333,337.5 31.3333,338.5 32,339.5C 40.3773,348.875 48.3773,358.542 56,368.5C 60.8901,376.837 63.5567,385.837 64,395.5C 64.6667,421.5 64.6667,447.5 64,473.5C 62.1706,479.158 58.3373,480.992 52.5,479C 50.6667,478.5 49.5,477.333 49,475.5C 48.6667,449.167 48.3333,422.833 48,396.5C 47.2286,387.631 44.2286,379.631 39,372.5C 32.7253,364.938 26.2253,357.605 19.5,350.5C 17.8062,352.554 16.6395,354.888 16,357.5C 15.8333,362.833 15.6667,368.167 15.5,373.5C 16.9424,407.172 18.109,440.838 19,474.5C 16.5647,479.224 12.7314,480.724 7.5,479C 6.66667,478.167 5.83333,477.333 5,476.5C 3.77581,471.614 3.10914,466.614 3,461.5C 2.15999,437.659 0.993326,413.992 -0.5,390.5 Z M 125.5,47.5 C 139.761,45.4184 151.595,49.7517 161,60.5C 163.204,63.2296 164.537,66.2296 165,69.5C 154.887,65.6204 144.387,63.9537 133.5,64.5C 122.613,63.9537 112.113,65.6204 102,69.5C 102.674,64.1176 105.174,59.6176 109.5,56C 114.493,52.339 119.827,49.5057 125.5,47.5 Z M 131.5,79.5 C 170.894,81.4181 196.394,101.085 208,138.5C 210.039,148.876 209.872,159.21 207.5,169.5C 205.856,169.286 204.356,169.62 203,170.5C 199.686,167.182 195.852,164.682 191.5,163C 166.265,164.294 141.932,160.294 118.5,151C 106.919,145.04 96.5854,137.373 87.5,128C 78.2099,126.378 74.7099,130.211 77,139.5C 95.6328,159.904 118.799,172.07 146.5,176C 160.096,177.904 173.762,178.904 187.5,179C 190.833,181.667 194.167,184.333 197.5,187C 201.465,187.534 205.298,187.034 209,185.5C 214.766,185.672 217.266,188.672 216.5,194.5C 216.888,197.861 215.888,200.694 213.5,203C 206.33,203.163 200.496,205.997 196,211.5C 189.027,245.723 168.194,264.39 133.5,267.5C 98.3581,264.197 77.1914,245.197 70,210.5C 65.231,205.584 59.3976,203.084 52.5,203C 50.4896,198.391 49.9896,193.558 51,188.5C 52.8637,185.793 55.3637,184.959 58.5,186C 60.4927,187.621 62.4927,189.287 64.5,191C 67.8333,191.667 71.1667,191.667 74.5,191C 82.1145,187.063 87.1145,181.063 89.5,173C 87.8718,165.549 83.5385,163.549 76.5,167C 74.4514,169.593 72.2848,172.093 70,174.5C 66.6217,171.977 62.9551,169.977 59,168.5C 53.6181,128.914 69.1181,101.081 105.5,85C 114.078,82.0526 122.745,80.2193 131.5,79.5 Z M 106.5,278.5 C 124.324,285.148 142.157,285.148 160,278.5C 160.667,283.5 160.667,288.5 160,293.5C 151.319,302.348 142.486,311.014 133.5,319.5C 124.514,311.014 115.681,302.348 107,293.5C 106.501,288.511 106.334,283.511 106.5,278.5 Z M 90.5,301.5 C 101.246,310.743 111.58,320.576 121.5,331C 115.534,336.645 109.201,341.812 102.5,346.5C 95.0556,335.121 87.7223,323.621 80.5,312C 84.0374,308.631 87.3707,305.131 90.5,301.5 Z M 174.5,301.5 C 178.947,304.113 182.614,307.613 185.5,312C 178.466,323.9 171.299,335.734 164,347.5C 157.833,342 151.667,336.5 145.5,331C 155.369,321.298 165.036,311.465 174.5,301.5 Z"/></g>
<g><path style="opacity:1" fill="#f9faf9" d="M 511.5,316.5 C 511.5,328.5 511.5,340.5 511.5,352.5C 509.67,393.73 507.503,435.064 505,476.5C 501.281,479.902 497.114,480.402 492.5,478C 491.874,477.25 491.374,476.416 491,475.5C 492.546,423.506 493.88,371.506 495,319.5C 486.667,327.833 478.333,336.167 470,344.5C 465.706,350.092 463.373,356.425 463,363.5C 462.667,400.833 462.333,438.167 462,475.5C 461.5,477.333 460.333,478.5 458.5,479C 452.663,480.992 448.829,479.158 447,473.5C 446.048,433.807 446.382,394.141 448,354.5C 449.655,347.189 452.655,340.522 457,334.5C 467.014,324.653 476.848,314.653 486.5,304.5C 483.595,300.71 479.928,297.877 475.5,296C 463,291.167 450.5,286.333 438,281.5C 427.292,295.217 417.292,309.551 408,324.5C 400.338,333.527 391.004,335.86 380,331.5C 381.471,376.163 383.304,420.83 385.5,465.5C 387.967,476.152 383.967,480.652 373.5,479C 371.951,477.786 370.785,476.286 370,474.5C 367.855,430.84 365.855,387.174 364,343.5C 359.482,341.593 354.648,340.926 349.5,341.5C 347.545,386.174 345.378,430.841 343,475.5C 340.089,479.277 336.256,480.444 331.5,479C 328.143,476.307 326.809,472.807 327.5,468.5C 330.014,422.848 331.847,377.182 333,331.5C 324.731,334.714 316.897,333.88 309.5,329C 298.307,313.148 287.141,297.315 276,281.5C 260.478,286.894 245.312,293.06 230.5,300C 223.155,300.986 219.655,297.819 220,290.5C 220.273,288.671 221.107,287.171 222.5,286C 239.128,278.189 256.128,271.189 273.5,265C 281.381,256.617 289.714,248.784 298.5,241.5C 299.663,236.198 299.829,230.864 299,225.5C 288.921,214.779 282.755,202.112 280.5,187.5C 268.466,187.077 260.966,181.077 258,169.5C 255.027,156.243 258.861,145.576 269.5,137.5C 264.688,119.052 263.522,100.385 266,81.5C 270.757,65.0806 281.59,55.2473 298.5,52C 325.349,33.2095 355.015,26.8762 387.5,33C 431.24,42.9313 452.573,70.4313 451.5,115.5C 451.634,124.07 450.967,132.57 449.5,141C 451.704,144.577 453.537,148.41 455,152.5C 459.792,172.292 452.459,184.292 433,188.5C 430.089,202.656 423.756,214.989 414,225.5C 413.171,230.864 413.337,236.198 414.5,241.5C 422.952,248.45 430.952,255.95 438.5,264C 452.088,269.529 465.754,274.863 479.5,280C 496.108,287.099 506.774,299.265 511.5,316.5 Z M 349.5,47.5 C 413.687,43.0191 442.02,72.6857 434.5,136.5C 432.208,136.756 430.041,136.423 428,135.5C 425.667,129.833 423.333,124.167 421,118.5C 420.097,117.299 418.931,116.465 417.5,116C 408.793,116.338 400.126,117.338 391.5,119C 380.5,119.667 369.5,119.667 358.5,119C 339.509,116.838 323.509,108.838 310.5,95C 300.989,94.1878 297.823,98.3545 301,107.5C 313.883,122.194 330.049,131.027 349.5,134C 369.23,136.968 388.897,136.468 408.5,132.5C 411.372,138.412 414.372,144.245 417.5,150C 423.384,153.625 429.718,154.625 436.5,153C 437.333,153.833 438.167,154.667 439,155.5C 439.879,160.287 439.545,164.953 438,169.5C 433.981,171.032 429.814,172.199 425.5,173C 423.376,174.122 421.543,175.622 420,177.5C 415.226,202.921 401.059,220.755 377.5,231C 347.032,239.401 322.532,230.901 304,205.5C 299.347,196.54 295.681,187.206 293,177.5C 288.955,172.729 283.788,170.563 277.5,171C 276.333,169.833 275.167,168.667 274,167.5C 273.004,162.771 273.504,158.271 275.5,154C 280.516,151.824 284.516,153.157 287.5,158C 292.945,159.726 297.945,158.726 302.5,155C 306.752,151.419 310.252,147.252 313,142.5C 313.488,134.331 309.654,131.164 301.5,133C 298.952,135.885 296.118,138.385 293,140.5C 290.78,138.807 288.28,137.807 285.5,137.5C 281.691,121.382 280.191,105.049 281,88.5C 283.555,75.6117 291.388,68.7783 304.5,68C 317.82,57.3376 332.82,50.5043 349.5,47.5 Z M 315.5,239.5 C 342.64,254.111 369.807,254.111 397,239.5C 397.667,243.833 397.667,248.167 397,252.5C 383.78,264.521 370.28,276.188 356.5,287.5C 343.148,275.646 329.648,263.98 316,252.5C 315.501,248.179 315.334,243.846 315.5,239.5 Z M 300.5,260.5 C 314.999,273.497 329.666,286.33 344.5,299C 338.5,305 332.5,311 326.5,317C 323.743,317.782 321.243,317.282 319,315.5C 309.667,301.5 300.333,287.5 291,273.5C 290.333,272.5 290.333,271.5 291,270.5C 294.371,267.297 297.538,263.964 300.5,260.5 Z M 411.5,261.5 C 415.905,264.396 419.905,267.896 423.5,272C 413.167,287 402.833,302 392.5,317C 390.5,317.667 388.5,317.667 386.5,317C 380.5,311 374.5,305 368.5,299C 383.026,286.635 397.36,274.135 411.5,261.5 Z M 355.5,310.5 C 361.782,313.376 364.449,318.376 363.5,325.5C 359.167,325.5 354.833,325.5 350.5,325.5C 350.335,322.15 350.502,318.817 351,315.5C 352.707,313.963 354.207,312.296 355.5,310.5 Z"/></g>
<g><path style="opacity:1" fill="#f9faf9" d="M 284.5,360.5 C 295.172,360.333 305.839,360.5 316.5,361C 321.599,362.695 323.432,366.195 322,371.5C 321.215,373.286 320.049,374.786 318.5,376C 306.5,376.667 294.5,376.667 282.5,376C 276.731,369.8 277.398,364.633 284.5,360.5 Z"/></g>
<g><path style="opacity:1" fill="#f9faf9" d="M 82.5,393.5 C 90.84,393.334 99.1733,393.5 107.5,394C 115.067,398.58 115.401,403.58 108.5,409C 99.1667,409.667 89.8333,409.667 80.5,409C 77.6339,407.607 76.3006,405.274 76.5,402C 76.4506,397.572 78.4506,394.738 82.5,393.5 Z"/></g>
</svg>
