<?xml version="1.0" encoding="UTF-8"?>
<!DOCTYPE svg PUBLIC "-//W3C//DTD SVG 1.1//EN" "http://www.w3.org/Graphics/SVG/1.1/DTD/svg11.dtd">
<svg xmlns="http://www.w3.org/2000/svg" version="1.1" width="512px" height="512px" style="shape-rendering:geometricPrecision; text-rendering:geometricPrecision; image-rendering:optimizeQuality; fill-rule:evenodd; clip-rule:evenodd" xmlns:xlink="http://www.w3.org/1999/xlink">
<g><path style="opacity:1" fill="#f9faf9" d="M 191.5,-0.5 C 197.5,-0.5 203.5,-0.5 209.5,-0.5C 212.987,3.74987 213.321,8.24987 210.5,13C 194.425,12.4623 181.259,18.2956 171,30.5C 168.163,35.1719 166.163,40.1719 165,45.5C 164.5,54.4938 164.334,63.4938 164.5,72.5C 184.511,72.833 204.511,72.4996 224.5,71.5C 215.633,56.8055 216.633,42.9721 227.5,30C 246.157,18.6682 264.823,18.6682 283.5,30C 294.367,42.9721 295.367,56.8055 286.5,71.5C 306.489,72.4996 326.489,72.833 346.5,72.5C 346.899,62.1017 346.399,51.7683 345,41.5C 339.777,26.9423 329.611,18.1089 314.5,15C 288.5,14.6667 262.5,14.3333 236.5,14C 230.231,9.65742 229.898,4.82408 235.5,-0.5C 263.5,-0.5 291.5,-0.5 319.5,-0.5C 344.834,6.00907 359.001,22.3424 362,48.5C 362.5,71.831 362.667,95.1643 362.5,118.5C 371.421,119.21 377.921,123.543 382,131.5C 383.98,145.492 383.98,159.492 382,173.5C 376.585,188.137 366.085,196.47 350.5,198.5C 346.266,214.311 338.432,227.977 327,239.5C 326.5,248.494 326.334,257.494 326.5,266.5C 330.884,266.826 335.217,266.492 339.5,265.5C 342.144,260.671 346.144,257.505 351.5,256C 368.5,255.333 385.5,255.333 402.5,256C 407.355,257.505 411.188,260.338 414,264.5C 415.932,270.673 416.932,277.006 417,283.5C 427.3,289.402 436.8,296.402 445.5,304.5C 449.161,311.51 447.161,315.843 439.5,317.5C 437.701,317.423 436.034,316.923 434.5,316C 428.958,310.789 423.125,305.956 417,301.5C 416.5,348.165 416.333,394.832 416.5,441.5C 435.167,441.5 453.833,441.5 472.5,441.5C 472.667,425.83 472.5,410.163 472,394.5C 469.83,373.991 463.663,354.824 453.5,337C 454.739,330.879 458.406,328.546 464.5,330C 466.286,330.785 467.786,331.951 469,333.5C 478.6,350.301 484.6,368.301 487,387.5C 488.572,425.15 488.906,462.816 488,500.5C 487.236,505.418 484.736,509.084 480.5,511.5C 382.5,511.5 284.5,511.5 186.5,511.5C 180.948,506.301 181.281,501.467 187.5,497C 207.497,496.5 227.497,496.333 247.5,496.5C 247.667,471.164 247.5,445.831 247,420.5C 219.97,395.137 193.97,368.803 169,341.5C 164.3,333.736 160.966,325.403 159,316.5C 157.951,301.627 157.118,286.793 156.5,272C 149.1,270.866 141.6,270.366 134,270.5C 127.167,270.667 120.333,270.833 113.5,271C 112.584,271.374 111.75,271.874 111,272.5C 110.5,306.498 110.333,340.498 110.5,374.5C 117.167,374.5 123.833,374.5 130.5,374.5C 130.333,358.83 130.5,343.163 131,327.5C 136.163,321.938 140.829,322.271 145,328.5C 145.5,344.163 145.667,359.83 145.5,375.5C 157.33,377.83 164.83,384.83 168,396.5C 168.667,427.833 168.667,459.167 168,490.5C 166.444,495.28 164.111,499.613 161,503.5C 156.817,506.836 152.317,509.503 147.5,511.5C 108.5,511.5 69.5,511.5 30.5,511.5C 26.2639,509.084 23.7639,505.418 23,500.5C 22.0935,462.483 22.4268,424.483 24,386.5C 30.7317,340.652 54.0651,306.319 94,283.5C 94.068,277.006 95.068,270.673 97,264.5C 98.8917,260.942 101.725,258.442 105.5,257C 123.434,255.374 141.434,255.041 159.5,256C 164.856,257.505 168.856,260.671 171.5,265.5C 175.783,266.492 180.116,266.826 184.5,266.5C 184.666,257.494 184.5,248.494 184,239.5C 172.568,227.977 164.734,214.311 160.5,198.5C 136.633,192.314 126.299,176.814 129.5,152C 129.483,145.454 129.983,138.954 131,132.5C 134.013,124.322 139.846,119.655 148.5,118.5C 148.333,94.831 148.5,71.1643 149,47.5C 152.467,21.8739 166.634,5.87395 191.5,-0.5 Z M 247.5,37.5 C 278.137,36.1171 284.637,47.7838 267,72.5C 263.686,76.9813 259.852,80.9813 255.5,84.5C 245.177,75.6794 237.844,64.8461 233.5,52C 234.998,44.0032 239.665,39.1699 247.5,37.5 Z M 164.5,88.5 C 188.836,88.3334 213.169,88.5 237.5,89C 249.5,105.667 261.5,105.667 273.5,89C 297.831,88.5 322.164,88.3334 346.5,88.5C 346.667,104.503 346.5,120.503 346,136.5C 344.701,137.98 343.034,138.646 341,138.5C 331.923,137.818 323.09,135.985 314.5,133C 304.323,127.411 293.99,122.078 283.5,117C 264.043,110.733 244.71,111.066 225.5,118C 214.262,124.452 202.596,130.118 190.5,135C 182.616,137.152 174.616,138.152 166.5,138C 166,137.5 165.5,137 165,136.5C 164.5,120.503 164.333,104.503 164.5,88.5 Z M 250.5,127.5 C 258.995,127.499 267.328,128.666 275.5,131C 287.61,137.44 299.944,143.44 312.5,149C 320.644,151.58 328.978,153.08 337.5,153.5C 342.294,184.615 333.627,211.115 311.5,233C 300.201,242.631 289.201,252.631 278.5,263C 263.167,273 247.833,273 232.5,263C 215.979,248.811 200.479,233.645 186,217.5C 174.218,197.756 170.052,176.422 173.5,153.5C 182.022,153.08 190.356,151.58 198.5,149C 210.391,144.388 221.724,138.721 232.5,132C 238.553,130.153 244.553,128.653 250.5,127.5 Z M 362.5,133.5 C 364.229,134.117 365.729,135.117 367,136.5C 367.667,147.167 367.667,157.833 367,168.5C 364.724,174.61 360.557,178.943 354.5,181.5C 353.334,171.183 353.168,160.849 354,150.5C 359.463,146.24 362.297,140.573 362.5,133.5 Z M 147.5,134.5 C 148.837,138.12 150.337,141.787 152,145.5C 153,147.833 154.667,149.5 157,150.5C 157.832,160.517 157.666,170.517 156.5,180.5C 150.978,177.81 147.478,173.477 146,167.5C 145.333,157.5 145.333,147.5 146,137.5C 146.513,136.473 147.013,135.473 147.5,134.5 Z M 200.5,255.5 C 208.999,263.164 217.666,270.664 226.5,278C 245.833,288 265.167,288 284.5,278C 293.297,270.872 301.797,263.372 310,255.5C 310.667,267.167 310.667,278.833 310,290.5C 306.109,306.724 296.276,317.558 280.5,323C 265.546,324.582 250.546,324.915 235.5,324C 217.116,319.949 205.616,308.783 201,290.5C 200.5,278.838 200.333,267.171 200.5,255.5 Z M 356.5,270.5 C 370.171,270.333 383.837,270.5 397.5,271C 398.416,271.374 399.25,271.874 400,272.5C 400.5,347.166 400.667,421.833 400.5,496.5C 354.833,496.5 309.167,496.5 263.5,496.5C 263.333,471.164 263.5,445.831 264,420.5C 291.03,395.137 317.03,368.803 342,341.5C 346.707,333.713 350.04,325.38 352,316.5C 353.206,301.868 353.873,287.202 354,272.5C 354.995,271.934 355.828,271.267 356.5,270.5 Z M 173.5,281.5 C 177.167,281.5 180.833,281.5 184.5,281.5C 185.983,311.81 201.316,330.977 230.5,339C 247.167,341 263.833,341 280.5,339C 309.714,330.952 325.047,311.785 326.5,281.5C 330.167,281.5 333.833,281.5 337.5,281.5C 341.397,304.576 335.897,324.909 321,342.5C 299.624,364.377 277.79,385.711 255.5,406.5C 233.21,385.711 211.376,364.377 190,342.5C 175.103,324.909 169.603,304.576 173.5,281.5 Z M 93.5,301.5 C 94.4976,325.661 94.831,349.994 94.5,374.5C 75.0541,372.613 62.8874,380.947 58,399.5C 57.5001,413.496 57.3334,427.496 57.5,441.5C 51.1667,441.5 44.8333,441.5 38.5,441.5C 38.3334,425.83 38.5001,410.163 39,394.5C 43.3085,355.195 61.4752,324.195 93.5,301.5 Z M 82.5,390.5 C 102.836,390.333 123.169,390.5 143.5,391C 148.428,392.927 151.594,396.427 153,401.5C 153.667,429.5 153.667,457.5 153,485.5C 151.5,491 148,494.5 142.5,496C 122.833,496.667 103.167,496.667 83.5,496C 79.8139,494.911 76.9806,492.745 75,489.5C 73.3495,459.586 73.0161,429.586 74,399.5C 75.6878,395.315 78.5212,392.315 82.5,390.5 Z M 306.5,436.5 C 329.167,436.5 351.833,436.5 374.5,436.5C 374.5,444.833 374.5,453.167 374.5,461.5C 351.833,461.5 329.167,461.5 306.5,461.5C 306.5,453.167 306.5,444.833 306.5,436.5 Z M 38.5,456.5 C 44.8333,456.5 51.1667,456.5 57.5,456.5C 57.3335,466.839 57.5002,477.172 58,487.5C 58.5323,490.264 59.3657,492.93 60.5,495.5C 53.1968,496.497 45.8635,496.831 38.5,496.5C 38.5,483.167 38.5,469.833 38.5,456.5 Z M 416.5,456.5 C 435.167,456.5 453.833,456.5 472.5,456.5C 472.5,469.833 472.5,483.167 472.5,496.5C 453.833,496.5 435.167,496.5 416.5,496.5C 416.5,483.167 416.5,469.833 416.5,456.5 Z"/></g>
<g><path style="opacity:1" fill="#f9faf9" d="M 213.5,150.5 C 222.081,151.322 225.581,155.989 224,164.5C 221.185,170.169 216.685,172.002 210.5,170C 204.794,166.544 203.294,161.711 206,155.5C 207.913,152.72 210.413,151.053 213.5,150.5 Z"/></g>
<g><path style="opacity:1" fill="#f9faf9" d="M 295.5,150.5 C 305.059,151.998 308.226,157.331 305,166.5C 301.257,170.259 296.757,171.426 291.5,170C 286.192,165.684 285.192,160.517 288.5,154.5C 290.525,152.436 292.858,151.102 295.5,150.5 Z"/></g>
<g><path style="opacity:1" fill="#f9faf9" d="M 233.5,214.5 C 248.17,214.333 262.837,214.5 277.5,215C 282.224,217.435 283.724,221.269 282,226.5C 280.786,228.049 279.286,229.215 277.5,230C 262.833,230.667 248.167,230.667 233.5,230C 228.931,227.459 227.431,223.625 229,218.5C 230.397,216.93 231.897,215.596 233.5,214.5 Z"/></g>
<g><path style="opacity:1" fill="#f9faf9" d="M 92.5,407.5 C 103.66,405.826 108.16,410.492 106,421.5C 101.265,427.115 95.9313,427.781 90,423.5C 86.374,417.464 87.2073,412.131 92.5,407.5 Z"/></g>
<g><path style="opacity:1" fill="#f9faf9" d="M 301.5,420.5 C 327.835,420.333 354.169,420.5 380.5,421C 385.428,422.927 388.594,426.427 390,431.5C 390.667,443.167 390.667,454.833 390,466.5C 388.261,472.907 384.094,476.407 377.5,477C 351.126,477.954 324.792,477.621 298.5,476C 294.056,473.889 291.556,470.389 291,465.5C 290.333,454.5 290.333,443.5 291,432.5C 292.242,426.43 295.742,422.43 301.5,420.5 Z M 306.5,436.5 C 306.5,444.833 306.5,453.167 306.5,461.5C 329.167,461.5 351.833,461.5 374.5,461.5C 374.5,453.167 374.5,444.833 374.5,436.5C 351.833,436.5 329.167,436.5 306.5,436.5 Z"/></g>
<g><path style="opacity:1" fill="#f9faf9" d="M 94.5,442.5 C 106.505,442.333 118.505,442.5 130.5,443C 135.224,445.435 136.724,449.269 135,454.5C 133.786,456.049 132.286,457.215 130.5,458C 118.833,458.667 107.167,458.667 95.5,458C 89.552,455.567 88.052,451.4 91,445.5C 92.1451,444.364 93.3117,443.364 94.5,442.5 Z"/></g>
<g><path style="opacity:1" fill="#f9faf9" d="M 94.5,473.5 C 106.505,473.333 118.505,473.5 130.5,474C 135.224,476.435 136.724,480.269 135,485.5C 133.786,487.049 132.286,488.215 130.5,489C 118.833,489.667 107.167,489.667 95.5,489C 89.552,486.567 88.052,482.4 91,476.5C 92.1451,475.364 93.3117,474.364 94.5,473.5 Z"/></g>
</svg>
