<?xml version="1.0" encoding="UTF-8"?>
<!DOCTYPE svg PUBLIC "-//W3C//DTD SVG 1.1//EN" "http://www.w3.org/Graphics/SVG/1.1/DTD/svg11.dtd">
<svg xmlns="http://www.w3.org/2000/svg" version="1.1" width="500px" height="500px" style="shape-rendering:geometricPrecision; text-rendering:geometricPrecision; image-rendering:optimizeQuality; fill-rule:evenodd; clip-rule:evenodd" xmlns:xlink="http://www.w3.org/1999/xlink">
<g><path style="opacity:1" fill="#f6f5f5" d="M 322.5,143.5 C 322.5,144.833 322.5,146.167 322.5,147.5C 299.035,171.465 275.368,195.299 251.5,219C 249.326,219.877 247.659,219.377 246.5,217.5C 245.833,214.833 244.167,213.167 241.5,212.5C 234.671,206.504 228.338,200.004 222.5,193C 224.703,190.628 227.037,188.461 229.5,186.5C 232.5,185.5 234.5,183.5 235.5,180.5C 236.436,179.026 237.77,178.026 239.5,177.5C 240.833,176.833 241.833,175.833 242.5,174.5C 243.203,172.284 244.536,170.451 246.5,169C 239.808,169.141 233.141,169.974 226.5,171.5C 222.253,170.984 218.92,172.317 216.5,175.5C 207.995,179.361 200.329,184.361 193.5,190.5C 192.167,190.5 190.833,190.5 189.5,190.5C 189.5,191.5 189.5,192.5 189.5,193.5C 186.066,198.716 182.399,203.716 178.5,208.5C 176.241,209.344 175.241,211.011 175.5,213.5C 175.5,214.167 175.167,214.5 174.5,214.5C 171.408,217.32 170.075,220.653 170.5,224.5C 170.737,225.791 170.404,226.791 169.5,227.5C 166.396,234.024 165.063,241.024 165.5,248.5C 165.723,256.561 166.556,264.561 168,272.5C 168.278,273.416 168.778,274.082 169.5,274.5C 174.193,287.553 181.193,299.22 190.5,309.5C 190.5,311.5 191.5,312.5 193.5,312.5C 194.833,313.5 196.167,314.5 197.5,315.5C 197.5,317.5 198.5,318.5 200.5,318.5C 232.648,339.491 264.981,339.825 297.5,319.5C 300.132,317.887 302.798,316.22 305.5,314.5C 306.952,313.06 307.952,311.394 308.5,309.5C 315.415,301.999 321.082,293.666 325.5,284.5C 329.948,278.737 331.948,272.071 331.5,264.5C 331.5,263.833 331.5,263.167 331.5,262.5C 332.268,261.737 332.768,260.737 333,259.5C 333.846,248.876 333.013,238.376 330.5,228C 330.316,226.624 329.649,225.791 328.5,225.5C 328.5,225.167 328.5,224.833 328.5,224.5C 328.794,220.433 327.46,217.1 324.5,214.5C 324.679,212.046 324.013,209.879 322.5,208C 322.743,207.098 323.077,206.265 323.5,205.5C 331.141,200.873 338.808,196.206 346.5,191.5C 348.027,191.573 349.027,190.906 349.5,189.5C 350.605,188.4 351.938,187.733 353.5,187.5C 355.441,187.131 357.275,186.464 359,185.5C 359.949,187.093 361.115,188.426 362.5,189.5C 367.158,196.494 370.492,204.16 372.5,212.5C 372.425,217.192 373.425,221.526 375.5,225.5C 374.92,229.649 375.586,233.316 377.5,236.5C 381.759,273.498 372.092,306.165 348.5,334.5C 347.504,334.586 346.671,334.252 346,333.5C 345.392,335.154 344.892,336.821 344.5,338.5C 320.289,365.018 290.122,379.018 254,380.5C 229.649,381.204 206.816,375.537 185.5,363.5C 185.027,362.094 184.027,361.427 182.5,361.5C 182.027,360.094 181.027,359.427 179.5,359.5C 177.973,359.573 176.973,358.906 176.5,357.5C 176.027,356.094 175.027,355.427 173.5,355.5C 154.025,341.524 139.525,323.524 130,301.5C 120.038,276.455 117.871,250.789 123.5,224.5C 125.728,220.924 126.728,216.924 126.5,212.5C 126.796,210.597 127.463,208.93 128.5,207.5C 131.179,204.784 132.512,201.45 132.5,197.5C 134.894,190.373 138.56,184.039 143.5,178.5C 145.822,177.198 147.155,175.198 147.5,172.5C 149.117,169.216 151.45,166.549 154.5,164.5C 156.587,163.415 157.92,161.749 158.5,159.5C 167.595,150.45 177.928,143.116 189.5,137.5C 193.503,136.832 196.836,135.166 199.5,132.5C 211.704,126.613 224.371,123.613 237.5,123.5C 241.514,123.666 245.514,123.499 249.5,123C 248.193,120.52 246.193,119.02 243.5,118.5C 243.512,115.858 242.179,114.525 239.5,114.5C 238.5,111.5 236.5,109.5 233.5,108.5C 230.167,105.833 227.167,102.833 224.5,99.5C 224.351,98.448 224.517,97.448 225,96.5C 227.127,94.8863 228.627,92.8863 229.5,90.5C 232.5,89.5 234.5,87.5 235.5,84.5C 236.5,82.8333 237.833,81.5 239.5,80.5C 242.335,79.9305 244.001,78.2639 244.5,75.5C 245.879,72.9265 247.879,71.4265 250.5,71C 274.702,95.0347 298.702,119.201 322.5,143.5 Z"/></g>
<g><path style="opacity:1" fill="#9a9797" d="M 244.5,75.5 C 244.001,78.2639 242.335,79.9305 239.5,80.5C 240.833,78.5 242.5,76.8333 244.5,75.5 Z"/></g>
<g><path style="opacity:1" fill="#898787" d="M 235.5,84.5 C 234.5,87.5 232.5,89.5 229.5,90.5C 231.167,88.1667 233.167,86.1667 235.5,84.5 Z"/></g>
<g><path style="opacity:1" fill="#a99d9f" d="M 229.5,90.5 C 228.627,92.8863 227.127,94.8863 225,96.5C 224.517,97.448 224.351,98.448 224.5,99.5C 223.402,98.3991 223.235,97.0657 224,95.5C 225.704,93.6266 227.537,91.9599 229.5,90.5 Z"/></g>
<g><path style="opacity:1" fill="#797777" d="M 233.5,108.5 C 236.5,109.5 238.5,111.5 239.5,114.5C 237.167,112.833 235.167,110.833 233.5,108.5 Z"/></g>
<g><path style="opacity:1" fill="#a09d9d" d="M 239.5,114.5 C 242.179,114.525 243.512,115.858 243.5,118.5C 241.833,117.5 240.5,116.167 239.5,114.5 Z"/></g>
<g><path style="opacity:1" fill="#9e9999" d="M 243.5,118.5 C 246.193,119.02 248.193,120.52 249.5,123C 245.514,123.499 241.514,123.666 237.5,123.5C 240.305,122.681 243.305,122.181 246.5,122C 245.29,120.961 244.29,119.794 243.5,118.5 Z"/></g>
<g><path style="opacity:1" fill="#afa8a8" d="M 199.5,132.5 C 196.836,135.166 193.503,136.832 189.5,137.5C 192.368,135.088 195.701,133.421 199.5,132.5 Z"/></g>
<g><path style="opacity:1" fill="#636162" d="M 322.5,143.5 C 325.167,144.833 325.167,146.167 322.5,147.5C 322.5,146.167 322.5,144.833 322.5,143.5 Z"/></g>
<g><path style="opacity:1" fill="#605b5c" d="M 158.5,159.5 C 157.92,161.749 156.587,163.415 154.5,164.5C 155.08,162.251 156.413,160.585 158.5,159.5 Z"/></g>
<g><path style="opacity:1" fill="#b1a9a9" d="M 226.5,171.5 C 223.317,173.01 219.984,174.343 216.5,175.5C 218.92,172.317 222.253,170.984 226.5,171.5 Z"/></g>
<g><path style="opacity:1" fill="#686868" d="M 242.5,174.5 C 241.833,175.833 240.833,176.833 239.5,177.5C 239.5,175.5 240.5,174.5 242.5,174.5 Z"/></g>
<g><path style="opacity:1" fill="#928f91" d="M 147.5,172.5 C 147.155,175.198 145.822,177.198 143.5,178.5C 144.34,176.147 145.674,174.147 147.5,172.5 Z"/></g>
<g><path style="opacity:1" fill="#a2a0a1" d="M 235.5,180.5 C 234.5,183.5 232.5,185.5 229.5,186.5C 231.167,184.167 233.167,182.167 235.5,180.5 Z"/></g>
<g><path style="opacity:1" fill="#acaba9" d="M 362.5,189.5 C 361.115,188.426 359.949,187.093 359,185.5C 357.275,186.464 355.441,187.131 353.5,187.5C 355.053,184.746 357.386,183.913 360.5,185C 361.582,186.33 362.249,187.83 362.5,189.5 Z"/></g>
<g><path style="opacity:1" fill="#6b6b6b" d="M 349.5,189.5 C 349.027,190.906 348.027,191.573 346.5,191.5C 346.973,190.094 347.973,189.427 349.5,189.5 Z"/></g>
<g><path style="opacity:1" fill="#a29c9d" d="M 193.5,190.5 C 192.564,191.974 191.23,192.974 189.5,193.5C 189.5,192.5 189.5,191.5 189.5,190.5C 190.833,190.5 192.167,190.5 193.5,190.5 Z"/></g>
<g><path style="opacity:1" fill="#bab7b9" d="M 132.5,197.5 C 132.512,201.45 131.179,204.784 128.5,207.5C 128.872,203.703 130.206,200.37 132.5,197.5 Z"/></g>
<g><path style="opacity:1" fill="#959191" d="M 178.5,208.5 C 177.89,210.434 176.89,212.101 175.5,213.5C 175.241,211.011 176.241,209.344 178.5,208.5 Z"/></g>
<g><path style="opacity:1" fill="#b8b4b2" d="M 323.5,205.5 C 323.077,206.265 322.743,207.098 322.5,208C 324.013,209.879 324.679,212.046 324.5,214.5C 321.687,212.53 320.52,209.863 321,206.5C 321.671,205.748 322.504,205.414 323.5,205.5 Z"/></g>
<g><path style="opacity:1" fill="#9d9d9b" d="M 241.5,212.5 C 244.167,213.167 245.833,214.833 246.5,217.5C 244.5,216.167 242.833,214.5 241.5,212.5 Z"/></g>
<g><path style="opacity:1" fill="#ada5a4" d="M 126.5,212.5 C 126.728,216.924 125.728,220.924 123.5,224.5C 123.87,220.226 124.87,216.226 126.5,212.5 Z"/></g>
<g><path style="opacity:1" fill="#aea9a9" d="M 174.5,214.5 C 174.248,218.327 172.915,221.66 170.5,224.5C 170.075,220.653 171.408,217.32 174.5,214.5 Z"/></g>
<g><path style="opacity:1" fill="#a3a1a2" d="M 324.5,214.5 C 327.46,217.1 328.794,220.433 328.5,224.5C 326.085,221.66 324.752,218.327 324.5,214.5 Z"/></g>
<g><path style="opacity:1" fill="#aca19f" d="M 372.5,212.5 C 374.237,216.542 375.237,220.876 375.5,225.5C 373.425,221.526 372.425,217.192 372.5,212.5 Z"/></g>
<g><path style="opacity:1" fill="#b0acab" d="M 375.5,225.5 C 376.687,228.946 377.354,232.613 377.5,236.5C 375.586,233.316 374.92,229.649 375.5,225.5 Z"/></g>
<g><path style="opacity:1" fill="#b3adaa" d="M 169.5,227.5 C 168.315,235.466 167.315,243.466 166.5,251.5C 167.221,259.214 168.221,266.88 169.5,274.5C 168.778,274.082 168.278,273.416 168,272.5C 166.556,264.561 165.723,256.561 165.5,248.5C 165.063,241.024 166.396,234.024 169.5,227.5 Z"/></g>
<g><path style="opacity:1" fill="#a8a5a5" d="M 328.5,225.5 C 329.649,225.791 330.316,226.624 330.5,228C 333.013,238.376 333.846,248.876 333,259.5C 332.768,260.737 332.268,261.737 331.5,262.5C 332.73,250 331.73,237.666 328.5,225.5 Z"/></g>
<g><path style="opacity:1" fill="#bab7b5" d="M 331.5,264.5 C 331.948,272.071 329.948,278.737 325.5,284.5C 328.131,277.964 330.131,271.298 331.5,264.5 Z"/></g>
<g><path style="opacity:1" fill="#757574" d="M 190.5,309.5 C 191.833,310.167 192.833,311.167 193.5,312.5C 191.5,312.5 190.5,311.5 190.5,309.5 Z"/></g>
<g><path style="opacity:1" fill="#a9a6a6" d="M 308.5,309.5 C 307.952,311.394 306.952,313.06 305.5,314.5C 302.798,316.22 300.132,317.887 297.5,319.5C 300.936,315.943 304.603,312.609 308.5,309.5 Z"/></g>
<g><path style="opacity:1" fill="#706f6f" d="M 197.5,315.5 C 198.833,316.167 199.833,317.167 200.5,318.5C 198.5,318.5 197.5,317.5 197.5,315.5 Z"/></g>
<g><path style="opacity:1" fill="#8e8c8c" d="M 348.5,334.5 C 347.5,336.167 346.167,337.5 344.5,338.5C 344.892,336.821 345.392,335.154 346,333.5C 346.671,334.252 347.504,334.586 348.5,334.5 Z"/></g>
<g><path style="opacity:1" fill="#6b6b6b" d="M 173.5,355.5 C 175.027,355.427 176.027,356.094 176.5,357.5C 174.973,357.573 173.973,356.906 173.5,355.5 Z"/></g>
<g><path style="opacity:1" fill="#5f5d5d" d="M 179.5,359.5 C 181.027,359.427 182.027,360.094 182.5,361.5C 180.973,361.573 179.973,360.906 179.5,359.5 Z"/></g>
<g><path style="opacity:1" fill="#555252" d="M 182.5,361.5 C 184.027,361.427 185.027,362.094 185.5,363.5C 183.973,363.573 182.973,362.906 182.5,361.5 Z"/></g>
</svg>
