<?xml version="1.0" encoding="UTF-8"?>
<!DOCTYPE svg PUBLIC "-//W3C//DTD SVG 1.1//EN" "http://www.w3.org/Graphics/SVG/1.1/DTD/svg11.dtd">
<svg xmlns="http://www.w3.org/2000/svg" version="1.1" width="500px" height="500px" style="shape-rendering:geometricPrecision; text-rendering:geometricPrecision; image-rendering:optimizeQuality; fill-rule:evenodd; clip-rule:evenodd" xmlns:xlink="http://www.w3.org/1999/xlink">
<g><path style="opacity:1" fill="#f9faf9" d="M 228.5,-0.5 C 242.5,-0.5 256.5,-0.5 270.5,-0.5C 309.791,7.07137 340.291,27.738 362,61.5C 380.723,96.1547 384.723,132.488 374,170.5C 361.45,205.385 338.617,231.219 305.5,248C 260.419,266.212 217.086,262.879 175.5,238C 125.748,199.564 108.915,149.73 125,88.5C 133.258,63.9097 147.425,43.4097 167.5,27C 185.678,12.9082 206.012,3.74149 228.5,-0.5 Z"/></g>
<g><path style="opacity:1" fill="#f9faf9" d="M 279.5,499.5 C 259.167,499.5 238.833,499.5 218.5,499.5C 169.501,492.832 125.501,474.332 86.5,444C 73.6956,432.196 61.1956,420.03 49,407.5C 40.9419,396.44 33.2753,385.107 26,373.5C 25.005,370.874 24.6717,368.207 25,365.5C 49.8881,308.64 93.2214,275.973 155,267.5C 157.925,267.523 160.759,268.023 163.5,269C 204.577,298.29 249.244,305.29 297.5,290C 309.771,285.202 321.104,278.868 331.5,271C 337.141,267.902 343.141,266.902 349.5,268C 407.957,278.475 449.457,310.642 474,364.5C 474.584,367.257 474.25,369.923 473,372.5C 437.353,431.473 386.52,470.973 320.5,491C 306.868,494.692 293.202,497.525 279.5,499.5 Z"/></g>
</svg>
