<?xml version="1.0" encoding="UTF-8"?>
<!DOCTYPE svg PUBLIC "-//W3C//DTD SVG 1.1//EN" "http://www.w3.org/Graphics/SVG/1.1/DTD/svg11.dtd">
<svg xmlns="http://www.w3.org/2000/svg" version="1.1" width="500px" height="500px" style="shape-rendering:geometricPrecision; text-rendering:geometricPrecision; image-rendering:optimizeQuality; fill-rule:evenodd; clip-rule:evenodd" xmlns:xlink="http://www.w3.org/1999/xlink">
<g><path style="opacity:1" fill="#47a86c" d="M 280.5,76.5 C 255.809,77.1045 230.976,78.1045 206,79.5C 203.639,79.4961 201.473,79.1627 199.5,78.5C 226.467,76.0433 253.467,75.3767 280.5,76.5 Z"/></g>
<g><path style="opacity:1" fill="#4ba972" d="M 198.5,79.5 C 189.713,81.375 180.713,82.7083 171.5,83.5C 180.221,81.1623 189.221,79.829 198.5,79.5 Z"/></g>
<g><path style="opacity:1" fill="#47b7c7" d="M 281.5,78.5 C 301.965,79.7272 322.299,81.8938 342.5,85C 349.865,88.3561 357.532,90.5228 365.5,91.5C 365.953,92.4584 366.619,93.2917 367.5,94C 378.233,98.9132 388.566,104.58 398.5,111C 399.87,112.441 400.87,114.108 401.5,116C 404.48,116.49 406.813,117.99 408.5,120.5C 408.291,121.086 407.957,121.586 407.5,122C 408.833,122.333 410.167,122.667 411.5,123C 413.667,125.167 415.833,127.333 418,129.5C 418.483,130.448 418.649,131.448 418.5,132.5C 421.098,133.76 423.431,135.427 425.5,137.5C 426.866,141.907 428.533,146.24 430.5,150.5C 432.02,152.725 433.686,154.725 435.5,156.5C 435.888,161.246 435.888,165.912 435.5,170.5C 435.909,172.991 437.076,174.991 439,176.5C 444.01,198.085 446.177,220.085 445.5,242.5C 445.14,255.343 442.64,267.677 438,279.5C 437.503,281.81 437.337,284.143 437.5,286.5C 437.5,286.833 437.5,287.167 437.5,287.5C 433.959,294.169 430.126,300.836 426,307.5C 421.748,310.571 418.915,314.571 417.5,319.5C 415.914,320.413 414.414,320.413 413,319.5C 411.629,324.37 408.462,327.37 403.5,328.5C 401.787,329.878 400.453,331.545 399.5,333.5C 397.833,334.167 396.167,334.833 394.5,335.5C 392.42,338.227 390.42,340.894 388.5,343.5C 383.447,345.358 378.447,347.524 373.5,350C 371.937,350.759 370.937,351.926 370.5,353.5C 367.47,355.403 364.137,356.737 360.5,357.5C 349.709,360.875 338.709,363.709 327.5,366C 301.951,369.431 276.284,371.098 250.5,371C 245.691,371.85 241.025,373.184 236.5,375C 234.349,376.774 232.016,378.274 229.5,379.5C 228.066,380.588 227.066,381.922 226.5,383.5C 226.027,384.906 225.027,385.573 223.5,385.5C 220.369,386.924 217.702,389.091 215.5,392C 214.552,392.483 213.552,392.649 212.5,392.5C 211.318,394.814 209.985,397.148 208.5,399.5C 207.572,401.335 206.406,401.668 205,400.5C 205.188,405.323 203.188,408.99 199,411.5C 196.953,416.059 195.119,420.726 193.5,425.5C 191.154,430.352 188.488,435.018 185.5,439.5C 184.325,439.281 183.325,439.614 182.5,440.5C 178.542,447.152 172.875,449.485 165.5,447.5C 165.5,447.167 165.5,446.833 165.5,446.5C 163.737,439.141 160.404,432.808 155.5,427.5C 155.167,427.5 154.833,427.5 154.5,427.5C 154.5,426.833 154.5,426.167 154.5,425.5C 155.167,425.5 155.5,425.167 155.5,424.5C 157.167,422.833 158.833,421.167 160.5,419.5C 161.5,419.5 162.5,419.5 163.5,419.5C 163.5,420.5 163.5,421.5 163.5,422.5C 169.005,422.722 173.505,420.722 177,416.5C 178.094,414.922 178.928,413.255 179.5,411.5C 183.595,415.465 187.761,415.465 192,411.5C 196.352,402.821 199.519,393.821 201.5,384.5C 201.369,385.239 201.536,385.906 202,386.5C 213.929,373.963 228.429,366.13 245.5,363C 272.008,362.485 298.342,360.152 324.5,356C 332.778,353.183 341.111,350.849 349.5,349C 355.082,345.424 361.082,342.757 367.5,341C 380.428,334.08 392.261,325.58 403,315.5C 409.272,307.545 414.939,299.212 420,290.5C 434.577,257.546 438.577,223.212 432,187.5C 427.132,155.703 412.298,129.87 387.5,110C 384.187,108.032 380.854,106.032 377.5,104C 357.65,94.6157 336.65,88.6157 314.5,86C 274.892,82.455 235.225,81.6217 195.5,83.5C 207.205,81.1581 219.205,79.6581 231.5,79C 248.163,78.5001 264.83,78.3334 281.5,78.5 Z"/></g>
<g><path style="opacity:1" fill="#44aea3" d="M 280.5,76.5 C 281.167,76.5 281.5,76.8333 281.5,77.5C 281.5,77.8333 281.5,78.1667 281.5,78.5C 264.83,78.3334 248.163,78.5001 231.5,79C 219.205,79.6581 207.205,81.1581 195.5,83.5C 179.042,83.0902 163.042,85.4235 147.5,90.5C 144.964,90.8692 143.131,92.2025 142,94.5C 140.644,93.6198 139.144,93.2865 137.5,93.5C 141.03,90.9057 145.03,89.0724 149.5,88C 156.726,85.9624 164.059,84.4624 171.5,83.5C 180.713,82.7083 189.713,81.375 198.5,79.5C 198.5,78.8333 198.833,78.5 199.5,78.5C 201.473,79.1627 203.639,79.4961 206,79.5C 230.976,78.1045 255.809,77.1045 280.5,76.5 Z"/></g>
<g><path style="opacity:1" fill="#4ea87f" d="M 281.5,78.5 C 281.5,78.1667 281.5,77.8333 281.5,77.5C 305.544,77.2462 329.211,80.0796 352.5,86C 356.987,87.7008 361.32,89.5342 365.5,91.5C 357.532,90.5228 349.865,88.3561 342.5,85C 322.299,81.8938 301.965,79.7272 281.5,78.5 Z"/></g>
<g><path style="opacity:1" fill="#2a8a63" d="M 137.5,93.5 C 131.525,98.1236 124.858,101.457 117.5,103.5C 116.833,103.5 116.5,103.167 116.5,102.5C 123.347,98.8929 130.347,95.8929 137.5,93.5 Z"/></g>
<g><path style="opacity:1" fill="#50aa82" d="M 365.5,91.5 C 390.31,100.57 410.31,115.904 425.5,137.5C 423.431,135.427 421.098,133.76 418.5,132.5C 418.649,131.448 418.483,130.448 418,129.5C 415.833,127.333 413.667,125.167 411.5,123C 410.167,122.667 408.833,122.333 407.5,122C 407.957,121.586 408.291,121.086 408.5,120.5C 406.813,117.99 404.48,116.49 401.5,116C 400.87,114.108 399.87,112.441 398.5,111C 388.566,104.58 378.233,98.9132 367.5,94C 366.619,93.2917 365.953,92.4584 365.5,91.5 Z"/></g>
<g><path style="opacity:1" fill="#155b42" d="M 116.5,102.5 C 116.5,103.167 116.833,103.5 117.5,103.5C 114.455,106.547 111.122,109.213 107.5,111.5C 102.527,115.324 97.194,118.658 91.5,121.5C 93.2834,118.582 95.6168,116.082 98.5,114C 104.384,109.943 110.384,106.11 116.5,102.5 Z"/></g>
<g><path style="opacity:1" fill="#1d6536" d="M 89.5,123.5 C 87.2171,126.797 84.8838,130.131 82.5,133.5C 81.6431,134.425 80.6431,135.092 79.5,135.5C 81.7629,130.574 85.0963,126.574 89.5,123.5 Z"/></g>
<g><path style="opacity:1" fill="#185c3f" d="M 79.5,135.5 C 76.5479,140.781 74.0479,146.447 72,152.5C 69.799,155.607 67.6323,158.607 65.5,161.5C 68.079,151.673 72.7457,143.007 79.5,135.5 Z"/></g>
<g><path style="opacity:1" fill="#4dac89" d="M 425.5,137.5 C 430.139,143.11 433.472,149.443 435.5,156.5C 433.686,154.725 432.02,152.725 430.5,150.5C 428.533,146.24 426.866,141.907 425.5,137.5 Z"/></g>
<g><path style="opacity:1" fill="#0d9bb1" d="M 201.5,384.5 C 203.882,374.286 209.549,366.452 218.5,361C 229.292,358.102 240.292,355.769 251.5,354C 278.265,352.679 304.931,350.346 331.5,347C 389.016,331.767 419.016,294.1 421.5,234C 421.333,230.5 421.167,227 421,223.5C 420.817,226.365 420.317,229.031 419.5,231.5C 419.911,216.756 419.078,202.089 417,187.5C 413.869,161.9 403.036,140.233 384.5,122.5C 384.938,122.565 385.272,122.399 385.5,122C 373.924,111.544 360.591,104.211 345.5,100C 331.676,96.8071 317.676,94.4738 303.5,93C 263.189,90.8746 222.856,89.8746 182.5,90C 168.753,92.1798 155.753,96.3464 143.5,102.5C 114.681,117.751 95.514,141.085 86,172.5C 76.4976,215.65 80.4976,257.317 98,297.5C 104.561,308.062 111.894,318.062 120,327.5C 129.034,336.258 138.534,344.425 148.5,352C 150.54,355.914 152.707,359.748 155,363.5C 155.464,362.906 155.631,362.239 155.5,361.5C 156.905,371.702 158.405,382.035 160,392.5C 161.559,400.261 165.726,402.261 172.5,398.5C 174.038,403.241 176.371,407.575 179.5,411.5C 178.928,413.255 178.094,414.922 177,416.5C 173.505,420.722 169.005,422.722 163.5,422.5C 163.5,421.5 163.5,420.5 163.5,419.5C 162.5,419.5 161.5,419.5 160.5,419.5C 156.486,406.29 152.652,392.957 149,379.5C 147.212,377.996 146.712,376.329 147.5,374.5C 146.975,373.808 146.308,373.308 145.5,373C 144.369,364.263 140.202,356.43 133,349.5C 132.586,349.957 132.086,350.291 131.5,350.5C 129.611,346.976 127.278,343.809 124.5,341C 117.946,336.604 111.279,332.438 104.5,328.5C 100.912,325.253 97.2451,321.92 93.5,318.5C 91.2854,313.781 88.1188,309.781 84,306.5C 71.1038,281.042 64.9371,253.875 65.5,225C 64.9454,192.387 72.4454,161.887 88,133.5C 94.3017,125.825 100.802,118.491 107.5,111.5C 111.122,109.213 114.455,106.547 117.5,103.5C 124.858,101.457 131.525,98.1236 137.5,93.5C 139.144,93.2865 140.644,93.6198 142,94.5C 143.131,92.2025 144.964,90.8692 147.5,90.5C 163.042,85.4235 179.042,83.0902 195.5,83.5C 235.225,81.6217 274.892,82.455 314.5,86C 336.65,88.6157 357.65,94.6157 377.5,104C 380.854,106.032 384.187,108.032 387.5,110C 412.298,129.87 427.132,155.703 432,187.5C 438.577,223.212 434.577,257.546 420,290.5C 414.939,299.212 409.272,307.545 403,315.5C 392.261,325.58 380.428,334.08 367.5,341C 361.082,342.757 355.082,345.424 349.5,349C 341.111,350.849 332.778,353.183 324.5,356C 298.342,360.152 272.008,362.485 245.5,363C 228.429,366.13 213.929,373.963 202,386.5C 201.536,385.906 201.369,385.239 201.5,384.5 Z"/></g>
<g><path style="opacity:1" fill="#02576f" d="M 302.5,100.5 C 325.891,100.843 348.557,105.343 370.5,114C 375.316,116.662 379.982,119.495 384.5,122.5C 403.036,140.233 413.869,161.9 417,187.5C 419.078,202.089 419.911,216.756 419.5,231.5C 418.52,261.606 407.687,287.606 387,309.5C 386.184,310.823 385.017,311.489 383.5,311.5C 382.226,310.811 382.226,309.977 383.5,309C 380.806,307.81 378.139,307.644 375.5,308.5C 377.475,309.749 377.809,311.249 376.5,313C 375.216,313.684 374.049,313.517 373,312.5C 372.261,314.221 371.427,315.887 370.5,317.5C 367.49,314.736 365.324,315.403 364,319.5C 363.17,317.172 362.337,314.838 361.5,312.5C 362.687,309.606 363.687,306.606 364.5,303.5C 363.653,301.971 362.986,300.304 362.5,298.5C 362.709,297.006 363.376,295.839 364.5,295C 363.167,293.667 363.167,292.333 364.5,291C 362.549,289.266 361.549,287.099 361.5,284.5C 364.248,285.032 366.248,286.032 367.5,287.5C 367.945,284.635 367.278,282.135 365.5,280C 369.411,276.467 369.411,272.8 365.5,269C 367.705,264.126 370.705,259.793 374.5,256C 373.57,254.605 373.57,253.105 374.5,251.5C 374.363,249.893 373.696,248.559 372.5,247.5C 369.658,252.66 366.991,257.993 364.5,263.5C 360.959,262.031 359.959,259.697 361.5,256.5C 362.791,256.737 363.791,256.404 364.5,255.5C 365.021,252.364 364.021,250.03 361.5,248.5C 360.7,246.393 360.033,244.226 359.5,242C 359.971,228.277 362.471,228.11 367,241.5C 368.098,240.033 369.598,239.199 371.5,239C 367.97,238.328 366.637,236.162 367.5,232.5C 376.482,234.692 380.315,231.025 379,221.5C 380.154,219.043 381.488,219.043 383,221.5C 383.49,220.207 383.657,218.873 383.5,217.5C 382.178,217.33 381.011,217.663 380,218.5C 377.621,216.487 375.121,214.654 372.5,213C 372.957,212.586 373.291,212.086 373.5,211.5C 372.349,210.269 371.183,210.269 370,211.5C 369.333,210.833 368.667,210.167 368,209.5C 366.352,210.717 364.519,211.55 362.5,212C 353.725,212.342 345.225,213.509 337,215.5C 336.667,215.167 336.333,214.833 336,214.5C 335.598,215.872 335.098,217.205 334.5,218.5C 335.651,219.731 336.817,219.731 338,218.5C 339.087,222.917 337.587,224.25 333.5,222.5C 331.456,220.781 329.456,219.114 327.5,217.5C 323.044,213.232 324.044,210.898 330.5,210.5C 331.851,211.366 332.684,212.366 333,213.5C 335.024,213.2 335.524,212.367 334.5,211C 337.323,209.517 340.157,208.017 343,206.5C 344.762,206.944 344.595,207.444 342.5,208C 343.646,208.645 344.646,209.478 345.5,210.5C 347.799,209.365 349.966,208.032 352,206.5C 353.666,207.34 353.833,206.84 352.5,205C 353.333,204.167 354.167,203.333 355,202.5C 356.83,202.333 358.83,202.666 361,203.5C 362.92,202.912 364.587,201.912 366,200.5C 366.284,202.886 367.284,203.552 369,202.5C 370.022,203.354 370.855,204.354 371.5,205.5C 375.387,207.868 379.054,209.868 382.5,211.5C 383.23,209.659 383.897,207.825 384.5,206C 381.305,205.819 378.305,205.319 375.5,204.5C 378.833,204.5 382.167,204.5 385.5,204.5C 387.144,204.714 388.644,204.38 390,203.5C 390.667,206.167 391.333,206.167 392,203.5C 393.333,206.167 394.667,206.167 396,203.5C 396.556,205.595 397.056,205.762 397.5,204C 396.899,202.395 395.899,201.062 394.5,200C 395.167,199.333 395.833,198.667 396.5,198C 392.919,195.071 392.586,191.738 395.5,188C 395.102,186.101 394.102,184.601 392.5,183.5C 391.459,185.991 390.626,185.991 390,183.5C 389.178,185.788 388.511,188.122 388,190.5C 387.25,191.126 386.416,191.626 385.5,192C 386.604,193.131 386.271,193.965 384.5,194.5C 383.914,194.291 383.414,193.957 383,193.5C 382.75,189.862 382.583,186.362 382.5,183C 384.125,182.147 384.458,181.147 383.5,180C 384.793,179.51 386.127,179.343 387.5,179.5C 387.5,178.5 387.5,177.5 387.5,176.5C 389.451,176.773 390.951,176.107 392,174.5C 392.333,174.833 392.667,175.167 393,175.5C 393.678,172.733 395.178,170.566 397.5,169C 395.779,167.473 393.779,166.473 391.5,166C 391.665,164.883 391.998,163.716 392.5,162.5C 391.147,161.315 389.98,159.981 389,158.5C 387.649,160.019 386.149,161.352 384.5,162.5C 383.255,158.786 383.421,155.12 385,151.5C 386.097,153.053 387.43,154.386 389,155.5C 389.378,150.873 387.378,149.207 383,150.5C 381.604,149.606 380.104,148.939 378.5,148.5C 376.037,149.93 373.537,151.263 371,152.5C 369.519,149.936 368.019,149.936 366.5,152.5C 361.533,153.329 356.533,153.829 351.5,154C 350.359,154.741 350.359,155.575 351.5,156.5C 350.271,157.281 348.938,157.781 347.5,158C 350.047,158.067 352.214,158.901 354,160.5C 355,159.833 356,159.167 357,158.5C 358.645,158.693 360.479,158.86 362.5,159C 363.833,160 363.833,161 362.5,162C 364.373,162.953 364.706,164.12 363.5,165.5C 362.5,165.833 361.833,166.5 361.5,167.5C 360.5,166.167 359.5,166.167 358.5,167.5C 356.636,165.782 354.303,164.615 351.5,164C 347.514,163.501 343.514,163.334 339.5,163.5C 336.813,163.664 334.146,163.497 331.5,163C 330.663,161.989 330.33,160.822 330.5,159.5C 326.944,158.535 323.611,157.369 320.5,156C 319.919,156.893 319.585,157.893 319.5,159C 319.539,160.894 320.206,161.894 321.5,162C 319.563,164.135 318.396,166.301 318,168.5C 317.667,167.167 317.333,165.833 317,164.5C 316.667,164.833 316.333,165.167 316,165.5C 313.624,162.648 310.791,161.982 307.5,163.5C 302.833,163.5 298.167,163.5 293.5,163.5C 296.689,162.834 300.023,162.167 303.5,161.5C 304.833,159.833 304.833,158.167 303.5,156.5C 298.167,155.833 292.833,155.167 287.5,154.5C 284.983,151.842 282.483,151.175 280,152.5C 277.657,151.873 275.49,150.873 273.5,149.5C 271.605,151.867 271.105,154.534 272,157.5C 273.422,157.594 274.922,157.928 276.5,158.5C 276.081,159.672 275.415,160.672 274.5,161.5C 272.765,162.057 271.098,162.39 269.5,162.5C 267.299,160.944 267.299,159.777 269.5,159C 268.913,156.438 268.579,153.772 268.5,151C 266.77,149.148 265.604,149.314 265,151.5C 261.687,149.363 258.187,149.196 254.5,151C 254.833,151.333 255.167,151.667 255.5,152C 252.776,154.609 250.943,157.776 250,161.5C 249.667,160.833 249.333,160.167 249,159.5C 247.38,161.241 245.88,163.075 244.5,165C 245.738,168.356 246.404,171.856 246.5,175.5C 245.866,179.292 245.533,182.959 245.5,186.5C 245.846,187.696 246.346,187.696 247,186.5C 247.881,183.07 249.048,179.737 250.5,176.5C 251.167,175.167 251.833,175.167 252.5,176.5C 251.233,178.371 251.233,180.204 252.5,182C 251.833,182.333 251.167,182.667 250.5,183C 253.149,186.805 252.815,190.471 249.5,194C 250.603,197.096 252.27,200.263 254.5,203.5C 254.023,204.478 253.357,205.311 252.5,206C 254.885,205.989 257.218,205.489 259.5,204.5C 260.5,204.5 261.5,204.5 262.5,204.5C 260.9,205.682 260.567,207.015 261.5,208.5C 260.975,209.192 260.308,209.692 259.5,210C 262.164,212.355 261.997,214.522 259,216.5C 257.189,215.576 257.355,214.743 259.5,214C 258.5,213.5 257.5,213 256.5,212.5C 255.289,213.274 255.289,214.107 256.5,215C 256,215.167 255.5,215.333 255,215.5C 251.807,213.815 248.807,211.815 246,209.5C 241.614,213.641 239.614,212.641 240,206.5C 241.533,206.056 243.033,205.723 244.5,205.5C 245.619,200.397 246.286,195.397 246.5,190.5C 246.062,189.494 245.396,189.494 244.5,190.5C 243.61,187.726 243.61,184.893 244.5,182C 244.167,180.833 243.833,179.667 243.5,178.5C 242.833,179.833 242.167,181.167 241.5,182.5C 240.833,178.687 240.166,175.021 239.5,171.5C 236.449,165.308 231.449,162.808 224.5,164C 221.716,164.892 219.05,166.058 216.5,167.5C 215.614,166.675 215.281,165.675 215.5,164.5C 209.833,164.5 204.167,164.5 198.5,164.5C 198.5,166.5 198.5,168.5 198.5,170.5C 198.336,173.748 197.336,176.748 195.5,179.5C 194.735,175.756 194.068,171.756 193.5,167.5C 192.448,167.649 191.448,167.483 190.5,167C 190.833,166.667 191.167,166.333 191.5,166C 190.377,164.956 189.044,164.29 187.5,164C 188.93,161.945 190.263,159.779 191.5,157.5C 191,157.167 190.5,156.833 190,156.5C 187.953,157.609 185.787,158.276 183.5,158.5C 183.5,157.5 183.5,156.5 183.5,155.5C 180.833,155.5 178.167,155.5 175.5,155.5C 175.5,154.167 175.5,152.833 175.5,151.5C 170.167,151.5 164.833,151.5 159.5,151.5C 159.5,152.5 159.5,153.5 159.5,154.5C 161.766,154.141 163.599,154.808 165,156.5C 165.667,153.833 166.333,153.833 167,156.5C 167.333,155.833 167.667,155.167 168,154.5C 172.178,155.516 176.345,157.35 180.5,160C 180.167,160.333 179.833,160.667 179.5,161C 174.582,161.195 169.749,161.695 165,162.5C 162.091,159.606 158.591,158.773 154.5,160C 157.191,160.544 159.857,161.877 162.5,164C 160.306,166.194 158.14,168.36 156,170.5C 154.745,169.789 153.579,168.956 152.5,168C 152.833,167.667 153.167,167.333 153.5,167C 151.093,165.092 151.093,163.092 153.5,161C 152.419,159.629 151.585,158.129 151,156.5C 150.517,157.448 150.351,158.448 150.5,159.5C 149.325,159.719 148.325,159.386 147.5,158.5C 145.656,156.157 143.656,153.99 141.5,152C 137.174,151.215 133.34,151.382 130,152.5C 128,151.833 126.667,150.5 126,148.5C 123.088,150.365 122.922,152.365 125.5,154.5C 124.624,155.251 123.624,155.751 122.5,156C 122.833,156.333 123.167,156.667 123.5,157C 127.078,158.353 130.245,158.853 133,158.5C 133.667,155.833 134.333,155.833 135,158.5C 135.333,157.833 135.667,157.167 136,156.5C 138.402,158.509 140.402,158.509 142,156.5C 143.167,157.667 144.333,158.833 145.5,160C 140.427,161.14 135.26,161.973 130,162.5C 127.119,160.972 124.786,161.638 123,164.5C 122.383,163.551 122.549,162.718 123.5,162C 122.5,161.667 121.5,161.333 120.5,161C 120.501,159.601 120.835,158.101 121.5,156.5C 119.262,153.567 118.262,153.901 118.5,157.5C 117.5,157.5 116.5,157.5 115.5,157.5C 114.758,154.191 113.091,151.357 110.5,149C 111.252,148.329 111.586,147.496 111.5,146.5C 124.486,125.645 142.819,111.478 166.5,104C 172.167,103 177.833,102 183.5,101C 223.165,100.5 262.832,100.333 302.5,100.5 Z"/></g>
<g><path style="opacity:1" fill="#95dbe8" d="M 384.5,122.5 C 379.982,119.495 375.316,116.662 370.5,114C 348.557,105.343 325.891,100.843 302.5,100.5C 307.419,100.924 312.086,100.09 316.5,98C 314.5,97.3333 312.5,96.6667 310.5,96C 301.301,95.5215 292.134,94.6882 283,93.5C 272.796,93.6245 261.962,93.9578 250.5,94.5C 229.884,92.5267 209.217,91.6934 188.5,92C 184.581,92.5351 180.914,93.7017 177.5,95.5C 176.228,94.954 174.894,94.6207 173.5,94.5C 170.014,95.2464 166.514,95.9131 163,96.5C 156.693,99.2142 150.193,101.214 143.5,102.5C 155.753,96.3464 168.753,92.1798 182.5,90C 222.856,89.8746 263.189,90.8746 303.5,93C 317.676,94.4738 331.676,96.8071 345.5,100C 360.591,104.211 373.924,111.544 385.5,122C 385.272,122.399 384.938,122.565 384.5,122.5 Z"/></g>
<g><path style="opacity:1" fill="#edf3f4" d="M 385.5,204.5 C 382.167,204.5 378.833,204.5 375.5,204.5C 371.396,202.064 369.229,198.397 369,193.5C 368.5,186.842 368.334,180.175 368.5,173.5C 366.167,173.5 363.833,173.5 361.5,173.5C 361.5,171.5 361.5,169.5 361.5,167.5C 361.833,166.5 362.5,165.833 363.5,165.5C 365.167,165.5 366.833,165.5 368.5,165.5C 368.5,161.833 368.5,158.167 368.5,154.5C 372.135,153.886 375.802,153.552 379.5,153.5C 379.5,157.5 379.5,161.5 379.5,165.5C 383.167,165.5 386.833,165.5 390.5,165.5C 390.5,168.167 390.5,170.833 390.5,173.5C 386.833,173.5 383.167,173.5 379.5,173.5C 379.075,180.615 379.575,187.615 381,194.5C 384.358,195.148 387.691,195.481 391,195.5C 391.667,197.5 391.667,199.5 391,201.5C 388.791,201.989 386.958,202.989 385.5,204.5 Z"/></g>
<g><path style="opacity:1" fill="#1e683b" d="M 65.5,161.5 C 62.7971,170.598 60.1304,179.598 57.5,188.5C 58.5851,178.922 61.2518,169.922 65.5,161.5 Z"/></g>
<g><path style="opacity:1" fill="#02566e" d="M 143.5,203.5 C 146.142,202.898 148.475,201.564 150.5,199.5C 152.034,195.902 150.868,193.568 147,192.5C 142.838,195.166 138.338,195.999 133.5,195C 131.959,193.421 130.792,191.587 130,189.5C 129.333,185.5 129.333,181.5 130,177.5C 132.388,172.774 136.222,171.274 141.5,173C 141.906,178.09 144.572,179.756 149.5,178C 150.056,177.617 150.389,177.117 150.5,176.5C 151.525,177.374 152.192,178.541 152.5,180C 151.427,181.416 151.427,182.75 152.5,184C 150.559,184.743 148.726,184.576 147,183.5C 145.933,184.943 144.766,186.276 143.5,187.5C 144.628,188.262 145.795,188.929 147,189.5C 148.085,188.707 149.252,188.04 150.5,187.5C 151.103,190.828 152.77,191.828 155.5,190.5C 159.721,201.529 167.721,206.029 179.5,204C 183.311,202.93 186.644,201.097 189.5,198.5C 192.939,195.7 195.772,192.367 198,188.5C 199.299,189.09 200.132,190.09 200.5,191.5C 199.814,193.347 198.814,195.014 197.5,196.5C 196.604,198.801 196.438,201.134 197,203.5C 199.461,204.218 201.961,204.885 204.5,205.5C 205.563,207.435 206.897,209.101 208.5,210.5C 207.359,211.425 207.359,212.259 208.5,213C 206.804,214.176 205.138,215.343 203.5,216.5C 202.508,216.672 201.842,216.338 201.5,215.5C 196.259,214.955 192.426,212.288 190,207.5C 188.113,209.026 187.113,211.026 187,213.5C 185.853,212.542 184.853,212.875 184,214.5C 178.667,210.5 173.333,210.5 168,214.5C 166.933,213.809 165.766,213.309 164.5,213C 164.833,212.667 165.167,212.333 165.5,212C 164.377,210.956 163.044,210.29 161.5,210C 163.595,209.444 163.762,208.944 162,208.5C 159.738,209.426 157.738,210.759 156,212.5C 154.984,211.366 154.317,211.699 154,213.5C 153.333,210.833 152.667,210.833 152,213.5C 150.417,213.507 148.751,213.174 147,212.5C 142.371,216.699 137.537,219.866 132.5,222C 132.167,222.333 131.833,222.667 131.5,223C 132.294,233.505 134.294,243.505 137.5,253C 137.294,254.865 136.628,256.532 135.5,258C 135.95,259.285 136.617,260.452 137.5,261.5C 136.833,262.167 136.167,262.833 135.5,263.5C 139.452,266.098 139.452,268.598 135.5,271C 136.793,271.49 138.127,271.657 139.5,271.5C 139.5,270.167 139.5,268.833 139.5,267.5C 140.5,267.5 141.5,267.5 142.5,267.5C 142.299,270.765 143.466,273.431 146,275.5C 147.257,281.333 145.757,282 141.5,277.5C 135.366,285.148 136.699,289.148 145.5,289.5C 144.392,287.305 144.559,285.305 146,283.5C 148.568,287.891 147.735,291.391 143.5,294C 144.582,295.33 145.249,296.83 145.5,298.5C 145.5,298.833 145.5,299.167 145.5,299.5C 143.926,301.102 143.259,303.102 143.5,305.5C 150.13,306.546 156.797,306.713 163.5,306C 167.518,301.906 167.185,298.073 162.5,294.5C 164.621,292.982 166.954,291.982 169.5,291.5C 171.315,290.37 173.315,289.704 175.5,289.5C 177.624,288.969 179.124,287.635 180,285.5C 180.333,280.833 180.667,276.167 181,271.5C 182.594,278.726 182.928,286.06 182,293.5C 179.954,293.451 177.787,293.785 175.5,294.5C 176.325,295.386 177.325,295.719 178.5,295.5C 178.693,299.013 178.026,302.346 176.5,305.5C 174.414,303.977 172.748,304.31 171.5,306.5C 173.332,307.248 174.999,308.248 176.5,309.5C 177.646,308.855 178.646,308.022 179.5,307C 189.009,306.83 198.342,306.33 207.5,305.5C 213.209,305.928 218.876,306.594 224.5,307.5C 226.55,306.923 227.55,305.59 227.5,303.5C 229.074,303.063 230.241,302.063 231,300.5C 236.266,305.525 242.433,307.191 249.5,305.5C 252.895,304.023 253.561,304.356 251.5,306.5C 254.21,307.515 256.543,309.015 258.5,311C 261.484,313.94 261.15,316.107 257.5,317.5C 255.695,316.528 254.028,315.361 252.5,314C 248.318,313.616 244.485,313.116 241,312.5C 240.308,313.025 239.808,313.692 239.5,314.5C 241.113,315.427 242.779,316.261 244.5,317C 243.167,317.667 243.167,318.333 244.5,319C 245.448,319.483 246.448,319.649 247.5,319.5C 247.5,318.5 247.5,317.5 247.5,316.5C 250.084,316.569 252.084,317.735 253.5,320C 256.167,320.667 258.833,320.667 261.5,320C 267.834,312.21 265.834,306.543 255.5,303C 252.936,300.484 252.936,297.984 255.5,295.5C 253.895,290.654 253.062,285.654 253,280.5C 252.667,281.167 252.333,281.833 252,282.5C 251.691,281.234 251.191,280.067 250.5,279C 252.394,277.899 253.061,276.566 252.5,275C 253.899,274.405 255.232,274.572 256.5,275.5C 257.953,271.709 260.62,269.376 264.5,268.5C 265.077,271.55 263.91,273.55 261,274.5C 259.356,277.71 257.523,280.71 255.5,283.5C 255.833,284.167 256.167,284.833 256.5,285.5C 258.978,283.562 261.645,281.895 264.5,280.5C 266.252,283.833 265.252,285.499 261.5,285.5C 262.244,288.95 260.91,290.616 257.5,290.5C 260.074,293.936 261.74,297.936 262.5,302.5C 263.873,300.51 264.873,298.343 265.5,296C 264.448,294.881 263.281,294.381 262,294.5C 261.217,292.681 261.717,291.348 263.5,290.5C 265.413,292.291 267.08,294.291 268.5,296.5C 267.754,297.736 267.421,299.07 267.5,300.5C 267.264,303.226 268.097,305.559 270,307.5C 279.116,306.794 288.283,306.127 297.5,305.5C 299.135,306.046 300.801,306.38 302.5,306.5C 304.811,308.068 307.478,308.902 310.5,309C 308.5,309.333 306.5,309.667 304.5,310C 309.732,311.533 315.065,311.533 320.5,310C 317.5,309.667 314.5,309.333 311.5,309C 315.821,308.501 320.154,308.334 324.5,308.5C 325.035,311.238 324.035,313.072 321.5,314C 322.563,315.188 323.897,315.688 325.5,315.5C 325.188,311.977 326.521,310.644 329.5,311.5C 331.002,310.917 332.335,310.084 333.5,309C 331.285,307.956 328.952,307.29 326.5,307C 327.399,305.764 328.566,304.93 330,304.5C 333.652,305.249 336.485,307.082 338.5,310C 341.767,311.82 345.1,311.986 348.5,310.5C 348.085,308.052 349.085,306.719 351.5,306.5C 352.647,306.818 353.481,307.484 354,308.5C 356.405,307.726 358.905,307.226 361.5,307C 362.163,305.482 363.163,304.315 364.5,303.5C 363.687,306.606 362.687,309.606 361.5,312.5C 362.337,314.838 363.17,317.172 364,319.5C 365.324,315.403 367.49,314.736 370.5,317.5C 371.427,315.887 372.261,314.221 373,312.5C 374.049,313.517 375.216,313.684 376.5,313C 377.809,311.249 377.475,309.749 375.5,308.5C 378.139,307.644 380.806,307.81 383.5,309C 382.226,309.977 382.226,310.811 383.5,311.5C 376.419,318.546 368.419,324.379 359.5,329C 344.64,335.215 329.307,339.882 313.5,343C 284.499,344.667 255.499,346.333 226.5,348C 216.499,348.696 208.332,352.863 202,360.5C 197,368.167 192,375.833 187,383.5C 182.636,389.03 177.802,394.03 172.5,398.5C 165.726,402.261 161.559,400.261 160,392.5C 158.405,382.035 156.905,371.702 155.5,361.5C 155.05,355.36 153.217,349.693 150,344.5C 120.894,324.938 103.394,297.938 97.5,263.5C 99.0995,262.318 99.4328,260.985 98.5,259.5C 99,258.5 99.5,257.5 100,256.5C 100.333,256.833 100.667,257.167 101,257.5C 101.333,255.167 101.667,252.833 102,250.5C 103.699,251.406 105.533,251.739 107.5,251.5C 107.414,253.677 106.747,255.677 105.5,257.5C 105.808,258.308 106.308,258.975 107,259.5C 107.645,258.354 108.478,257.354 109.5,256.5C 108.593,253.579 108.26,250.579 108.5,247.5C 107.325,247.719 106.325,247.386 105.5,246.5C 107.173,244.477 107.84,242.144 107.5,239.5C 105.856,239.714 104.356,239.38 103,238.5C 101.167,239.667 99.3333,240.833 97.5,242C 98.9561,242.423 99.4561,243.256 99,244.5C 97.984,243.366 97.3173,243.699 97,245.5C 95.849,242.199 94.6823,238.532 93.5,234.5C 95.7035,231.523 96.0368,228.356 94.5,225C 99.68,223.657 99.68,222.157 94.5,220.5C 94.8457,219.304 95.3457,219.304 96,220.5C 96.4828,219.552 96.6495,218.552 96.5,217.5C 97.675,217.281 98.675,217.614 99.5,218.5C 100.057,220.235 100.39,221.902 100.5,223.5C 101.425,222.359 102.259,222.359 103,223.5C 103.503,202.198 104.336,202.198 105.5,223.5C 106.495,218.208 106.828,212.875 106.5,207.5C 107.5,207.5 108.5,207.5 109.5,207.5C 109.5,204.833 109.5,202.167 109.5,199.5C 108.022,199.762 106.689,199.429 105.5,198.5C 106.651,197.269 107.817,197.269 109,198.5C 109.494,196.866 109.66,195.199 109.5,193.5C 107.4,193.523 105.567,192.856 104,191.5C 101.861,192.688 100.361,192.021 99.5,189.5C 99.3201,188.446 98.9867,187.446 98.5,186.5C 99.5294,186.704 100.529,186.204 101.5,185C 100.253,183.542 100.253,182.042 101.5,180.5C 101.154,179.304 100.654,179.304 100,180.5C 100.148,179.175 99.9817,178.008 99.5,177C 100.636,175.47 101.636,174.137 102.5,173C 101.833,172.667 101.167,172.333 100.5,172C 101.833,170.333 103.167,168.667 104.5,167C 104.167,166.667 103.833,166.333 103.5,166C 105.127,166.43 106.627,166.596 108,166.5C 108.333,165.833 108.667,165.167 109,164.5C 109.681,166.529 110.014,168.529 110,170.5C 109.333,169.833 108.667,169.167 108,168.5C 108.046,170.313 107.88,171.979 107.5,173.5C 108.145,174.646 108.978,175.646 110,176.5C 112.495,174.744 113.329,172.577 112.5,170C 113.635,169.251 114.635,169.417 115.5,170.5C 116.037,175.299 116.037,181.299 115.5,188.5C 113.559,190.124 112.226,192.124 111.5,194.5C 111.667,195.5 111.833,196.5 112,197.5C 112.914,196.346 113.747,196.513 114.5,198C 114.167,198.333 113.833,198.667 113.5,199C 114.624,199.249 115.624,199.749 116.5,200.5C 115.726,201.711 114.893,201.711 114,200.5C 113.316,201.784 113.483,202.951 114.5,204C 112.431,204.324 112.098,205.158 113.5,206.5C 110.367,216.558 111.867,217.558 118,209.5C 119.401,211.192 121.234,211.859 123.5,211.5C 123.5,210.5 123.5,209.5 123.5,208.5C 117.633,208.121 117.133,206.454 122,203.5C 124.627,206.128 127.794,207.961 131.5,209C 130.022,211.039 128.022,211.872 125.5,211.5C 125.5,212.833 125.5,214.167 125.5,215.5C 130.793,217.958 134.793,216.625 137.5,211.5C 137.023,210.522 136.357,209.689 135.5,209C 136.833,208.667 138.167,208.333 139.5,208C 139.167,207.667 138.833,207.333 138.5,207C 140.233,205.811 141.9,204.644 143.5,203.5 Z"/></g>
<g><path style="opacity:1" fill="#1b5a6a" d="M 385.5,204.5 C 386.958,202.989 388.791,201.989 391,201.5C 391.667,199.5 391.667,197.5 391,195.5C 387.691,195.481 384.358,195.148 381,194.5C 379.575,187.615 379.075,180.615 379.5,173.5C 383.167,173.5 386.833,173.5 390.5,173.5C 390.5,170.833 390.5,168.167 390.5,165.5C 386.833,165.5 383.167,165.5 379.5,165.5C 379.5,161.5 379.5,157.5 379.5,153.5C 375.802,153.552 372.135,153.886 368.5,154.5C 368.5,158.167 368.5,161.833 368.5,165.5C 366.833,165.5 365.167,165.5 363.5,165.5C 364.706,164.12 364.373,162.953 362.5,162C 363.833,161 363.833,160 362.5,159C 360.479,158.86 358.645,158.693 357,158.5C 356,159.167 355,159.833 354,160.5C 352.214,158.901 350.047,158.067 347.5,158C 348.938,157.781 350.271,157.281 351.5,156.5C 350.359,155.575 350.359,154.741 351.5,154C 356.533,153.829 361.533,153.329 366.5,152.5C 368.019,149.936 369.519,149.936 371,152.5C 373.537,151.263 376.037,149.93 378.5,148.5C 380.104,148.939 381.604,149.606 383,150.5C 387.378,149.207 389.378,150.873 389,155.5C 387.43,154.386 386.097,153.053 385,151.5C 383.421,155.12 383.255,158.786 384.5,162.5C 386.149,161.352 387.649,160.019 389,158.5C 389.98,159.981 391.147,161.315 392.5,162.5C 391.998,163.716 391.665,164.883 391.5,166C 393.779,166.473 395.779,167.473 397.5,169C 395.178,170.566 393.678,172.733 393,175.5C 392.667,175.167 392.333,174.833 392,174.5C 390.951,176.107 389.451,176.773 387.5,176.5C 387.5,177.5 387.5,178.5 387.5,179.5C 386.127,179.343 384.793,179.51 383.5,180C 384.458,181.147 384.125,182.147 382.5,183C 382.583,186.362 382.75,189.862 383,193.5C 383.414,193.957 383.914,194.291 384.5,194.5C 386.271,193.965 386.604,193.131 385.5,192C 386.416,191.626 387.25,191.126 388,190.5C 388.511,188.122 389.178,185.788 390,183.5C 390.626,185.991 391.459,185.991 392.5,183.5C 394.102,184.601 395.102,186.101 395.5,188C 392.586,191.738 392.919,195.071 396.5,198C 395.833,198.667 395.167,199.333 394.5,200C 395.899,201.062 396.899,202.395 397.5,204C 397.056,205.762 396.556,205.595 396,203.5C 394.667,206.167 393.333,206.167 392,203.5C 391.333,206.167 390.667,206.167 390,203.5C 388.644,204.38 387.144,204.714 385.5,204.5 Z"/></g>
<g><path style="opacity:1" fill="#ecf2f3" d="M 339.5,163.5 C 343.514,163.334 347.514,163.501 351.5,164C 354.303,164.615 356.636,165.782 358.5,167.5C 358.665,170.85 358.498,174.183 358,177.5C 355.619,178.435 353.119,178.768 350.5,178.5C 350.739,176.533 350.406,174.699 349.5,173C 346.5,172.333 343.5,172.333 340.5,173C 338.951,174.214 337.785,175.714 337,177.5C 335.298,184.245 336.798,190.078 341.5,195C 347.068,195.518 352.401,194.852 357.5,193C 359.378,194.993 359.712,197.159 358.5,199.5C 351.872,204.158 344.539,205.658 336.5,204C 331.011,201.532 327.511,197.365 326,191.5C 322.338,177.829 326.838,168.496 339.5,163.5 Z"/></g>
<g><path style="opacity:1" fill="#4daba6" d="M 435.5,156.5 C 437.806,160.085 439.139,164.085 439.5,168.5C 441.528,181.534 443.695,194.534 446,207.5C 446.826,219.341 446.659,231.007 445.5,242.5C 446.177,220.085 444.01,198.085 439,176.5C 437.076,174.991 435.909,172.991 435.5,170.5C 435.888,165.912 435.888,161.246 435.5,156.5 Z"/></g>
<g><path style="opacity:1" fill="#02566c" d="M 107.5,111.5 C 100.802,118.491 94.3017,125.825 88,133.5C 72.4454,161.887 64.9454,192.387 65.5,225C 64.9371,253.875 71.1038,281.042 84,306.5C 88.1188,309.781 91.2854,313.781 93.5,318.5C 97.2451,321.92 100.912,325.253 104.5,328.5C 107.55,332.601 111.05,336.268 115,339.5C 116.559,341.217 117.392,343.217 117.5,345.5C 118.822,345.33 119.989,345.663 121,346.5C 124.937,354.756 129.27,362.756 134,370.5C 140.585,388.855 147.752,406.855 155.5,424.5C 155.5,425.167 155.167,425.5 154.5,425.5C 153.448,425.351 152.448,425.517 151.5,426C 148.251,432.698 142.918,435.531 135.5,434.5C 134.265,431.92 132.599,429.587 130.5,427.5C 128.926,424.093 127.926,420.427 127.5,416.5C 125.121,401.096 121.288,386.096 116,371.5C 114.693,369.808 113.193,368.475 111.5,367.5C 110.483,363.133 108.65,359.133 106,355.5C 105.184,354.177 104.017,353.511 102.5,353.5C 100.914,350.573 98.9144,347.906 96.5,345.5C 94.9291,344.691 93.2624,344.357 91.5,344.5C 91.5,344.167 91.5,343.833 91.5,343.5C 87.1816,338.695 82.5149,334.361 77.5,330.5C 76.0937,330.027 75.427,329.027 75.5,327.5C 72.8899,322.386 70.0565,317.386 67,312.5C 66.5579,304.621 63.7245,297.955 58.5,292.5C 58.5,292.167 58.5,291.833 58.5,291.5C 53.5828,257.219 53.2495,222.886 57.5,188.5C 60.1304,179.598 62.7971,170.598 65.5,161.5C 67.6323,158.607 69.799,155.607 72,152.5C 74.0479,146.447 76.5479,140.781 79.5,135.5C 80.6431,135.092 81.6431,134.425 82.5,133.5C 84.8838,130.131 87.2171,126.797 89.5,123.5C 89.5,122.167 90.1667,121.5 91.5,121.5C 97.194,118.658 102.527,115.324 107.5,111.5 Z"/></g>
<g><path style="opacity:1" fill="#4ca47a" d="M 439.5,168.5 C 442.088,175.18 443.921,182.18 445,189.5C 448.304,213.839 448.304,238.172 445,262.5C 443.406,270.906 440.906,278.906 437.5,286.5C 437.337,284.143 437.503,281.81 438,279.5C 442.64,267.677 445.14,255.343 445.5,242.5C 446.659,231.007 446.826,219.341 446,207.5C 443.695,194.534 441.528,181.534 439.5,168.5 Z"/></g>
<g><path style="opacity:1" fill="#10576a" d="M 111.5,146.5 C 111.586,147.496 111.252,148.329 110.5,149C 113.091,151.357 114.758,154.191 115.5,157.5C 116.5,157.5 117.5,157.5 118.5,157.5C 118.262,153.901 119.262,153.567 121.5,156.5C 120.835,158.101 120.501,159.601 120.5,161C 121.5,161.333 122.5,161.667 123.5,162C 122.549,162.718 122.383,163.551 123,164.5C 124.786,161.638 127.119,160.972 130,162.5C 135.26,161.973 140.427,161.14 145.5,160C 144.333,158.833 143.167,157.667 142,156.5C 140.402,158.509 138.402,158.509 136,156.5C 135.667,157.167 135.333,157.833 135,158.5C 134.333,155.833 133.667,155.833 133,158.5C 130.245,158.853 127.078,158.353 123.5,157C 123.167,156.667 122.833,156.333 122.5,156C 123.624,155.751 124.624,155.251 125.5,154.5C 122.922,152.365 123.088,150.365 126,148.5C 126.667,150.5 128,151.833 130,152.5C 133.34,151.382 137.174,151.215 141.5,152C 143.656,153.99 145.656,156.157 147.5,158.5C 148.325,159.386 149.325,159.719 150.5,159.5C 150.351,158.448 150.517,157.448 151,156.5C 151.585,158.129 152.419,159.629 153.5,161C 151.093,163.092 151.093,165.092 153.5,167C 153.167,167.333 152.833,167.667 152.5,168C 153.579,168.956 154.745,169.789 156,170.5C 158.14,168.36 160.306,166.194 162.5,164C 159.857,161.877 157.191,160.544 154.5,160C 158.591,158.773 162.091,159.606 165,162.5C 169.749,161.695 174.582,161.195 179.5,161C 179.833,160.667 180.167,160.333 180.5,160C 176.345,157.35 172.178,155.516 168,154.5C 167.667,155.167 167.333,155.833 167,156.5C 166.333,153.833 165.667,153.833 165,156.5C 163.599,154.808 161.766,154.141 159.5,154.5C 159.5,153.5 159.5,152.5 159.5,151.5C 164.833,151.5 170.167,151.5 175.5,151.5C 175.5,152.833 175.5,154.167 175.5,155.5C 178.167,155.5 180.833,155.5 183.5,155.5C 183.5,156.5 183.5,157.5 183.5,158.5C 185.787,158.276 187.953,157.609 190,156.5C 190.5,156.833 191,157.167 191.5,157.5C 190.263,159.779 188.93,161.945 187.5,164C 189.044,164.29 190.377,164.956 191.5,166C 191.167,166.333 190.833,166.667 190.5,167C 191.448,167.483 192.448,167.649 193.5,167.5C 194.068,171.756 194.735,175.756 195.5,179.5C 197.336,176.748 198.336,173.748 198.5,170.5C 200.138,171.159 201.805,171.826 203.5,172.5C 204.665,180.145 204.831,187.812 204,195.5C 199.558,196.284 197.724,198.95 198.5,203.5C 205.833,203.5 213.167,203.5 220.5,203.5C 220.5,201.5 220.5,199.5 220.5,197.5C 219.178,197.67 218.011,197.337 217,196.5C 216.333,189.5 216.333,182.5 217,175.5C 220.736,172.911 224.402,172.911 228,175.5C 228.5,182.492 228.666,189.492 228.5,196.5C 227.178,196.33 226.011,196.663 225,197.5C 224.505,199.473 224.338,201.473 224.5,203.5C 231.167,203.5 237.833,203.5 244.5,203.5C 244.5,201.5 244.5,199.5 244.5,197.5C 242.61,197.703 241.11,197.037 240,195.5C 239.5,187.507 239.334,179.507 239.5,171.5C 240.166,175.021 240.833,178.687 241.5,182.5C 242.167,181.167 242.833,179.833 243.5,178.5C 243.833,179.667 244.167,180.833 244.5,182C 243.61,184.893 243.61,187.726 244.5,190.5C 245.396,189.494 246.062,189.494 246.5,190.5C 246.286,195.397 245.619,200.397 244.5,205.5C 243.033,205.723 241.533,206.056 240,206.5C 239.614,212.641 241.614,213.641 246,209.5C 248.807,211.815 251.807,213.815 255,215.5C 255.5,215.333 256,215.167 256.5,215C 255.289,214.107 255.289,213.274 256.5,212.5C 257.5,213 258.5,213.5 259.5,214C 257.355,214.743 257.189,215.576 259,216.5C 261.997,214.522 262.164,212.355 259.5,210C 260.308,209.692 260.975,209.192 261.5,208.5C 260.567,207.015 260.9,205.682 262.5,204.5C 265.518,204.665 268.518,204.498 271.5,204C 273.158,202.337 275.158,201.504 277.5,201.5C 278.052,195.546 275.552,193.546 270,195.5C 268.289,195.561 266.956,194.894 266,193.5C 265.5,186.842 265.334,180.175 265.5,173.5C 268.833,173.5 272.167,173.5 275.5,173.5C 275.5,170.833 275.5,168.167 275.5,165.5C 272.167,165.5 268.833,165.5 265.5,165.5C 265.5,161.5 265.5,157.5 265.5,153.5C 261.785,153.423 258.119,153.756 254.5,154.5C 254.5,158.167 254.5,161.833 254.5,165.5C 252.167,165.5 249.833,165.5 247.5,165.5C 247.5,168.167 247.5,170.833 247.5,173.5C 249.833,173.5 252.167,173.5 254.5,173.5C 254.334,180.841 254.5,188.174 255,195.5C 255.454,199.075 256.954,202.075 259.5,204.5C 257.218,205.489 254.885,205.989 252.5,206C 253.357,205.311 254.023,204.478 254.5,203.5C 252.27,200.263 250.603,197.096 249.5,194C 252.815,190.471 253.149,186.805 250.5,183C 251.167,182.667 251.833,182.333 252.5,182C 251.233,180.204 251.233,178.371 252.5,176.5C 251.833,175.167 251.167,175.167 250.5,176.5C 249.048,179.737 247.881,183.07 247,186.5C 246.346,187.696 245.846,187.696 245.5,186.5C 245.533,182.959 245.866,179.292 246.5,175.5C 246.404,171.856 245.738,168.356 244.5,165C 245.88,163.075 247.38,161.241 249,159.5C 249.333,160.167 249.667,160.833 250,161.5C 250.943,157.776 252.776,154.609 255.5,152C 255.167,151.667 254.833,151.333 254.5,151C 258.187,149.196 261.687,149.363 265,151.5C 265.604,149.314 266.77,149.148 268.5,151C 268.579,153.772 268.913,156.438 269.5,159C 267.299,159.777 267.299,160.944 269.5,162.5C 271.098,162.39 272.765,162.057 274.5,161.5C 275.415,160.672 276.081,159.672 276.5,158.5C 274.922,157.928 273.422,157.594 272,157.5C 271.105,154.534 271.605,151.867 273.5,149.5C 275.49,150.873 277.657,151.873 280,152.5C 282.483,151.175 284.983,151.842 287.5,154.5C 292.833,155.167 298.167,155.833 303.5,156.5C 304.833,158.167 304.833,159.833 303.5,161.5C 300.023,162.167 296.689,162.834 293.5,163.5C 290.393,164.688 287.227,165.688 284,166.5C 283.501,170.152 283.335,173.818 283.5,177.5C 286.247,177.813 288.914,177.48 291.5,176.5C 293.64,171.575 297.306,170.242 302.5,172.5C 303.407,175.421 303.74,178.421 303.5,181.5C 298.156,181.334 292.823,181.501 287.5,182C 280.872,187.351 279.705,193.851 284,201.5C 287.681,204.36 291.848,205.193 296.5,204C 299.279,202.278 302.279,201.111 305.5,200.5C 305.5,201.5 305.5,202.5 305.5,203.5C 310.833,203.5 316.167,203.5 321.5,203.5C 322.906,198.069 320.906,195.735 315.5,196.5C 315.666,187.827 315.5,179.16 315,170.5C 313.233,167.228 310.733,164.895 307.5,163.5C 310.791,161.982 313.624,162.648 316,165.5C 316.333,165.167 316.667,164.833 317,164.5C 317.333,165.833 317.667,167.167 318,168.5C 318.396,166.301 319.563,164.135 321.5,162C 320.206,161.894 319.539,160.894 319.5,159C 319.585,157.893 319.919,156.893 320.5,156C 323.611,157.369 326.944,158.535 330.5,159.5C 330.33,160.822 330.663,161.989 331.5,163C 334.146,163.497 336.813,163.664 339.5,163.5C 326.838,168.496 322.338,177.829 326,191.5C 327.511,197.365 331.011,201.532 336.5,204C 344.539,205.658 351.872,204.158 358.5,199.5C 359.712,197.159 359.378,194.993 357.5,193C 352.401,194.852 347.068,195.518 341.5,195C 336.798,190.078 335.298,184.245 337,177.5C 337.785,175.714 338.951,174.214 340.5,173C 343.5,172.333 346.5,172.333 349.5,173C 350.406,174.699 350.739,176.533 350.5,178.5C 353.119,178.768 355.619,178.435 358,177.5C 358.498,174.183 358.665,170.85 358.5,167.5C 359.5,166.167 360.5,166.167 361.5,167.5C 361.5,169.5 361.5,171.5 361.5,173.5C 363.833,173.5 366.167,173.5 368.5,173.5C 368.334,180.175 368.5,186.842 369,193.5C 369.229,198.397 371.396,202.064 375.5,204.5C 378.305,205.319 381.305,205.819 384.5,206C 383.897,207.825 383.23,209.659 382.5,211.5C 379.054,209.868 375.387,207.868 371.5,205.5C 370.855,204.354 370.022,203.354 369,202.5C 367.284,203.552 366.284,202.886 366,200.5C 364.587,201.912 362.92,202.912 361,203.5C 358.83,202.666 356.83,202.333 355,202.5C 354.167,203.333 353.333,204.167 352.5,205C 353.833,206.84 353.666,207.34 352,206.5C 349.966,208.032 347.799,209.365 345.5,210.5C 344.646,209.478 343.646,208.645 342.5,208C 344.595,207.444 344.762,206.944 343,206.5C 340.157,208.017 337.323,209.517 334.5,211C 335.524,212.367 335.024,213.2 333,213.5C 332.684,212.366 331.851,211.366 330.5,210.5C 324.044,210.898 323.044,213.232 327.5,217.5C 306.028,212.458 296.528,221.124 299,243.5C 303.173,255.026 311.34,259.193 323.5,256C 326.5,254.5 329.5,253 332.5,251.5C 333.769,249.305 333.769,247.139 332.5,245C 326.989,246.571 321.322,247.237 315.5,247C 312.42,245.009 310.754,242.175 310.5,238.5C 318.5,238.5 326.5,238.5 334.5,238.5C 334.676,233.12 334.342,227.787 333.5,222.5C 337.587,224.25 339.087,222.917 338,218.5C 336.817,219.731 335.651,219.731 334.5,218.5C 335.098,217.205 335.598,215.872 336,214.5C 336.333,214.833 336.667,215.167 337,215.5C 345.225,213.509 353.725,212.342 362.5,212C 364.519,211.55 366.352,210.717 368,209.5C 368.667,210.167 369.333,210.833 370,211.5C 371.183,210.269 372.349,210.269 373.5,211.5C 373.291,212.086 372.957,212.586 372.5,213C 375.121,214.654 377.621,216.487 380,218.5C 381.011,217.663 382.178,217.33 383.5,217.5C 383.657,218.873 383.49,220.207 383,221.5C 381.488,219.043 380.154,219.043 379,221.5C 380.315,231.025 376.482,234.692 367.5,232.5C 366.637,236.162 367.97,238.328 371.5,239C 369.598,239.199 368.098,240.033 367,241.5C 362.471,228.11 359.971,228.277 359.5,242C 360.033,244.226 360.7,246.393 361.5,248.5C 359.901,248.768 358.568,248.434 357.5,247.5C 357.334,241.158 357.5,234.825 358,228.5C 358.717,227.956 359.217,227.289 359.5,226.5C 360.799,224.901 362.465,224.401 364.5,225C 365.423,227.041 365.756,229.208 365.5,231.5C 367.833,231.5 370.167,231.5 372.5,231.5C 372.805,226.238 372.471,221.072 371.5,216C 365.805,214.56 360.805,215.726 356.5,219.5C 355.571,218.311 355.238,216.978 355.5,215.5C 350.167,215.5 344.833,215.5 339.5,215.5C 339.337,217.857 339.503,220.19 340,222.5C 341.441,223.26 342.941,223.926 344.5,224.5C 345.665,232.145 345.831,239.812 345,247.5C 343.378,248.099 341.878,248.766 340.5,249.5C 339.532,251.607 339.198,253.941 339.5,256.5C 346.833,256.5 354.167,256.5 361.5,256.5C 359.959,259.697 360.959,262.031 364.5,263.5C 366.991,257.993 369.658,252.66 372.5,247.5C 373.696,248.559 374.363,249.893 374.5,251.5C 373.57,253.105 373.57,254.605 374.5,256C 370.705,259.793 367.705,264.126 365.5,269C 369.411,272.8 369.411,276.467 365.5,280C 367.278,282.135 367.945,284.635 367.5,287.5C 366.248,286.032 364.248,285.032 361.5,284.5C 361.549,287.099 362.549,289.266 364.5,291C 363.167,292.333 363.167,293.667 364.5,295C 363.376,295.839 362.709,297.006 362.5,298.5C 362.986,300.304 363.653,301.971 364.5,303.5C 363.163,304.315 362.163,305.482 361.5,307C 358.905,307.226 356.405,307.726 354,308.5C 353.481,307.484 352.647,306.818 351.5,306.5C 349.085,306.719 348.085,308.052 348.5,310.5C 345.1,311.986 341.767,311.82 338.5,310C 336.485,307.082 333.652,305.249 330,304.5C 328.566,304.93 327.399,305.764 326.5,307C 328.952,307.29 331.285,307.956 333.5,309C 332.335,310.084 331.002,310.917 329.5,311.5C 326.521,310.644 325.188,311.977 325.5,315.5C 323.897,315.688 322.563,315.188 321.5,314C 324.035,313.072 325.035,311.238 324.5,308.5C 320.154,308.334 315.821,308.501 311.5,309C 314.5,309.333 317.5,309.667 320.5,310C 315.065,311.533 309.732,311.533 304.5,310C 306.5,309.667 308.5,309.333 310.5,309C 307.478,308.902 304.811,308.068 302.5,306.5C 310.573,307.132 318.24,306.465 325.5,304.5C 326.167,304.5 326.5,304.167 326.5,303.5C 326.833,303.5 327.167,303.5 327.5,303.5C 332.432,304.696 337.432,305.696 342.5,306.5C 355.611,306.564 361.445,300.231 360,287.5C 356.838,285.845 356.005,283.512 357.5,280.5C 358.794,278.952 359.461,276.952 359.5,274.5C 359.68,271.42 359.014,268.587 357.5,266C 352.945,264.014 348.111,263.181 343,263.5C 339.424,263.515 336.258,264.182 333.5,265.5C 332.508,265.328 331.842,265.662 331.5,266.5C 330.359,269.64 330.192,272.973 331,276.5C 332.826,278.074 334.993,278.907 337.5,279C 336.201,282.135 336.201,285.301 337.5,288.5C 339.396,289.466 341.396,289.799 343.5,289.5C 348.159,289.015 349.492,290.848 347.5,295C 342.495,295.082 337.495,295.082 332.5,295C 331.748,295.671 331.414,296.504 331.5,297.5C 331.5,298.167 331.5,298.833 331.5,299.5C 329.97,298.789 328.637,297.789 327.5,296.5C 324.656,295.384 321.656,294.384 318.5,293.5C 319.952,292.06 320.952,290.394 321.5,288.5C 323.223,286.747 324.723,284.747 326,282.5C 326.499,278.514 326.666,274.514 326.5,270.5C 325.043,268.372 324.043,266.038 323.5,263.5C 316.684,262.315 310.017,262.315 303.5,263.5C 301.418,263.472 299.584,264.139 298,265.5C 297.192,269.027 297.359,272.36 298.5,275.5C 298.484,277.484 299.484,278.484 301.5,278.5C 304.71,277.453 307.544,275.786 310,273.5C 311.44,274.148 312.94,274.481 314.5,274.5C 314.453,277.568 313.953,280.568 313,283.5C 310.42,285.253 307.587,286.253 304.5,286.5C 304.762,287.978 304.429,289.311 303.5,290.5C 301.062,291.931 299.396,293.931 298.5,296.5C 295.685,295.874 293.185,294.54 291,292.5C 289.802,282.87 289.302,273.204 289.5,263.5C 284.103,263.215 278.77,263.549 273.5,264.5C 271.969,267.365 269.803,269.698 267,271.5C 265.913,274.614 266.746,276.947 269.5,278.5C 271.216,278.371 272.883,278.038 274.5,277.5C 275.5,277.5 276.5,277.5 277.5,277.5C 277.5,283.833 277.5,290.167 277.5,296.5C 274.302,295.964 271.635,296.631 269.5,298.5C 268.833,299.167 268.167,299.833 267.5,300.5C 267.421,299.07 267.754,297.736 268.5,296.5C 267.08,294.291 265.413,292.291 263.5,290.5C 261.717,291.348 261.217,292.681 262,294.5C 263.281,294.381 264.448,294.881 265.5,296C 264.873,298.343 263.873,300.51 262.5,302.5C 261.74,297.936 260.074,293.936 257.5,290.5C 260.91,290.616 262.244,288.95 261.5,285.5C 265.252,285.499 266.252,283.833 264.5,280.5C 261.645,281.895 258.978,283.562 256.5,285.5C 256.167,284.833 255.833,284.167 255.5,283.5C 257.523,280.71 259.356,277.71 261,274.5C 263.91,273.55 265.077,271.55 264.5,268.5C 260.62,269.376 257.953,271.709 256.5,275.5C 255.232,274.572 253.899,274.405 252.5,275C 253.061,276.566 252.394,277.899 250.5,279C 251.191,280.067 251.691,281.234 252,282.5C 252.333,281.833 252.667,281.167 253,280.5C 253.062,285.654 253.895,290.654 255.5,295.5C 252.936,297.984 252.936,300.484 255.5,303C 265.834,306.543 267.834,312.21 261.5,320C 258.833,320.667 256.167,320.667 253.5,320C 252.084,317.735 250.084,316.569 247.5,316.5C 247.5,317.5 247.5,318.5 247.5,319.5C 246.448,319.649 245.448,319.483 244.5,319C 243.167,318.333 243.167,317.667 244.5,317C 242.779,316.261 241.113,315.427 239.5,314.5C 239.808,313.692 240.308,313.025 241,312.5C 244.485,313.116 248.318,313.616 252.5,314C 254.028,315.361 255.695,316.528 257.5,317.5C 261.15,316.107 261.484,313.94 258.5,311C 256.543,309.015 254.21,307.515 251.5,306.5C 253.561,304.356 252.895,304.023 249.5,305.5C 249.414,294.675 249.581,283.675 250,272.5C 253.528,270.405 254.362,267.405 252.5,263.5C 246.886,262.379 241.22,262.212 235.5,263C 234.421,263.956 233.255,264.789 232,265.5C 230.509,263.996 228.676,263.163 226.5,263C 220.463,262.303 214.463,262.47 208.5,263.5C 207.945,267.387 209.279,270.387 212.5,272.5C 213.498,280.472 213.831,288.472 213.5,296.5C 212.791,297.404 211.791,297.737 210.5,297.5C 211.66,290.979 209.327,288.979 203.5,291.5C 202.163,292.315 201.163,293.482 200.5,295C 198.866,295.494 197.199,295.66 195.5,295.5C 195.334,287.493 195.5,279.493 196,271.5C 196.717,270.956 197.217,270.289 197.5,269.5C 198.807,267.777 198.807,265.943 197.5,264C 192.177,263.501 186.844,263.334 181.5,263.5C 179.226,263.285 177.059,262.618 175,261.5C 171.395,263.348 168.395,262.681 166,259.5C 165.5,260 165,260.5 164.5,261C 161.833,261.167 159.167,261.333 156.5,261.5C 149.396,257.194 145.396,259.027 144.5,267C 144.569,268.986 145.235,270.486 146.5,271.5C 146.461,272.756 146.961,273.756 148,274.5C 148.5,281.826 148.666,289.159 148.5,296.5C 147.71,297.401 146.71,298.068 145.5,298.5C 145.249,296.83 144.582,295.33 143.5,294C 147.735,291.391 148.568,287.891 146,283.5C 144.559,285.305 144.392,287.305 145.5,289.5C 136.699,289.148 135.366,285.148 141.5,277.5C 145.757,282 147.257,281.333 146,275.5C 143.466,273.431 142.299,270.765 142.5,267.5C 141.5,267.5 140.5,267.5 139.5,267.5C 139.5,268.833 139.5,270.167 139.5,271.5C 138.127,271.657 136.793,271.49 135.5,271C 139.452,268.598 139.452,266.098 135.5,263.5C 136.167,262.833 136.833,262.167 137.5,261.5C 136.617,260.452 135.95,259.285 135.5,258C 136.628,256.532 137.294,254.865 137.5,253C 134.294,243.505 132.294,233.505 131.5,223C 131.833,222.667 132.167,222.333 132.5,222C 137.537,219.866 142.371,216.699 147,212.5C 148.751,213.174 150.417,213.507 152,213.5C 152.667,210.833 153.333,210.833 154,213.5C 154.317,211.699 154.984,211.366 156,212.5C 157.738,210.759 159.738,209.426 162,208.5C 163.762,208.944 163.595,209.444 161.5,210C 163.044,210.29 164.377,210.956 165.5,212C 165.167,212.333 164.833,212.667 164.5,213C 165.766,213.309 166.933,213.809 168,214.5C 173.333,210.5 178.667,210.5 184,214.5C 184.853,212.875 185.853,212.542 187,213.5C 187.113,211.026 188.113,209.026 190,207.5C 192.426,212.288 196.259,214.955 201.5,215.5C 181.359,214.143 172.859,223.476 176,243.5C 179.832,254.783 187.665,258.95 199.5,256C 203.209,255.312 206.543,253.812 209.5,251.5C 210.931,248.362 210.098,246.029 207,244.5C 202.004,246.616 196.837,247.449 191.5,247C 188.989,244.674 187.656,241.841 187.5,238.5C 195.5,238.5 203.5,238.5 211.5,238.5C 211.849,232.655 211.016,226.988 209,221.5C 206.809,220.167 204.976,218.5 203.5,216.5C 205.138,215.343 206.804,214.176 208.5,213C 207.359,212.259 207.359,211.425 208.5,210.5C 206.897,209.101 205.563,207.435 204.5,205.5C 201.961,204.885 199.461,204.218 197,203.5C 196.438,201.134 196.604,198.801 197.5,196.5C 198.814,195.014 199.814,193.347 200.5,191.5C 200.132,190.09 199.299,189.09 198,188.5C 195.772,192.367 192.939,195.7 189.5,198.5C 193.27,190.631 194.437,182.298 193,173.5C 187.404,164.956 179.571,161.789 169.5,164C 162.333,165.833 157.833,170.333 156,177.5C 155.501,181.821 155.334,186.154 155.5,190.5C 152.77,191.828 151.103,190.828 150.5,187.5C 149.252,188.04 148.085,188.707 147,189.5C 145.795,188.929 144.628,188.262 143.5,187.5C 144.766,186.276 145.933,184.943 147,183.5C 148.726,184.576 150.559,184.743 152.5,184C 151.427,182.75 151.427,181.416 152.5,180C 152.192,178.541 151.525,177.374 150.5,176.5C 150.5,172.833 150.5,169.167 150.5,165.5C 143.598,163.751 136.598,163.251 129.5,164C 117.934,170.171 114.1,179.671 118,192.5C 119.586,194.67 120.92,197.004 122,199.5C 124.03,201.737 126.53,203.237 129.5,204C 134.204,204.648 138.871,204.481 143.5,203.5C 141.9,204.644 140.233,205.811 138.5,207C 138.833,207.333 139.167,207.667 139.5,208C 138.167,208.333 136.833,208.667 135.5,209C 136.357,209.689 137.023,210.522 137.5,211.5C 134.793,216.625 130.793,217.958 125.5,215.5C 125.5,214.167 125.5,212.833 125.5,211.5C 128.022,211.872 130.022,211.039 131.5,209C 127.794,207.961 124.627,206.128 122,203.5C 117.133,206.454 117.633,208.121 123.5,208.5C 123.5,209.5 123.5,210.5 123.5,211.5C 121.234,211.859 119.401,211.192 118,209.5C 111.867,217.558 110.367,216.558 113.5,206.5C 112.098,205.158 112.431,204.324 114.5,204C 113.483,202.951 113.316,201.784 114,200.5C 114.893,201.711 115.726,201.711 116.5,200.5C 115.624,199.749 114.624,199.249 113.5,199C 113.833,198.667 114.167,198.333 114.5,198C 113.747,196.513 112.914,196.346 112,197.5C 111.833,196.5 111.667,195.5 111.5,194.5C 112.226,192.124 113.559,190.124 115.5,188.5C 116.037,181.299 116.037,175.299 115.5,170.5C 114.635,169.417 113.635,169.251 112.5,170C 113.329,172.577 112.495,174.744 110,176.5C 108.978,175.646 108.145,174.646 107.5,173.5C 107.88,171.979 108.046,170.313 108,168.5C 108.667,169.167 109.333,169.833 110,170.5C 110.014,168.529 109.681,166.529 109,164.5C 108.667,165.167 108.333,165.833 108,166.5C 106.627,166.596 105.127,166.43 103.5,166C 103.833,166.333 104.167,166.667 104.5,167C 103.167,168.667 101.833,170.333 100.5,172C 101.167,172.333 101.833,172.667 102.5,173C 101.636,174.137 100.636,175.47 99.5,177C 99.9817,178.008 100.148,179.175 100,180.5C 100.654,179.304 101.154,179.304 101.5,180.5C 100.253,182.042 100.253,183.542 101.5,185C 100.529,186.204 99.5294,186.704 98.5,186.5C 98.9867,187.446 99.3201,188.446 99.5,189.5C 100.361,192.021 101.861,192.688 104,191.5C 105.567,192.856 107.4,193.523 109.5,193.5C 109.66,195.199 109.494,196.866 109,198.5C 107.817,197.269 106.651,197.269 105.5,198.5C 106.689,199.429 108.022,199.762 109.5,199.5C 109.5,202.167 109.5,204.833 109.5,207.5C 108.5,207.5 107.5,207.5 106.5,207.5C 106.828,212.875 106.495,218.208 105.5,223.5C 104.336,202.198 103.503,202.198 103,223.5C 102.259,222.359 101.425,222.359 100.5,223.5C 100.39,221.902 100.057,220.235 99.5,218.5C 98.675,217.614 97.675,217.281 96.5,217.5C 96.6495,218.552 96.4828,219.552 96,220.5C 95.3457,219.304 94.8457,219.304 94.5,220.5C 99.68,222.157 99.68,223.657 94.5,225C 96.0368,228.356 95.7035,231.523 93.5,234.5C 94.6823,238.532 95.849,242.199 97,245.5C 97.3173,243.699 97.984,243.366 99,244.5C 99.4561,243.256 98.9561,242.423 97.5,242C 99.3333,240.833 101.167,239.667 103,238.5C 104.356,239.38 105.856,239.714 107.5,239.5C 107.84,242.144 107.173,244.477 105.5,246.5C 106.325,247.386 107.325,247.719 108.5,247.5C 108.26,250.579 108.593,253.579 109.5,256.5C 108.478,257.354 107.645,258.354 107,259.5C 106.308,258.975 105.808,258.308 105.5,257.5C 106.747,255.677 107.414,253.677 107.5,251.5C 105.533,251.739 103.699,251.406 102,250.5C 101.667,252.833 101.333,255.167 101,257.5C 100.667,257.167 100.333,256.833 100,256.5C 99.5,257.5 99,258.5 98.5,259.5C 99.4328,260.985 99.0995,262.318 97.5,263.5C 94.5525,256.938 93.0525,249.938 93,242.5C 92.2021,223.812 92.5354,205.145 94,186.5C 96.8946,171.726 102.728,158.393 111.5,146.5 Z"/></g>
<g><path style="opacity:1" fill="#678e9b" d="M 340.5,249.5 C 340.5,251.5 340.5,253.5 340.5,255.5C 348.5,255.5 356.5,255.5 364.5,255.5C 363.791,256.404 362.791,256.737 361.5,256.5C 354.167,256.5 346.833,256.5 339.5,256.5C 339.198,253.941 339.532,251.607 340.5,249.5 Z"/></g>
<g><path style="opacity:1" fill="#81a1a8" d="M 359.5,226.5 C 359.217,227.289 358.717,227.956 358,228.5C 357.5,234.825 357.334,241.158 357.5,247.5C 356.346,241.013 356.179,234.346 357,227.5C 357.671,226.748 358.504,226.414 359.5,226.5 Z"/></g>
<g><path style="opacity:1" fill="#ecf2f4" d="M 359.5,226.5 C 358.504,226.414 357.671,226.748 357,227.5C 356.179,234.346 356.346,241.013 357.5,247.5C 358.568,248.434 359.901,248.768 361.5,248.5C 364.021,250.03 365.021,252.364 364.5,255.5C 356.5,255.5 348.5,255.5 340.5,255.5C 340.5,253.5 340.5,251.5 340.5,249.5C 341.878,248.766 343.378,248.099 345,247.5C 345.831,239.812 345.665,232.145 344.5,224.5C 342.941,223.926 341.441,223.26 340,222.5C 339.503,220.19 339.337,217.857 339.5,215.5C 344.833,215.5 350.167,215.5 355.5,215.5C 355.238,216.978 355.571,218.311 356.5,219.5C 360.805,215.726 365.805,214.56 371.5,216C 372.471,221.072 372.805,226.238 372.5,231.5C 370.167,231.5 367.833,231.5 365.5,231.5C 365.756,229.208 365.423,227.041 364.5,225C 362.465,224.401 360.799,224.901 359.5,226.5 Z"/></g>
<g><path style="opacity:1" fill="#ebf2f4" d="M 201.5,215.5 C 201.842,216.338 202.508,216.672 203.5,216.5C 204.976,218.5 206.809,220.167 209,221.5C 211.016,226.988 211.849,232.655 211.5,238.5C 203.5,238.5 195.5,238.5 187.5,238.5C 187.656,241.841 188.989,244.674 191.5,247C 196.837,247.449 202.004,246.616 207,244.5C 210.098,246.029 210.931,248.362 209.5,251.5C 206.543,253.812 203.209,255.312 199.5,256C 187.665,258.95 179.832,254.783 176,243.5C 172.859,223.476 181.359,214.143 201.5,215.5 Z"/></g>
<g><path style="opacity:1" fill="#2f5e6a" d="M 190.5,224.5 C 196.826,222.841 199.826,225.174 199.5,231.5C 195.5,231.5 191.5,231.5 187.5,231.5C 187.15,228.547 188.15,226.213 190.5,224.5 Z"/></g>
<g><path style="opacity:1" fill="#ebf2f3" d="M 327.5,217.5 C 329.456,219.114 331.456,220.781 333.5,222.5C 334.342,227.787 334.676,233.12 334.5,238.5C 326.5,238.5 318.5,238.5 310.5,238.5C 310.754,242.175 312.42,245.009 315.5,247C 321.322,247.237 326.989,246.571 332.5,245C 333.769,247.139 333.769,249.305 332.5,251.5C 329.5,253 326.5,254.5 323.5,256C 311.34,259.193 303.173,255.026 299,243.5C 296.528,221.124 306.028,212.458 327.5,217.5 Z"/></g>
<g><path style="opacity:1" fill="#325e6d" d="M 314.5,224.5 C 320.092,223.772 323.092,226.105 323.5,231.5C 319.167,231.5 314.833,231.5 310.5,231.5C 310.343,230.127 310.51,228.793 311,227.5C 312.518,226.837 313.685,225.837 314.5,224.5 Z"/></g>
<g><path style="opacity:1" fill="#ecf3f4" d="M 216.5,215.5 C 221.833,215.5 227.167,215.5 232.5,215.5C 232.5,216.833 232.5,218.167 232.5,219.5C 236.67,217.171 241.17,215.838 246,215.5C 252.503,215.668 256.169,219.001 257,225.5C 257.333,232.833 257.667,240.167 258,247.5C 259.11,249.037 260.61,249.703 262.5,249.5C 262.5,251.5 262.5,253.5 262.5,255.5C 255.833,255.5 249.167,255.5 242.5,255.5C 242.5,253.167 242.5,250.833 242.5,248.5C 243.833,248.5 245.167,248.5 246.5,248.5C 246.666,241.492 246.5,234.492 246,227.5C 242.885,223.849 239.385,223.515 235.5,226.5C 234.246,229.976 233.579,233.642 233.5,237.5C 233.667,240.833 233.833,244.167 234,247.5C 236.802,249.391 237.968,252.058 237.5,255.5C 230.5,255.5 223.5,255.5 216.5,255.5C 216.5,253.167 216.5,250.833 216.5,248.5C 218.5,248.167 220.5,247.833 222.5,247.5C 222.5,239.5 222.5,231.5 222.5,223.5C 220.533,223.739 218.699,223.406 217,222.5C 216.503,220.19 216.337,217.857 216.5,215.5 Z"/></g>
<g><path style="opacity:1" fill="#e9f1f2" d="M 149.5,215.5 C 155.973,215.081 162.306,215.747 168.5,217.5C 169.492,221.783 169.826,226.116 169.5,230.5C 167.143,230.663 164.81,230.497 162.5,230C 161.833,228.333 161.167,226.667 160.5,225C 152.536,223.129 148.536,226.296 148.5,234.5C 149.683,247.842 155.85,250.842 167,243.5C 172.798,247.471 172.631,250.971 166.5,254C 144.935,260.108 135.102,251.942 137,229.5C 138.954,222.72 143.12,218.053 149.5,215.5 Z"/></g>
<g><path style="opacity:1" fill="#eaf1f2" d="M 274.5,205.5 C 277.5,205.5 280.5,205.5 283.5,205.5C 283.5,209.167 283.5,212.833 283.5,216.5C 286.833,216.5 290.167,216.5 293.5,216.5C 293.5,219.5 293.5,222.5 293.5,225.5C 290.167,225.5 286.833,225.5 283.5,225.5C 283.334,232.175 283.5,238.842 284,245.5C 284.739,246.574 285.739,247.241 287,247.5C 289.12,246.541 291.287,246.374 293.5,247C 295.172,250.143 294.506,252.643 291.5,254.5C 286.972,256.281 282.305,256.781 277.5,256C 275.973,254.307 274.64,252.473 273.5,250.5C 272.56,242.202 272.226,233.869 272.5,225.5C 270.167,225.5 267.833,225.5 265.5,225.5C 265.5,222.833 265.5,220.167 265.5,217.5C 267.5,217.5 269.5,217.5 271.5,217.5C 271.335,214.15 271.502,210.817 272,207.5C 272.995,206.934 273.828,206.267 274.5,205.5 Z"/></g>
<g><path style="opacity:1" fill="#edf3f3" d="M 150.5,176.5 C 150.389,177.117 150.056,177.617 149.5,178C 144.572,179.756 141.906,178.09 141.5,173C 136.222,171.274 132.388,172.774 130,177.5C 129.333,181.5 129.333,185.5 130,189.5C 130.792,191.587 131.959,193.421 133.5,195C 138.338,195.999 142.838,195.166 147,192.5C 150.868,193.568 152.034,195.902 150.5,199.5C 148.475,201.564 146.142,202.898 143.5,203.5C 138.871,204.481 134.204,204.648 129.5,204C 126.53,203.237 124.03,201.737 122,199.5C 120.92,197.004 119.586,194.67 118,192.5C 114.1,179.671 117.934,170.171 129.5,164C 136.598,163.251 143.598,163.751 150.5,165.5C 150.5,169.167 150.5,172.833 150.5,176.5 Z"/></g>
<g><path style="opacity:1" fill="#eff4f5" d="M 189.5,198.5 C 186.644,201.097 183.311,202.93 179.5,204C 167.721,206.029 159.721,201.529 155.5,190.5C 155.334,186.154 155.501,181.821 156,177.5C 157.833,170.333 162.333,165.833 169.5,164C 179.571,161.789 187.404,164.956 193,173.5C 194.437,182.298 193.27,190.631 189.5,198.5 Z"/></g>
<g><path style="opacity:1" fill="#245b6b" d="M 172.5,172.5 C 177.624,171.464 180.79,173.464 182,178.5C 183.347,184.598 182.18,190.098 178.5,195C 175.833,195.667 173.167,195.667 170.5,195C 169.299,194.097 168.465,192.931 168,191.5C 167.333,186.5 167.333,181.5 168,176.5C 168.907,174.391 170.407,173.058 172.5,172.5 Z"/></g>
<g><path style="opacity:1" fill="#edf2f3" d="M 293.5,163.5 C 298.167,163.5 302.833,163.5 307.5,163.5C 310.733,164.895 313.233,167.228 315,170.5C 315.5,179.16 315.666,187.827 315.5,196.5C 320.906,195.735 322.906,198.069 321.5,203.5C 316.167,203.5 310.833,203.5 305.5,203.5C 305.5,202.5 305.5,201.5 305.5,200.5C 302.279,201.111 299.279,202.278 296.5,204C 291.848,205.193 287.681,204.36 284,201.5C 279.705,193.851 280.872,187.351 287.5,182C 292.823,181.501 298.156,181.334 303.5,181.5C 303.74,178.421 303.407,175.421 302.5,172.5C 297.306,170.242 293.64,171.575 291.5,176.5C 288.914,177.48 286.247,177.813 283.5,177.5C 283.335,173.818 283.501,170.152 284,166.5C 287.227,165.688 290.393,164.688 293.5,163.5 Z"/></g>
<g><path style="opacity:1" fill="#2c5a68" d="M 295.5,187.5 C 298.167,187.5 300.833,187.5 303.5,187.5C 303.542,194.278 300.208,196.778 293.5,195C 292.941,194.275 292.608,193.442 292.5,192.5C 293.092,190.577 294.092,188.911 295.5,187.5 Z"/></g>
<g><path style="opacity:1" fill="#edf3f4" d="M 239.5,171.5 C 239.334,179.507 239.5,187.507 240,195.5C 241.11,197.037 242.61,197.703 244.5,197.5C 244.5,199.5 244.5,201.5 244.5,203.5C 237.833,203.5 231.167,203.5 224.5,203.5C 224.338,201.473 224.505,199.473 225,197.5C 226.011,196.663 227.178,196.33 228.5,196.5C 228.666,189.492 228.5,182.492 228,175.5C 224.402,172.911 220.736,172.911 217,175.5C 216.333,182.5 216.333,189.5 217,196.5C 218.011,197.337 219.178,197.67 220.5,197.5C 220.5,199.5 220.5,201.5 220.5,203.5C 213.167,203.5 205.833,203.5 198.5,203.5C 197.724,198.95 199.558,196.284 204,195.5C 204.831,187.812 204.665,180.145 203.5,172.5C 201.805,171.826 200.138,171.159 198.5,170.5C 198.5,168.5 198.5,166.5 198.5,164.5C 204.167,164.5 209.833,164.5 215.5,164.5C 215.281,165.675 215.614,166.675 216.5,167.5C 219.05,166.058 221.716,164.892 224.5,164C 231.449,162.808 236.449,165.308 239.5,171.5 Z"/></g>
<g><path style="opacity:1" fill="#edf3f4" d="M 262.5,204.5 C 261.5,204.5 260.5,204.5 259.5,204.5C 256.954,202.075 255.454,199.075 255,195.5C 254.5,188.174 254.334,180.841 254.5,173.5C 252.167,173.5 249.833,173.5 247.5,173.5C 247.5,170.833 247.5,168.167 247.5,165.5C 249.833,165.5 252.167,165.5 254.5,165.5C 254.5,161.833 254.5,158.167 254.5,154.5C 258.119,153.756 261.785,153.423 265.5,153.5C 265.5,157.5 265.5,161.5 265.5,165.5C 268.833,165.5 272.167,165.5 275.5,165.5C 275.5,168.167 275.5,170.833 275.5,173.5C 272.167,173.5 268.833,173.5 265.5,173.5C 265.334,180.175 265.5,186.842 266,193.5C 266.956,194.894 268.289,195.561 270,195.5C 275.552,193.546 278.052,195.546 277.5,201.5C 275.158,201.504 273.158,202.337 271.5,204C 268.518,204.498 265.518,204.665 262.5,204.5 Z"/></g>
<g><path style="opacity:1" fill="#0e5758" d="M 181.5,263.5 C 180.258,265.611 180.258,267.611 181.5,269.5C 183.081,271.142 183.747,273.142 183.5,275.5C 183.83,282.532 183.497,289.532 182.5,296.5C 179.848,298.592 179.014,301.258 180,304.5C 189.083,305.485 198.249,305.818 207.5,305.5C 198.342,306.33 189.009,306.83 179.5,307C 178.646,308.022 177.646,308.855 176.5,309.5C 174.999,308.248 173.332,307.248 171.5,306.5C 172.748,304.31 174.414,303.977 176.5,305.5C 178.026,302.346 178.693,299.013 178.5,295.5C 177.325,295.719 176.325,295.386 175.5,294.5C 177.787,293.785 179.954,293.451 182,293.5C 182.928,286.06 182.594,278.726 181,271.5C 180.667,276.167 180.333,280.833 180,285.5C 179.124,287.635 177.624,288.969 175.5,289.5C 176.412,287.405 177.579,285.405 179,283.5C 179.81,279.642 179.643,275.976 178.5,272.5C 178.068,271.29 177.401,270.29 176.5,269.5C 175.662,269.158 175.328,268.492 175.5,267.5C 174.64,265.386 172.973,264.22 170.5,264C 162.655,263.178 154.989,263.344 147.5,264.5C 146.549,265.919 146.216,267.585 146.5,269.5C 146.5,270.167 146.5,270.833 146.5,271.5C 145.235,270.486 144.569,268.986 144.5,267C 145.396,259.027 149.396,257.194 156.5,261.5C 159.167,261.333 161.833,261.167 164.5,261C 165,260.5 165.5,260 166,259.5C 168.395,262.681 171.395,263.348 175,261.5C 177.059,262.618 179.226,263.285 181.5,263.5 Z"/></g>
<g><path style="opacity:1" fill="#255c37" d="M 303.5,263.5 C 310.017,262.315 316.684,262.315 323.5,263.5C 324.043,266.038 325.043,268.372 326.5,270.5C 326.167,270.5 325.833,270.5 325.5,270.5C 323.408,266.453 320.075,264.453 315.5,264.5C 311.702,263.517 307.702,263.183 303.5,263.5 Z"/></g>
<g><path style="opacity:1" fill="#2f6227" d="M 147.5,264.5 C 154.989,263.344 162.655,263.178 170.5,264C 172.973,264.22 174.64,265.386 175.5,267.5C 172.833,266.833 170.167,266.167 167.5,265.5C 161.021,264.509 154.354,264.176 147.5,264.5 Z"/></g>
<g><path style="opacity:1" fill="#8faf42" d="M 147.5,264.5 C 154.354,264.176 161.021,264.509 167.5,265.5C 160.833,265.5 154.167,265.5 147.5,265.5C 147.5,266.833 147.5,268.167 147.5,269.5C 147.167,269.5 146.833,269.5 146.5,269.5C 146.216,267.585 146.549,265.919 147.5,264.5 Z"/></g>
<g><path style="opacity:1" fill="#638f39" d="M 181.5,263.5 C 186.844,263.334 192.177,263.501 197.5,264C 198.807,265.943 198.807,267.777 197.5,269.5C 197.5,268.167 197.5,266.833 197.5,265.5C 192.167,265.5 186.833,265.5 181.5,265.5C 181.5,266.833 181.5,268.167 181.5,269.5C 180.258,267.611 180.258,265.611 181.5,263.5 Z"/></g>
<g><path style="opacity:1" fill="#4b7b31" d="M 303.5,263.5 C 307.702,263.183 311.702,263.517 315.5,264.5C 310.12,264.324 304.787,264.658 299.5,265.5C 299.5,268.833 299.5,272.167 299.5,275.5C 299.167,275.5 298.833,275.5 298.5,275.5C 297.359,272.36 297.192,269.027 298,265.5C 299.584,264.139 301.418,263.472 303.5,263.5 Z"/></g>
<g><path style="opacity:1" fill="#e6eb27" d="M 355.5,267.5 C 357.178,270.552 357.845,273.885 357.5,277.5C 355.833,277.5 354.167,277.5 352.5,277.5C 353.084,274.715 352.084,273.048 349.5,272.5C 349.047,271.542 348.381,270.708 347.5,270C 344.833,269.333 342.167,269.333 339.5,270C 337.963,271.11 337.297,272.61 337.5,274.5C 336.167,274.5 334.833,274.5 333.5,274.5C 333.065,271.162 333.732,268.162 335.5,265.5C 342.407,263.682 349.074,264.349 355.5,267.5 Z"/></g>
<g><path style="opacity:1" fill="#d6e233" d="M 230.5,272.5 C 232.015,278.529 234.848,283.863 239,288.5C 239.818,282.651 239.652,276.985 238.5,271.5C 237.5,271.167 236.833,270.5 236.5,269.5C 236.5,268.167 236.5,266.833 236.5,265.5C 241.167,265.5 245.833,265.5 250.5,265.5C 250.634,267.292 250.301,268.958 249.5,270.5C 248.508,270.328 247.842,270.662 247.5,271.5C 246.506,281.987 246.172,292.654 246.5,303.5C 243.833,303.5 241.167,303.5 238.5,303.5C 237.833,303.5 237.5,303.167 237.5,302.5C 236.272,301.694 235.272,300.694 234.5,299.5C 232.985,294.807 230.651,290.474 227.5,286.5C 229.672,287.801 232.005,288.801 234.5,289.5C 234.441,286.269 232.941,283.935 230,282.5C 229.368,276.935 227.368,271.935 224,267.5C 221.619,266.565 219.119,266.232 216.5,266.5C 217.563,276.473 217.729,286.473 217,296.5C 216.617,297.056 216.117,297.389 215.5,297.5C 215.826,288.651 215.493,279.984 214.5,271.5C 211.979,269.97 210.979,267.636 211.5,264.5C 215.514,264.334 219.514,264.501 223.5,265C 225.947,267.395 228.281,269.895 230.5,272.5 Z"/></g>
<g><path style="opacity:1" fill="#a6c34b" d="M 333.5,265.5 C 334.167,265.5 334.833,265.5 335.5,265.5C 333.732,268.162 333.065,271.162 333.5,274.5C 334.833,274.5 336.167,274.5 337.5,274.5C 337.297,272.61 337.963,271.11 339.5,270C 342.167,269.333 344.833,269.333 347.5,270C 348.381,270.708 349.047,271.542 349.5,272.5C 344.024,270.187 340.024,271.52 337.5,276.5C 335.533,276.739 333.699,276.406 332,275.5C 331.502,272.518 331.335,269.518 331.5,266.5C 331.842,265.662 332.508,265.328 333.5,265.5 Z"/></g>
<g><path style="opacity:1" fill="#e9e922" d="M 167.5,265.5 C 170.167,266.167 172.833,266.833 175.5,267.5C 175.328,268.492 175.662,269.158 176.5,269.5C 176.75,274.58 176.25,279.58 175,284.5C 174.167,285.333 173.333,286.167 172.5,287C 168.001,288.039 163.668,289.206 159.5,290.5C 159.337,292.857 159.503,295.19 160,297.5C 160.671,298.252 161.504,298.586 162.5,298.5C 162.5,300.167 162.5,301.833 162.5,303.5C 157.5,303.5 152.5,303.5 147.5,303.5C 147.077,300.712 148.077,298.712 150.5,297.5C 151.833,288.833 151.833,280.167 150.5,271.5C 149.261,271.058 148.261,270.391 147.5,269.5C 147.5,268.167 147.5,266.833 147.5,265.5C 154.167,265.5 160.833,265.5 167.5,265.5 Z"/></g>
<g><path style="opacity:1" fill="#195c39" d="M 57.5,188.5 C 53.2495,222.886 53.5828,257.219 58.5,291.5C 56.4773,285.756 54.9773,279.756 54,273.5C 50.1504,244.81 51.317,216.477 57.5,188.5 Z"/></g>
<g><path style="opacity:1" fill="#bcd243" d="M 287.5,266.5 C 287.5,276.5 287.5,286.5 287.5,296.5C 286.67,287.009 286.17,277.342 286,267.5C 284.274,266.424 282.441,266.257 280.5,267C 277.109,268.689 274.109,270.856 271.5,273.5C 272.167,273.833 272.833,274.167 273.5,274.5C 275.453,273.844 277.453,273.511 279.5,273.5C 279.826,281.684 279.492,289.684 278.5,297.5C 278.831,289.804 278.497,282.138 277.5,274.5C 276.145,275.188 275.145,276.188 274.5,277.5C 272.883,278.038 271.216,278.371 269.5,278.5C 268.178,276.689 267.678,274.689 268,272.5C 272.596,268.619 277.763,265.953 283.5,264.5C 285.333,264.585 286.666,265.252 287.5,266.5 Z"/></g>
<g><path style="opacity:1" fill="#c0db4b" d="M 315.5,264.5 C 320.075,264.453 323.408,266.453 325.5,270.5C 325.813,274.042 325.479,277.375 324.5,280.5C 324.751,277.091 324.417,273.758 323.5,270.5C 316.808,265.386 309.475,264.219 301.5,267C 300.565,269.381 300.232,271.881 300.5,274.5C 302.664,274.279 304.33,273.279 305.5,271.5C 305.659,276.252 303.659,277.586 299.5,275.5C 299.5,272.167 299.5,268.833 299.5,265.5C 304.787,264.658 310.12,264.324 315.5,264.5 Z"/></g>
<g><path style="opacity:1" fill="#6d922b" d="M 194.5,271.5 C 194.5,279.833 194.5,288.167 194.5,296.5C 197.167,296.5 199.833,296.5 202.5,296.5C 199.713,297.477 196.713,297.81 193.5,297.5C 193.174,288.651 193.507,279.984 194.5,271.5 Z"/></g>
<g><path style="opacity:1" fill="#5c8429" d="M 181.5,269.5 C 183.017,269.511 184.184,270.177 185,271.5C 185.824,280.343 185.657,289.01 184.5,297.5C 184.825,289.981 184.492,282.648 183.5,275.5C 183.747,273.142 183.081,271.142 181.5,269.5 Z"/></g>
<g><path style="opacity:1" fill="#115542" d="M 146.5,271.5 C 147.496,271.414 148.329,271.748 149,272.5C 149.823,280.677 149.656,288.677 148.5,296.5C 148.666,289.159 148.5,281.826 148,274.5C 146.961,273.756 146.461,272.756 146.5,271.5 Z"/></g>
<g><path style="opacity:1" fill="#15554b" d="M 331.5,266.5 C 331.335,269.518 331.502,272.518 332,275.5C 333.699,276.406 335.533,276.739 337.5,276.5C 339.912,276.306 340.912,274.973 340.5,272.5C 346.472,271.309 348.805,273.476 347.5,279C 344.5,279.333 341.5,279.667 338.5,280C 337.189,282.274 337.189,284.44 338.5,286.5C 340.531,286.972 342.198,287.972 343.5,289.5C 341.396,289.799 339.396,289.466 337.5,288.5C 336.201,285.301 336.201,282.135 337.5,279C 334.993,278.907 332.826,278.074 331,276.5C 330.192,272.973 330.359,269.64 331.5,266.5 Z"/></g>
<g><path style="opacity:1" fill="#efec15" d="M 227.5,286.5 C 226.529,284.517 225.529,282.517 224.5,280.5C 224.44,279.957 224.107,279.624 223.5,279.5C 222.749,280.376 222.249,281.376 222,282.5C 221.333,287.5 221.333,292.5 222,297.5C 224.556,298.219 225.723,299.886 225.5,302.5C 221.167,302.5 216.833,302.5 212.5,302.5C 212.433,301.041 212.766,299.708 213.5,298.5C 214.167,298.167 214.833,297.833 215.5,297.5C 216.117,297.389 216.617,297.056 217,296.5C 217.729,286.473 217.563,276.473 216.5,266.5C 219.119,266.232 221.619,266.565 224,267.5C 227.368,271.935 229.368,276.935 230,282.5C 232.941,283.935 234.441,286.269 234.5,289.5C 232.005,288.801 229.672,287.801 227.5,286.5 Z"/></g>
<g><path style="opacity:1" fill="#285a21" d="M 197.5,269.5 C 197.217,270.289 196.717,270.956 196,271.5C 195.5,279.493 195.334,287.493 195.5,295.5C 197.199,295.66 198.866,295.494 200.5,295C 201.163,293.482 202.163,292.315 203.5,291.5C 202.962,293.117 202.629,294.784 202.5,296.5C 199.833,296.5 197.167,296.5 194.5,296.5C 194.5,288.167 194.5,279.833 194.5,271.5C 194.973,270.094 195.973,269.427 197.5,269.5 Z"/></g>
<g><path style="opacity:1" fill="#3f6e31" d="M 357.5,280.5 C 358.511,276.888 358.678,273.221 358,269.5C 357.292,268.619 356.458,267.953 355.5,267.5C 349.074,264.349 342.407,263.682 335.5,265.5C 334.833,265.5 334.167,265.5 333.5,265.5C 336.258,264.182 339.424,263.515 343,263.5C 348.111,263.181 352.945,264.014 357.5,266C 359.014,268.587 359.68,271.42 359.5,274.5C 359.461,276.952 358.794,278.952 357.5,280.5 Z"/></g>
<g><path style="opacity:1" fill="#305f2a" d="M 159.5,271.5 C 168.299,270.768 170.965,274.268 167.5,282C 164.986,283.252 162.32,283.752 159.5,283.5C 159.5,279.5 159.5,275.5 159.5,271.5 Z"/></g>
<g><path style="opacity:1" fill="#0a565b" d="M 162.5,273.5 C 168.297,273.592 169.631,275.925 166.5,280.5C 164.929,281.309 163.262,281.643 161.5,281.5C 161.279,278.721 161.612,276.054 162.5,273.5 Z"/></g>
<g><path style="opacity:1" fill="#b3cc45" d="M 176.5,269.5 C 177.401,270.29 178.068,271.29 178.5,272.5C 179.422,285.908 173.088,291.908 159.5,290.5C 163.668,289.206 168.001,288.039 172.5,287C 173.333,286.167 174.167,285.333 175,284.5C 176.25,279.58 176.75,274.58 176.5,269.5 Z"/></g>
<g><path style="opacity:1" fill="#527d34" d="M 325.5,270.5 C 325.833,270.5 326.167,270.5 326.5,270.5C 326.666,274.514 326.499,278.514 326,282.5C 324.723,284.747 323.223,286.747 321.5,288.5C 319.098,290.909 316.431,292.909 313.5,294.5C 317.988,290.361 321.655,285.694 324.5,280.5C 325.479,277.375 325.813,274.042 325.5,270.5 Z"/></g>
<g><path style="opacity:1" fill="#497735" d="M 349.5,272.5 C 349.768,275.119 349.435,277.619 348.5,280C 345.274,281.199 341.941,281.699 338.5,281.5C 338.5,283.167 338.5,284.833 338.5,286.5C 337.189,284.44 337.189,282.274 338.5,280C 341.5,279.667 344.5,279.333 347.5,279C 348.805,273.476 346.472,271.309 340.5,272.5C 340.912,274.973 339.912,276.306 337.5,276.5C 340.024,271.52 344.024,270.187 349.5,272.5 Z"/></g>
<g><path style="opacity:1" fill="#366828" d="M 278.5,297.5 C 276.167,297.5 273.833,297.5 271.5,297.5C 271.5,299.5 271.5,301.5 271.5,303.5C 271.5,303.833 271.5,304.167 271.5,304.5C 269.692,303.082 269.025,301.082 269.5,298.5C 271.635,296.631 274.302,295.964 277.5,296.5C 277.5,290.167 277.5,283.833 277.5,277.5C 276.5,277.5 275.5,277.5 274.5,277.5C 275.145,276.188 276.145,275.188 277.5,274.5C 278.497,282.138 278.831,289.804 278.5,297.5 Z"/></g>
<g><path style="opacity:1" fill="#487632" d="M 287.5,266.5 C 288.494,276.319 288.827,286.319 288.5,296.5C 290.735,296.205 292.735,296.539 294.5,297.5C 291.941,297.802 289.607,297.468 287.5,296.5C 287.5,286.5 287.5,276.5 287.5,266.5 Z"/></g>
<g><path style="opacity:1" fill="#2e622e" d="M 178.5,272.5 C 179.643,275.976 179.81,279.642 179,283.5C 177.579,285.405 176.412,287.405 175.5,289.5C 173.315,289.704 171.315,290.37 169.5,291.5C 166.5,291.5 163.5,291.5 160.5,291.5C 160.166,294.188 160.832,296.521 162.5,298.5C 161.504,298.586 160.671,298.252 160,297.5C 159.503,295.19 159.337,292.857 159.5,290.5C 173.088,291.908 179.422,285.908 178.5,272.5 Z"/></g>
<g><path style="opacity:1" fill="#e7e924" d="M 324.5,280.5 C 321.655,285.694 317.988,290.361 313.5,294.5C 311.618,295.221 311.285,296.221 312.5,297.5C 316.634,298.485 320.968,298.818 325.5,298.5C 325.5,299.833 325.5,301.167 325.5,302.5C 317.826,302.666 310.159,302.5 302.5,302C 301.409,299.936 301.242,297.769 302,295.5C 305.333,293.333 308.166,290.666 310.5,287.5C 314.496,284.767 316.829,280.934 317.5,276C 317.215,274.11 316.215,272.777 314.5,272C 311.518,271.502 308.518,271.335 305.5,271.5C 304.33,273.279 302.664,274.279 300.5,274.5C 300.232,271.881 300.565,269.381 301.5,267C 309.475,264.219 316.808,265.386 323.5,270.5C 324.417,273.758 324.751,277.091 324.5,280.5 Z"/></g>
<g><path style="opacity:1" fill="#eaeb22" d="M 287.5,296.5 C 289.607,297.468 291.941,297.802 294.5,297.5C 294.5,299.5 294.5,301.5 294.5,303.5C 286.833,303.5 279.167,303.5 271.5,303.5C 271.5,301.5 271.5,299.5 271.5,297.5C 273.833,297.5 276.167,297.5 278.5,297.5C 279.492,289.684 279.826,281.684 279.5,273.5C 277.453,273.511 275.453,273.844 273.5,274.5C 272.833,274.167 272.167,273.833 271.5,273.5C 274.109,270.856 277.109,268.689 280.5,267C 282.441,266.257 284.274,266.424 286,267.5C 286.17,277.342 286.67,287.009 287.5,296.5 Z"/></g>
<g><path style="opacity:1" fill="#305d26" d="M 224.5,280.5 C 225.529,282.517 226.529,284.517 227.5,286.5C 230.651,290.474 232.985,294.807 234.5,299.5C 231.758,295.72 228.758,292.053 225.5,288.5C 224.259,291.537 224.259,294.537 225.5,297.5C 224.186,295.085 223.519,292.252 223.5,289C 223.502,285.979 223.836,283.146 224.5,280.5 Z"/></g>
<g><path style="opacity:1" fill="#336439" d="M 305.5,271.5 C 308.518,271.335 311.518,271.502 314.5,272C 316.215,272.777 317.215,274.11 317.5,276C 316.829,280.934 314.496,284.767 310.5,287.5C 306.518,290.476 302.518,293.476 298.5,296.5C 299.396,293.931 301.062,291.931 303.5,290.5C 304.429,289.311 304.762,287.978 304.5,286.5C 307.587,286.253 310.42,285.253 313,283.5C 313.953,280.568 314.453,277.568 314.5,274.5C 312.94,274.481 311.44,274.148 310,273.5C 307.544,275.786 304.71,277.453 301.5,278.5C 299.484,278.484 298.484,277.484 298.5,275.5C 298.833,275.5 299.167,275.5 299.5,275.5C 303.659,277.586 305.659,276.252 305.5,271.5 Z"/></g>
<g><path style="opacity:1" fill="#386a33" d="M 357.5,280.5 C 356.005,283.512 356.838,285.845 360,287.5C 361.445,300.231 355.611,306.564 342.5,306.5C 337.432,305.696 332.432,304.696 327.5,303.5C 327.5,301.167 327.5,298.833 327.5,296.5C 328.637,297.789 329.97,298.789 331.5,299.5C 331.36,301.124 332.027,302.29 333.5,303C 339.841,304.919 346.175,304.919 352.5,303C 359.065,299.109 360.731,293.943 357.5,287.5C 356.41,286.143 355.076,285.143 353.5,284.5C 353.833,282.167 355.167,280.833 357.5,280.5 Z"/></g>
<g><path style="opacity:1" fill="#235d35" d="M 183.5,275.5 C 184.492,282.648 184.825,289.981 184.5,297.5C 182.031,298.607 181.031,300.607 181.5,303.5C 194.003,304.29 206.669,304.957 219.5,305.5C 221.952,305.461 223.952,304.794 225.5,303.5C 226.167,303.5 226.833,303.5 227.5,303.5C 227.55,305.59 226.55,306.923 224.5,307.5C 218.876,306.594 213.209,305.928 207.5,305.5C 198.249,305.818 189.083,305.485 180,304.5C 179.014,301.258 179.848,298.592 182.5,296.5C 183.497,289.532 183.83,282.532 183.5,275.5 Z"/></g>
<g><path style="opacity:1" fill="#4d7c32" d="M 146.5,269.5 C 146.833,269.5 147.167,269.5 147.5,269.5C 148.261,270.391 149.261,271.058 150.5,271.5C 151.833,280.167 151.833,288.833 150.5,297.5C 148.077,298.712 147.077,300.712 147.5,303.5C 152.5,303.5 157.5,303.5 162.5,303.5C 162.5,301.833 162.5,300.167 162.5,298.5C 164.693,304.998 162.193,307.331 155,305.5C 152.5,305.333 150,305.167 147.5,305C 145.845,303.556 145.178,301.722 145.5,299.5C 145.5,299.167 145.5,298.833 145.5,298.5C 146.71,298.068 147.71,297.401 148.5,296.5C 149.656,288.677 149.823,280.677 149,272.5C 148.329,271.748 147.496,271.414 146.5,271.5C 146.5,270.833 146.5,270.167 146.5,269.5 Z"/></g>
<g><path style="opacity:1" fill="#215632" d="M 321.5,288.5 C 320.952,290.394 319.952,292.06 318.5,293.5C 321.656,294.384 324.656,295.384 327.5,296.5C 322.381,297.103 317.715,296.436 313.5,294.5C 316.431,292.909 319.098,290.909 321.5,288.5 Z"/></g>
<g><path style="opacity:1" fill="#6b8e31" d="M 313.5,294.5 C 317.715,296.436 322.381,297.103 327.5,296.5C 327.5,298.833 327.5,301.167 327.5,303.5C 327.167,303.5 326.833,303.5 326.5,303.5C 326.5,301.5 326.5,299.5 326.5,297.5C 321.833,297.5 317.167,297.5 312.5,297.5C 311.285,296.221 311.618,295.221 313.5,294.5 Z"/></g>
<g><path style="opacity:1" fill="#2c6031" d="M 338.5,286.5 C 347.07,285.067 350.403,288.4 348.5,296.5C 342.795,297.043 337.128,297.376 331.5,297.5C 331.414,296.504 331.748,295.671 332.5,295C 337.495,295.082 342.495,295.082 347.5,295C 349.492,290.848 348.159,289.015 343.5,289.5C 342.198,287.972 340.531,286.972 338.5,286.5 Z"/></g>
<g><path style="opacity:1" fill="#4d7b2b" d="M 214.5,271.5 C 215.493,279.984 215.826,288.651 215.5,297.5C 214.833,297.833 214.167,298.167 213.5,298.5C 211.744,299.552 211.077,301.219 211.5,303.5C 216.167,303.5 220.833,303.5 225.5,303.5C 223.952,304.794 221.952,305.461 219.5,305.5C 206.669,304.957 194.003,304.29 181.5,303.5C 190.5,303.5 199.5,303.5 208.5,303.5C 208.5,299.5 208.5,295.5 208.5,291.5C 206.833,291.5 205.167,291.5 203.5,291.5C 209.327,288.979 211.66,290.979 210.5,297.5C 211.791,297.737 212.791,297.404 213.5,296.5C 214.493,288.35 214.826,280.017 214.5,271.5 Z"/></g>
<g><path style="opacity:1" fill="#dde732" d="M 197.5,269.5 C 195.973,269.427 194.973,270.094 194.5,271.5C 193.507,279.984 193.174,288.651 193.5,297.5C 196.713,297.81 199.713,297.477 202.5,296.5C 202.629,294.784 202.962,293.117 203.5,291.5C 205.167,291.5 206.833,291.5 208.5,291.5C 208.5,295.5 208.5,299.5 208.5,303.5C 199.5,303.5 190.5,303.5 181.5,303.5C 181.031,300.607 182.031,298.607 184.5,297.5C 185.657,289.01 185.824,280.343 185,271.5C 184.184,270.177 183.017,269.511 181.5,269.5C 181.5,268.167 181.5,266.833 181.5,265.5C 186.833,265.5 192.167,265.5 197.5,265.5C 197.5,266.833 197.5,268.167 197.5,269.5 Z"/></g>
<g><path style="opacity:1" fill="#f2ec10" d="M 187.5,267.5 C 189.5,267.5 191.5,267.5 193.5,267.5C 192.51,278.925 192.177,290.258 192.5,301.5C 191.784,300.689 190.95,300.022 190,299.5C 189.333,300.167 188.667,300.833 188,301.5C 185.266,300.709 184.932,299.376 187,297.5C 187.413,287.355 187.579,277.355 187.5,267.5 Z"/></g>
<g><path style="opacity:1" fill="#eeec1b" d="M 353.5,284.5 C 355.076,285.143 356.41,286.143 357.5,287.5C 358.947,293.898 356.947,298.731 351.5,302C 346.167,302.667 340.833,302.667 335.5,302C 334.663,300.989 334.33,299.822 334.5,298.5C 339.511,298.666 344.511,298.499 349.5,298C 352.52,293.313 351.854,289.147 347.5,285.5C 345.5,284.833 343.5,284.167 341.5,283.5C 345.645,282.789 349.312,281.123 352.5,278.5C 353.622,280.044 353.289,281.377 351.5,282.5C 351.855,283.522 352.522,284.189 353.5,284.5 Z"/></g>
<g><path style="opacity:1" fill="#c3d945" d="M 224.5,280.5 C 223.836,283.146 223.502,285.979 223.5,289C 223.519,292.252 224.186,295.085 225.5,297.5C 227.081,299.142 227.747,301.142 227.5,303.5C 226.833,303.5 226.167,303.5 225.5,303.5C 220.833,303.5 216.167,303.5 211.5,303.5C 211.077,301.219 211.744,299.552 213.5,298.5C 212.766,299.708 212.433,301.041 212.5,302.5C 216.833,302.5 221.167,302.5 225.5,302.5C 225.723,299.886 224.556,298.219 222,297.5C 221.333,292.5 221.333,287.5 222,282.5C 222.249,281.376 222.749,280.376 223.5,279.5C 224.107,279.624 224.44,279.957 224.5,280.5 Z"/></g>
<g><path style="opacity:1" fill="#b3cc42" d="M 310.5,287.5 C 308.166,290.666 305.333,293.333 302,295.5C 301.242,297.769 301.409,299.936 302.5,302C 310.159,302.5 317.826,302.666 325.5,302.5C 325.5,301.167 325.5,299.833 325.5,298.5C 320.968,298.818 316.634,298.485 312.5,297.5C 317.167,297.5 321.833,297.5 326.5,297.5C 326.5,299.5 326.5,301.5 326.5,303.5C 326.5,304.167 326.167,304.5 325.5,304.5C 316.5,304.5 307.5,304.5 298.5,304.5C 298.5,301.833 298.5,299.167 298.5,296.5C 302.518,293.476 306.518,290.476 310.5,287.5 Z"/></g>
<g><path style="opacity:1" fill="#c4d743" d="M 355.5,267.5 C 356.458,267.953 357.292,268.619 358,269.5C 358.678,273.221 358.511,276.888 357.5,280.5C 355.167,280.833 353.833,282.167 353.5,284.5C 352.522,284.189 351.855,283.522 351.5,282.5C 353.289,281.377 353.622,280.044 352.5,278.5C 349.312,281.123 345.645,282.789 341.5,283.5C 343.5,284.167 345.5,284.833 347.5,285.5C 351.854,289.147 352.52,293.313 349.5,298C 344.511,298.499 339.511,298.666 334.5,298.5C 334.33,299.822 334.663,300.989 335.5,302C 340.833,302.667 346.167,302.667 351.5,302C 356.947,298.731 358.947,293.898 357.5,287.5C 360.731,293.943 359.065,299.109 352.5,303C 346.175,304.919 339.841,304.919 333.5,303C 332.027,302.29 331.36,301.124 331.5,299.5C 331.5,298.833 331.5,298.167 331.5,297.5C 337.128,297.376 342.795,297.043 348.5,296.5C 350.403,288.4 347.07,285.067 338.5,286.5C 338.5,284.833 338.5,283.167 338.5,281.5C 341.941,281.699 345.274,281.199 348.5,280C 349.435,277.619 349.768,275.119 349.5,272.5C 352.084,273.048 353.084,274.715 352.5,277.5C 354.167,277.5 355.833,277.5 357.5,277.5C 357.845,273.885 357.178,270.552 355.5,267.5 Z"/></g>
<g><path style="opacity:1" fill="#a5dce5" d="M 302.5,100.5 C 262.832,100.333 223.165,100.5 183.5,101C 177.833,102 172.167,103 166.5,104C 142.819,111.478 124.486,125.645 111.5,146.5C 102.728,158.393 96.8946,171.726 94,186.5C 92.5354,205.145 92.2021,223.812 93,242.5C 93.0525,249.938 94.5525,256.938 97.5,263.5C 103.394,297.938 120.894,324.938 150,344.5C 153.217,349.693 155.05,355.36 155.5,361.5C 155.631,362.239 155.464,362.906 155,363.5C 152.707,359.748 150.54,355.914 148.5,352C 138.534,344.425 129.034,336.258 120,327.5C 111.894,318.062 104.561,308.062 98,297.5C 80.4976,257.317 76.4976,215.65 86,172.5C 95.514,141.085 114.681,117.751 143.5,102.5C 150.193,101.214 156.693,99.2142 163,96.5C 166.514,95.9131 170.014,95.2464 173.5,94.5C 174.894,94.6207 176.228,94.954 177.5,95.5C 180.914,93.7017 184.581,92.5351 188.5,92C 209.217,91.6934 229.884,92.5267 250.5,94.5C 261.962,93.9578 272.796,93.6245 283,93.5C 292.134,94.6882 301.301,95.5215 310.5,96C 312.5,96.6667 314.5,97.3333 316.5,98C 312.086,100.09 307.419,100.924 302.5,100.5 Z"/></g>
<g><path style="opacity:1" fill="#6b9636" d="M 294.5,297.5 C 295.468,299.607 295.802,301.941 295.5,304.5C 287.5,304.5 279.5,304.5 271.5,304.5C 271.5,304.167 271.5,303.833 271.5,303.5C 279.167,303.5 286.833,303.5 294.5,303.5C 294.5,301.5 294.5,299.5 294.5,297.5 Z"/></g>
<g><path style="opacity:1" fill="#12564f" d="M 169.5,291.5 C 166.954,291.982 164.621,292.982 162.5,294.5C 167.185,298.073 167.518,301.906 163.5,306C 156.797,306.713 150.13,306.546 143.5,305.5C 143.259,303.102 143.926,301.102 145.5,299.5C 145.178,301.722 145.845,303.556 147.5,305C 150,305.167 152.5,305.333 155,305.5C 162.193,307.331 164.693,304.998 162.5,298.5C 160.832,296.521 160.166,294.188 160.5,291.5C 163.5,291.5 166.5,291.5 169.5,291.5 Z"/></g>
<g><path style="opacity:1" fill="#195848" d="M 249.5,305.5 C 242.433,307.191 236.266,305.525 231,300.5C 230.241,302.063 229.074,303.063 227.5,303.5C 227.747,301.142 227.081,299.142 225.5,297.5C 224.259,294.537 224.259,291.537 225.5,288.5C 228.758,292.053 231.758,295.72 234.5,299.5C 235.272,300.694 236.272,301.694 237.5,302.5C 237.5,303.167 237.833,303.5 238.5,303.5C 241.5,304.833 244.5,304.833 247.5,303.5C 248.187,292.599 248.854,281.599 249.5,270.5C 251.308,269.082 251.975,267.082 251.5,264.5C 246.167,264.5 240.833,264.5 235.5,264.5C 235.216,266.415 235.549,268.081 236.5,269.5C 236.833,270.5 237.5,271.167 238.5,271.5C 238.5,274.833 238.5,278.167 238.5,281.5C 237.5,281.5 236.5,281.5 235.5,281.5C 234.61,278.052 232.943,275.052 230.5,272.5C 228.281,269.895 225.947,267.395 223.5,265C 219.514,264.501 215.514,264.334 211.5,264.5C 210.979,267.636 211.979,269.97 214.5,271.5C 214.826,280.017 214.493,288.35 213.5,296.5C 213.831,288.472 213.498,280.472 212.5,272.5C 209.279,270.387 207.945,267.387 208.5,263.5C 214.463,262.47 220.463,262.303 226.5,263C 228.676,263.163 230.509,263.996 232,265.5C 233.255,264.789 234.421,263.956 235.5,263C 241.22,262.212 246.886,262.379 252.5,263.5C 254.362,267.405 253.528,270.405 250,272.5C 249.581,283.675 249.414,294.675 249.5,305.5 Z"/></g>
<g><path style="opacity:1" fill="#9bb943" d="M 247.5,271.5 C 247.5,282.167 247.5,292.833 247.5,303.5C 244.5,304.833 241.5,304.833 238.5,303.5C 241.167,303.5 243.833,303.5 246.5,303.5C 246.172,292.654 246.506,281.987 247.5,271.5 Z"/></g>
<g><path style="opacity:1" fill="#3d681d" d="M 238.5,271.5 C 239.652,276.985 239.818,282.651 239,288.5C 234.848,283.863 232.015,278.529 230.5,272.5C 232.943,275.052 234.61,278.052 235.5,281.5C 236.5,281.5 237.5,281.5 238.5,281.5C 238.5,278.167 238.5,274.833 238.5,271.5 Z"/></g>
<g><path style="opacity:1" fill="#396b2c" d="M 249.5,270.5 C 248.854,281.599 248.187,292.599 247.5,303.5C 247.5,292.833 247.5,282.167 247.5,271.5C 247.842,270.662 248.508,270.328 249.5,270.5 Z"/></g>
<g><path style="opacity:1" fill="#f1ec10" d="M 237.5,302.5 C 237.702,297.704 237.036,293.37 235.5,289.5C 236.218,288.863 237.218,288.863 238.5,289.5C 239.647,289.182 240.481,288.516 241,287.5C 241.167,284.333 241.333,281.167 241.5,278C 241.45,274.397 240.783,271.064 239.5,268C 241.902,267.186 244.235,267.353 246.5,268.5C 245.522,279.782 245.188,291.115 245.5,302.5C 242.833,302.5 240.167,302.5 237.5,302.5 Z"/></g>
<g><path style="opacity:1" fill="#89b04c" d="M 249.5,270.5 C 250.301,268.958 250.634,267.292 250.5,265.5C 245.833,265.5 241.167,265.5 236.5,265.5C 236.5,266.833 236.5,268.167 236.5,269.5C 235.549,268.081 235.216,266.415 235.5,264.5C 240.833,264.5 246.167,264.5 251.5,264.5C 251.975,267.082 251.308,269.082 249.5,270.5 Z"/></g>
<g><path style="opacity:1" fill="#1b563f" d="M 298.5,296.5 C 298.5,299.167 298.5,301.833 298.5,304.5C 307.5,304.5 316.5,304.5 325.5,304.5C 318.24,306.465 310.573,307.132 302.5,306.5C 300.801,306.38 299.135,306.046 297.5,305.5C 288.283,306.127 279.116,306.794 270,307.5C 268.097,305.559 267.264,303.226 267.5,300.5C 268.167,299.833 268.833,299.167 269.5,298.5C 269.025,301.082 269.692,303.082 271.5,304.5C 279.5,304.5 287.5,304.5 295.5,304.5C 295.802,301.941 295.468,299.607 294.5,297.5C 292.735,296.539 290.735,296.205 288.5,296.5C 288.827,286.319 288.494,276.319 287.5,266.5C 286.666,265.252 285.333,264.585 283.5,264.5C 277.763,265.953 272.596,268.619 268,272.5C 267.678,274.689 268.178,276.689 269.5,278.5C 266.746,276.947 265.913,274.614 267,271.5C 269.803,269.698 271.969,267.365 273.5,264.5C 278.77,263.549 284.103,263.215 289.5,263.5C 289.302,273.204 289.802,282.87 291,292.5C 293.185,294.54 295.685,295.874 298.5,296.5 Z"/></g>
<g><path style="opacity:1" fill="#52af80" d="M 437.5,287.5 C 433.358,299.791 426.692,310.458 417.5,319.5C 418.915,314.571 421.748,310.571 426,307.5C 430.126,300.836 433.959,294.169 437.5,287.5 Z"/></g>
<g><path style="opacity:1" fill="#175c3f" d="M 58.5,292.5 C 63.7245,297.955 66.5579,304.621 67,312.5C 70.0565,317.386 72.8899,322.386 75.5,327.5C 70.8568,322.167 67.0235,316.167 64,309.5C 62.0169,303.908 60.1836,298.241 58.5,292.5 Z"/></g>
<g><path style="opacity:1" fill="#52b19c" d="M 417.5,319.5 C 409.541,329.635 399.874,337.635 388.5,343.5C 390.42,340.894 392.42,338.227 394.5,335.5C 396.167,334.833 397.833,334.167 399.5,333.5C 400.453,331.545 401.787,329.878 403.5,328.5C 408.462,327.37 411.629,324.37 413,319.5C 414.414,320.413 415.914,320.413 417.5,319.5 Z"/></g>
<g><path style="opacity:1" fill="#265c3d" d="M 77.5,330.5 C 82.5149,334.361 87.1816,338.695 91.5,343.5C 85.5724,340.574 80.9057,336.241 77.5,330.5 Z"/></g>
<g><path style="opacity:1" fill="#1b6934" d="M 91.5,344.5 C 93.2624,344.357 94.9291,344.691 96.5,345.5C 98.9144,347.906 100.914,350.573 102.5,353.5C 98.61,350.729 94.9433,347.729 91.5,344.5 Z"/></g>
<g><path style="opacity:1" fill="#55a886" d="M 388.5,343.5 C 383.185,347.83 377.185,351.163 370.5,353.5C 370.937,351.926 371.937,350.759 373.5,350C 378.447,347.524 383.447,345.358 388.5,343.5 Z"/></g>
<g><path style="opacity:1" fill="#21693b" d="M 102.5,353.5 C 104.017,353.511 105.184,354.177 106,355.5C 108.65,359.133 110.483,363.133 111.5,367.5C 108.515,362.875 105.515,358.208 102.5,353.5 Z"/></g>
<g><path style="opacity:1" fill="#4da986" d="M 360.5,357.5 C 341.12,365.554 320.787,370.054 299.5,371C 285.5,371.333 271.5,371.667 257.5,372C 245.958,372.954 235.624,376.788 226.5,383.5C 227.066,381.922 228.066,380.588 229.5,379.5C 232.016,378.274 234.349,376.774 236.5,375C 241.025,373.184 245.691,371.85 250.5,371C 276.284,371.098 301.951,369.431 327.5,366C 338.709,363.709 349.709,360.875 360.5,357.5 Z"/></g>
<g><path style="opacity:1" fill="#a1dbe6" d="M 201.5,384.5 C 199.519,393.821 196.352,402.821 192,411.5C 187.761,415.465 183.595,415.465 179.5,411.5C 176.371,407.575 174.038,403.241 172.5,398.5C 177.802,394.03 182.636,389.03 187,383.5C 192,375.833 197,368.167 202,360.5C 208.332,352.863 216.499,348.696 226.5,348C 255.499,346.333 284.499,344.667 313.5,343C 329.307,339.882 344.64,335.215 359.5,329C 368.419,324.379 376.419,318.546 383.5,311.5C 385.017,311.489 386.184,310.823 387,309.5C 407.687,287.606 418.52,261.606 419.5,231.5C 420.317,229.031 420.817,226.365 421,223.5C 421.167,227 421.333,230.5 421.5,234C 419.016,294.1 389.016,331.767 331.5,347C 304.931,350.346 278.265,352.679 251.5,354C 240.292,355.769 229.292,358.102 218.5,361C 209.549,366.452 203.882,374.286 201.5,384.5 Z"/></g>
<g><path style="opacity:1" fill="#02849c" d="M 104.5,328.5 C 111.279,332.438 117.946,336.604 124.5,341C 127.278,343.809 129.611,346.976 131.5,350.5C 132.086,350.291 132.586,349.957 133,349.5C 140.202,356.43 144.369,364.263 145.5,373C 146.308,373.308 146.975,373.808 147.5,374.5C 146.712,376.329 147.212,377.996 149,379.5C 152.652,392.957 156.486,406.29 160.5,419.5C 158.833,421.167 157.167,422.833 155.5,424.5C 147.752,406.855 140.585,388.855 134,370.5C 129.27,362.756 124.937,354.756 121,346.5C 119.989,345.663 118.822,345.33 117.5,345.5C 117.392,343.217 116.559,341.217 115,339.5C 111.05,336.268 107.55,332.601 104.5,328.5 Z"/></g>
<g><path style="opacity:1" fill="#145d3c" d="M 111.5,367.5 C 113.193,368.475 114.693,369.808 116,371.5C 121.288,386.096 125.121,401.096 127.5,416.5C 122.669,400.02 117.335,383.686 111.5,367.5 Z"/></g>
<g><path style="opacity:1" fill="#53b08e" d="M 223.5,385.5 C 212.039,397.765 202.039,411.098 193.5,425.5C 195.119,420.726 196.953,416.059 199,411.5C 203.188,408.99 205.188,405.323 205,400.5C 206.406,401.668 207.572,401.335 208.5,399.5C 209.985,397.148 211.318,394.814 212.5,392.5C 213.552,392.649 214.552,392.483 215.5,392C 217.702,389.091 220.369,386.924 223.5,385.5 Z"/></g>
<g><path style="opacity:1" fill="#55ad82" d="M 155.5,427.5 C 160.404,432.808 163.737,439.141 165.5,446.5C 160.664,441.022 157.331,434.688 155.5,427.5 Z"/></g>
<g><path style="opacity:1" fill="#145d35" d="M 154.5,425.5 C 154.5,426.167 154.5,426.833 154.5,427.5C 150.605,432.283 145.605,435.283 139.5,436.5C 134.166,435.833 131.166,432.833 130.5,427.5C 132.599,429.587 134.265,431.92 135.5,434.5C 142.918,435.531 148.251,432.698 151.5,426C 152.448,425.517 153.448,425.351 154.5,425.5 Z"/></g>
<g><path style="opacity:1" fill="#58af84" d="M 185.5,439.5 C 182.378,445.288 177.711,449.288 171.5,451.5C 169.089,450.639 167.089,449.306 165.5,447.5C 172.875,449.485 178.542,447.152 182.5,440.5C 183.325,439.614 184.325,439.281 185.5,439.5 Z"/></g>
</svg>
